<?xml version="1.0" encoding="utf-8"?>
<!-- Generator: Adobe Illustrator 27.5.0, SVG Export Plug-In . SVG Version: 6.00 Build 0)  -->
<svg version="1.1" id="Layer_1" xmlns="http://www.w3.org/2000/svg" xmlns:xlink="http://www.w3.org/1999/xlink" x="0px" y="0px"
	 viewBox="0 0 3955.785 2000" style="enable-background:new 0 0 3955.785 2000;" xml:space="preserve">
<rect y="0" style="fill:transparent;" width="3955.786" height="2000"/>
<g>
	<path style="opacity:0.3;fill:#9BC1F9;" d="M996.735,97.842C1660,71.957,1959.654,270.804,2047.723,332.088
		c108.974,75.83,501.603-330.504,881.825-127.068c284.197,152.058,408.923-146.43,650.124,115.23
		c407.918,442.522,68.102,1577.17-16.469,1577.021l-3215.133,1.481l-38.327,1.094c0,0-234.901-299.746-22.253-474.779
		c212.648-175.034,66.548-255.033,40.799-322.719C118.364,550.521,370.144,122.297,996.735,97.842z"/>
	<g>
		<g>
			<path style="fill:#F8A492;" d="M3293.375,906.373c-1.495,5.151-2.354,6.86-4.256,10.319
				c-12.261,22.314-40.705,54.157-40.705,54.157l-22.006-49.577c0,0,3.587-15.565,9.809-37.818
				C3257.471,889.001,3277.711,892.214,3293.375,906.373z"/>
			<path style="fill:#466EB6;" d="M3167.215,863.369c0,0,122.73,52.853,126.698,51.843c2.558-0.65,50.345-80.636,50.854-155.856
				c0.235-34.741-35.842-76.529-76.097-68.266c-20.266,4.162-19.952,9.799-49.936,53.367
				C3188.753,788.025,3167.215,863.369,3167.215,863.369z"/>
			<path style="fill:#F7A491;" d="M3062.451,1810.938c0,0,2.908,48.202,2.927,48.301c1.07,6.12,5.285,21.239,5.285,26.803
				c0,20.9-99.243-17.741-77.001-27.004c2.014-0.837,12.561-7.178,13.223-14.291c1.02-10.961,3.607-33.133,3.607-33.133
				L3062.451,1810.938z"/>
			<path style="fill:#3C8F7C;" d="M2993.908,1858.84c0,0,23.301,6.394,35.232,7.99c11.934,1.599,27.668-11.859,36.107-8.223
				c9.293,4,9.348,37.77,9.348,37.77s-152.537,0.898-158,0C2902.249,1894.014,2946.273,1873.73,2993.908,1858.84z"/>
			<path style="fill:#F7A491;" d="M3265.466,1810.938c0,0,2.911,48.202,2.929,48.301c1.07,6.12,5.284,21.239,5.284,26.803
				c0,20.9-99.241-17.741-77.001-27.004c2.014-0.837,15.689-11.912,16.351-19.024c1.02-10.96,0.479-28.4,0.479-28.4
				L3265.466,1810.938z"/>
			<path style="fill:#3C8F7C;" d="M3196.924,1858.84c0,0,23.301,6.394,35.234,7.99c11.934,1.599,27.666-11.859,36.108-8.223
				c9.29,4,9.659,40.016,9.659,40.016s-27.34-5.041-160.817-0.354C3102.602,1898.778,3136.053,1869.838,3196.924,1858.84z"/>
			<path style="fill:#F7A491;" d="M3256.252,612.448l11.252,71.16c0,0-42.873,34.427-67.866,27.163
				c-20.97-6.092-6.588-33.507-6.588-33.507s11.171-37.988,7.743-57.9C3197.365,599.452,3256.252,612.448,3256.252,612.448z"/>
			<path style="fill:#FE875E;" d="M3199.65,647.637c1.582-9.957,2.482-20.491,1.143-28.273c-1.582-9.189,10.111-11.364,23.16-11.047
				c17.076,1.464,32.299,4.131,32.299,4.131l-1.166,9.686C3253.113,626.908,3227.872,645.651,3199.65,647.637z"/>
			<path style="fill:#F7A491;" d="M3277.662,515.961c1.71-0.456,4.479,81.161-19.891,101.95
				c-24.369,20.788-67.927,25.231-81.358,6.692c-14.858-20.504-4.55-107.34,32.065-127.959S3277.662,515.961,3277.662,515.961z"/>
			<path style="fill:#F7CC7F;" d="M3226.176,454.258c25.825,6.816,41.259,23.133,46.832,30.02
				c11.83,2.126,27.432,9.441,41.389,36.77c17.162,33.604-1.988,68.298-27.955,84.223c-25.967,15.923-25.668,35.774-25.668,35.774
				l-8.242-19.221c0,0,1.525-19.197,8.585-30.513c7.06-11.317-10.312-20.3-14.36-30.373c-3.117-7.758-1.443-24.918-6.292-37.72
				c0,0-22.124-19.499-39.172-21.174C3172.232,499.192,3193.041,445.514,3226.176,454.258z"/>
			<path style="fill:#F7A491;" d="M3246.313,575.401c-1.246,9.853,2.635,18.243,8.671,18.742c6.036,0.499,11.94-7.084,13.189-16.937
				c1.247-9.853-2.634-18.244-8.671-18.742C3253.465,557.965,3247.561,565.548,3246.313,575.401z"/>
			<path style="fill:#F8A492;" d="M3156.633,935.049l-168.601-27.486c0,0,19.185-48.294,26.036-48.294
				c6.855,0,127.486,52.662,127.486,52.662l9.594,19.266L3156.633,935.049z"/>
			<path style="fill:#184655;" d="M3242.992,1050.648c0,0,16.818,81.309,9.964,142.961c-6.853,61.652-7.392,280.662-7.392,280.662
				l26.154,350.416l-62.059,1.35c0,0-73.59-350.246-72.219-341.255c1.37,8.99-24.674-246.609-24.674-246.609l87.729-195.232
				L3242.992,1050.648z"/>
			<path style="fill:#13375B;" d="M3226.543,1046.794c0,0,10.965,73.214-2.742,105.323
				c-13.707,32.111-117.575,347.174-118.945,372.862c-1.371,25.688-35.912,309.624-35.912,309.624l-72.162-2.027l-15.611-315.682
				l32.69-396.76l31.737-100.314L3226.543,1046.794z"/>
			<path style="fill:#F7A491;" d="M3267.504,683.608c0,0-17.793,11.675-34.392,10.324c-16.598-1.352-40.063-16.668-40.063-16.668
				l3.26-11.055c0,0,42.937-6.256,44.02-5.578C3241.411,661.307,3267.504,683.608,3267.504,683.608z"/>
			<path style="fill:#F8A492;" d="M3077.844,856.885c0,0-63.775,60.181-92.561,49.906c-28.787-10.275-40.699-45.399,29.539-96.786
				C3077.684,764.014,3077.844,856.885,3077.844,856.885z"/>
			<path style="fill:#50BFA5;" d="M3034.631,931.196c9.475-51.541,78.137-211.93,83.619-241.473
				c2.666-14.367,39.703-14.684,74.979-12.809c37.26,1.982,74.275,6.693,74.275,6.693s32.986,5.417,47.5,19.016
				c14.514,13.6,18.368,51.208-2.494,122.602c-16.47,56.357-36.886,87.302-46.99,128.352c-2.046,13.77-3.799,27.356-6.121,43.226
				c-3.715,61.381,0.043,142.471,0.043,142.471s-179.574,37.248-246.742-19.266
				C3012.699,1120.008,3024.926,984.002,3034.631,931.196z"/>
			<path style="fill:#466EB6;" d="M2988.844,820.373c0,0,70.461,58.161,74.574,58.161c2.648,0,100.551-72.019,123.149-131.186
				c12.494-32.71-13.71-69.307-43.644-69.184c-20.745,0.085-29.97,5.43-71.094,40.109
				C3030.707,752.953,2988.844,820.373,2988.844,820.373z"/>
			<path style="fill:#FFFFFF;" d="M3172.256,590.106l29.313,7.062c0,0-3.772,12.545-16.766,9.866
				C3168.959,603.767,3172.256,590.106,3172.256,590.106z"/>
			<path style="fill:#466EB6;" d="M3255.455,540.44c0,0,20.864-38.8,24.767-55.382c0,0,6.966-0.817,10.944,2.812
				c3.98,3.627-11.763,50.543-20.098,68.93L3255.455,540.44z"/>
			<g>
				<path style="fill:#3C8F7C;" d="M3290.764,563.76c4.537,16.708-5.33,33.932-22.039,38.469
					c-16.709,4.538-33.932-5.331-38.469-22.039c-4.537-16.707,5.328-33.931,22.037-38.468
					C3269.002,537.185,3286.227,547.052,3290.764,563.76z"/>
				<path style="fill:#50BFA5;" d="M3287.156,564.739c4.537,16.708-5.33,33.932-22.037,38.469
					c-16.709,4.538-33.933-5.331-38.469-22.039c-4.537-16.708,5.33-33.932,22.037-38.469
					C3265.396,538.164,3282.62,548.031,3287.156,564.739z"/>
				<path style="fill:#13375B;" d="M3275.676,567.857c2.814,10.367-3.309,21.054-13.675,23.869
					c-10.368,2.816-21.054-3.306-23.868-13.673c-2.816-10.367,3.306-21.054,13.673-23.869
					C3262.172,551.368,3272.86,557.49,3275.676,567.857z"/>
				<path style="opacity:0.5;fill:#13375B;" d="M3245.344,576.094c-2.48-9.133,1.98-18.506,10.164-22.535
					c-1.229,0.09-2.468,0.29-3.702,0.625c-10.366,2.815-16.489,13.501-13.673,23.868c2.814,10.367,13.5,16.489,23.868,13.673
					c1.233-0.334,2.402-0.789,3.509-1.333C3256.413,591.056,3247.824,585.227,3245.344,576.094z"/>
			</g>
		</g>
		<g>
			<path style="fill:#13375B;" d="M2520.582,457.848c6.793-0.066,13.579-0.428,20.312-1.335c7.612-1.025,17.347-1.959,23.005-1.038
				c11.91,1.94,31.02,9.434,38.004,24.564c8.699,18.851,36.379,14.712,6.92,89.07c-33.346,84.166-78.224,59.159-78.915,57.326
				c-0.69-1.831-24.899-68.862-24.899-68.862s-24.842,26.98-24.465,25.816C2480.908,582.267,2438.973,458.642,2520.582,457.848z"/>
			<path style="fill:#F7A491;" d="M2126.746,783.598c0.772-1.712,0.503-5.457,1.412-7.06c11.297,4.079,26.322,24.841,27.721,23.085
				c1.818-2.281-0.533-9.642-1.723-11.923c-1.187-2.279-2.359-5.062-3.547-7.342c-1.188-2.279-0.477-5.048,2.257-6.727
				c2.731-1.679,9.445,6.384,11.208,9.63c5.469,10.06,14.633,39.75,15.844,43.204l123.852,65.816c0,0,17.721-36.824,32.176-70.914
				c5.391,4.312,10.172,6.356,13.262,4.035c6.193-4.649,39.391-21.137,69.389-38.852c-13.034,39.38-30.64,78.236-39.985,96.95
				c-21.046,42.145-56.938,92.961-66.425,90.901c-10.813-2.347-147.543-109.543-147.561-109.557c0,0-25.697-13.224-35.707-17.616
				c-8.788-3.855-16.123-9.768-21.213-14.125C2118.332,818.156,2120.025,800.554,2126.746,783.598z"/>
			<path style="fill:#466EB6;" d="M2498.723,687.579c0,0-26.371-6.25-64.696,9.484c-34.853,14.308-119.809,149.48-119.809,149.48
				l70.276,50.85l40.451-65.708l36.167-21.236L2498.723,687.579z"/>
			<path style="fill:#F48C7F;" d="M2739.411,1780.242c0,0,16.205,15.811,16.572,21.613c0.367,5.803,1.435,67.968-5.181,73.771
				c-6.615,5.803-26.045,9.917-19.797,16.445c4.72,4.933,41.043,3.878,65.117,2.554c7.027-0.387,15.84-56.455,18.623-64.697
				c4.042-11.968,13.873-38.926,10.197-47.269c-1.791-4.065-10.357-12.419-22.429-20.215c-12.696-8.2-24.845-26.459-24.845-26.459
				L2739.411,1780.242z"/>
			<path style="fill:#F7A491;" d="M2571.553,1819.744c0,0,14.501,40.965,14.519,41.07c1.077,6.49,5.324,22.525,5.324,28.423
				c0,22.166-99.96-18.813-77.558-28.636c2.028-0.891,8.39-7.992,9.056-15.535c1.028-11.623-8.421-26.202-8.421-26.202
				L2571.553,1819.744z"/>
			<g>
				<path style="fill:#184655;" d="M2414.742,1054.241c0,0-7.289,73.438-7.289,74.534c0,118.795-23.549,350.843-19.068,373.177
					c10.924,54.477,128.511,332.374,128.511,332.374l63.553-7.598l-82.815-332.721l30.474-133.922l43.125-264.723L2414.742,1054.241
					z"/>
				<path style="fill:#07345A;" d="M2628.031,1119.198l12.061,69.604l32.625,286.459l124.25,279.972
					c0,0-17.477,40.738-43.262,46.459l-197.754-287.445l-122.842-367.811l4.312-81.715L2628.031,1119.198z"/>
			</g>
			<path style="fill:#50BFA5;" d="M2432.689,774.303c-1.848,12.747-35.723,359.302-35.723,359.302
				c160.457,77.498,248.996,13.807,248.996,13.807s-5.249-243.357,1.043-276.482c4.163-21.914,9.355-167.535-4.848-171.615
				c-18.223-5.232-39.118-10.792-61.895-13.154c-19.441-2.019-94.963-3.188-108.476,1.35
				C2471.788,687.51,2440.451,720.697,2432.689,774.303z"/>
			<path style="fill:#3C8F7C;" d="M2801.729,1762.051c0,0-37.347,105.154-51.965,110.231c-3.881,1.348-22.508,4.766-26.021,13.004
				c-1.059,2.481,0,10.769,0,10.769h77.844c0,0,9.846-46.331,13.737-66.688c0,0,20.605-49.737,18.315-54.257
				C2831.35,1770.588,2801.729,1762.051,2801.729,1762.051z"/>
			<path style="fill:#3C8F7C;" d="M2597.081,1896.552l-11.448-36.161c0,0-24.04,10.17-36.059,8.475
				c-12.021-1.695-35.488-8.475-35.488-8.475c-47.979,15.792-87.283,23.457-80.133,36.161l0,0H2597.081z"/>
			<path style="fill:#F7A491;" d="M2558.935,615.001l11.805,72.175c0,0-43.214,91.836-69.036,84.106
				c-21.666-6.488-8.336-85.363-8.336-85.363s11.809-42.359,8.268-63.556C2498.094,601.167,2558.935,615.001,2558.935,615.001z"/>
			<path style="fill:#F47458;" d="M2501.635,622.363c-3.541-21.196,57.3-7.362,57.3-7.362l0.982,6.209
				c-1.78,4.154-3.956,7.71-6.598,10.436c-13.591,14.025-34.833,22.45-53.199,23.089
				C2501.957,643.305,2503.086,631.055,2501.635,622.363z"/>
			<path style="fill:#F7A491;" d="M2179.392,826.5l-17.438,36.979c-6.254-3.198-22.008-11.203-30.795-15.237l25.535-49.103
				l-0.153-2.182c0-0.529-0.042-1.093-0.118-1.676v-0.011h-0.002c-0.375-2.875-1.535-6.173-2.264-7.571
				c-1.188-2.279-2.359-5.062-3.547-7.342c-1.188-2.279-0.477-5.048,2.257-6.727c2.731-1.679,9.445,6.383,11.208,9.63
				c5.324,9.798,14.152,38.198,15.73,42.87L2179.392,826.5z"/>
			<path style="fill:#F8A492;" d="M2789.432,1197.9c-4.636-11.98-15.469-23.229-19.42-38.112
				c-1.326-4.999-1.938-11.927-2.113-19.465c4.01-55.856,15.088-200.926,13.197-208.16c-2.242-8.572-71.305-159.988-71.305-159.988
				l-58.006,53.909l67.102,137.33c0.561,8.02,5.814,156.768,5.814,156.768s1.875,30.144,1.694,45.799
				c-0.555,7.594-2.11,14.258-3.663,19.963c-1.954,7.178-4.024,21.992-3.591,25.568c0.504,4.155,1.822,12.688,2.685,17.812
				c0.861,5.125,1.659,11.172,2.439,13.829c0.475,1.615,0.09,5.367-0.283,8.055c-0.557,4.008,4.12,6.635,7.223,4.041
				c2.926-2.443,3.83-7.827,4.375-11.178c1.541-9.452-1.536-24.395-0.111-24.102c1.424,0.295,14.76,22.449,16.448,24.885
				c1.688,2.434,17.327,28.099,22.013,32.07c4.685,3.971,7.93,1.721,7.638-1.807c-0.252-3.035-19.234-40.09-19.234-40.09
				s-2.409-4.731,0.35-4.043c2.759,0.69,20.06,34.297,23.573,38.828c3.516,4.529,7.996,5.9,9.273,0.645
				c1.555-6.395-19.123-41.127-19.123-41.127s-2.517-4.398-0.353-4.75c2.164-0.35,16.405,28.492,18.973,30.461
				c2.566,1.969,6.847,1.351,7.021-3.684c0.205-5.93-18.521-36.777-18.521-36.777s-0.756-2.745,0.83-2.359
				c1.588,0.385,15.486,24.104,18.979,25.431c2.934,1.116,3.982-1.501,3.982-1.501
				C2810.768,1231.072,2794.067,1209.881,2789.432,1197.9z"/>
			<path style="fill:#466EB6;" d="M2756.697,846.346l-76.342,51.255c0,0-43.027-64.028-66.124-86.821
				c-28.933-28.555,10.54-116.031,29.181-111.081C2685.109,710.769,2756.697,846.346,2756.697,846.346z"/>
			<path style="fill:#0E2E35;" d="M1992.67,843.787h121.291c20.09,0,36.375-16.286,36.375-36.375v-8.595h-194.041v8.595
				C1956.295,827.501,1972.58,843.787,1992.67,843.787z"/>
			<polygon style="fill:#0E2E35;" points="1746.238,1898.055 1727.318,1896.043 1973.015,817.809 1991.936,819.821 			"/>
			<polygon style="fill:#0E2E35;" points="2368.208,1898.055 2387.128,1896.043 2141.432,817.809 2122.512,819.821 			"/>
			<polygon style="fill:#0E2E35;" points="2064.578,1898.623 2045.553,1898.623 2042.744,815.946 2061.771,815.946 			"/>
			
				<rect x="1791.645" y="1632.706" transform="matrix(-1 -1.224647e-16 1.224647e-16 -1 4110.1313 3279.3701)" style="fill:#0E2E35;" width="526.841" height="13.958"/>
			<g>
				<path style="fill:#2B1C35;" d="M1707.354,783.868l88.074-9.956l-16.449-145.523l-88.075,9.956
					c-22.213,2.511-38.184,22.554-35.673,44.767l7.356,65.082C1665.099,770.406,1685.141,786.377,1707.354,783.868z"/>
				
					<rect x="2037.478" y="485.96" transform="matrix(-0.9377 0.3474 -0.3474 -0.9377 4127.5703 266.2081)" style="fill:#13375B;" width="4.882" height="34.386"/>
				
					<rect x="1950.017" y="495.847" transform="matrix(-0.9377 0.3474 -0.3474 -0.9377 3961.5303 315.7456)" style="fill:#13375B;" width="4.881" height="34.386"/>
				<path style="fill:#2B1C35;" d="M1920.462,504.721l128.749-14.554c6.641-0.75,11.415-6.741,10.665-13.382l-9.115-80.638
					c-0.751-6.641-6.743-11.415-13.383-10.664l-128.749,14.553c-6.64,0.751-11.413,6.743-10.663,13.382l9.115,80.64
					C1907.831,500.697,1913.823,505.472,1920.462,504.721z"/>
				<path style="fill:#13375B;" d="M1815.899,843.811l373.056-42.168l-32.57-288.13l-380.553,43.018
					c-18.072,2.044-31.066,18.349-29.023,36.421l24.325,215.187C1773.644,830.351,1793.686,846.322,1815.899,843.811z"/>
				<path style="fill:#2B1C35;" d="M2175.545,803.158l160.373-18.128c7.15-0.809,12.291-7.259,11.482-14.41l-29.643-262.237
					c-0.809-7.15-7.26-12.291-14.408-11.483l-160.373,18.129c-7.15,0.808-12.291,7.259-11.484,14.409l29.644,262.237
					C2161.944,798.826,2168.396,803.966,2175.545,803.158z"/>
				<path style="fill:#9BC1F9;" d="M2174.565,705.834l140.585-15.891c3.505-0.396,6.025-3.559,5.63-7.064l-18.159-160.635
					c-0.396-3.506-3.559-6.027-7.064-5.63l-140.585,15.891c-3.505,0.397-6.026,3.56-5.63,7.065l18.158,160.634
					C2167.896,703.71,2171.059,706.231,2174.565,705.834z"/>
				<path style="fill:#E6F7FF;" d="M2300.669,716.471c0.384,3.393,3.446,5.833,6.839,5.45c3.393-0.384,5.833-3.446,5.449-6.839
					c-0.383-3.393-3.445-5.832-6.838-5.449C2302.726,710.015,2300.286,713.077,2300.669,716.471z"/>
				<path style="fill:#E6F7FF;" d="M2276.416,719.212c0.385,3.393,3.445,5.833,6.838,5.451c3.395-0.384,5.834-3.446,5.451-6.84
					c-0.385-3.394-3.447-5.833-6.84-5.45C2278.473,712.757,2276.032,715.819,2276.416,719.212z"/>
				<path style="fill:#F47458;" d="M2179.402,730.179c0.384,3.393,3.445,5.833,6.84,5.449c3.393-0.384,5.832-3.444,5.449-6.839
					c-0.384-3.393-3.445-5.833-6.838-5.449C2181.459,723.724,2179.02,726.786,2179.402,730.179z"/>
				<path style="fill:#13375B;" d="M1936.47,502.912l128.749-14.554c6.641-0.75,11.416-6.742,10.664-13.382l-9.115-80.639
					c-0.75-6.64-6.742-11.416-13.383-10.665l-128.748,14.555c-6.641,0.75-11.416,6.742-10.665,13.382l9.115,80.639
					C1923.838,498.887,1929.829,503.663,1936.47,502.912z"/>
				<path style="fill:#9BC1F9;" d="M1938.911,489.863l121.015-13.68c2.271-0.256,3.903-2.304,3.646-4.574l-8.053-71.243
					c-0.258-2.27-2.305-3.902-4.576-3.646l-121.015,13.68c-2.27,0.255-3.902,2.304-3.646,4.574l8.053,71.243
					C1934.593,488.487,1936.641,490.12,1938.911,489.863z"/>
				<path style="fill:#2B1C35;" d="M1944.255,521.608l106.068-11.99c8.662-0.979,16.478,5.25,17.456,13.912l0,0l-137.434,15.534l0,0
					C1929.366,530.403,1935.594,522.587,1944.255,521.608z"/>
				<path style="fill:#13375B;" d="M1667.108,837.868l33.167-3.747c6.38-0.722,10.966-6.478,10.245-12.857l-24.877-220.078
					c-0.721-6.379-6.476-10.966-12.855-10.245l-33.167,3.748c-6.38,0.722-10.966,6.478-10.245,12.856l24.877,220.079
					C1654.973,834.003,1660.728,838.59,1667.108,837.868z"/>
				<path style="fill:#0E2E35;" d="M1907.058,810.745l230.485-26.053c4.398-0.496,7.561-4.466,7.064-8.863l-6.535-57.803
					c-0.496-4.397-4.465-7.562-8.863-7.063l-230.486,26.054c-4.398,0.496-7.561,4.466-7.064,8.863l6.534,57.803
					C1898.691,808.08,1902.659,811.243,1907.058,810.745z"/>
				<path style="fill:#2B1C35;" d="M2020.66,704.146l104.264-11.787c2.373-0.268,4.08-2.41,3.813-4.782l0,0
					c-0.27-2.373-2.41-4.08-4.783-3.812l-104.266,11.786c-2.373,0.268-4.078,2.41-3.811,4.783l0,0
					C2016.146,702.707,2018.287,704.414,2020.66,704.146z"/>
				<path style="fill:#2B1C35;" d="M2018.612,686.034l104.266-11.785c2.372-0.268,4.079-2.411,3.812-4.783l0,0
					c-0.27-2.372-2.41-4.079-4.783-3.81l-104.265,11.785c-2.374,0.268-4.08,2.41-3.812,4.783l0,0
					C2014.1,684.598,2016.24,686.305,2018.612,686.034z"/>
				<path style="fill:#2B1C35;" d="M2016.566,667.926l104.264-11.786c2.373-0.268,4.08-2.41,3.812-4.783l0,0
					c-0.269-2.373-2.409-4.079-4.782-3.811l-104.266,11.786c-2.373,0.269-4.078,2.41-3.811,4.782l0,0
					C2012.051,666.489,2014.193,668.194,2016.566,667.926z"/>
				<path style="fill:#2B1C35;" d="M2014.52,649.817l104.265-11.786c2.372-0.268,4.079-2.41,3.812-4.782l0,0
					c-0.27-2.373-2.41-4.08-4.783-3.812l-104.266,11.786c-2.373,0.268-4.08,2.41-3.81,4.782l0,0
					C2010.004,648.38,2012.146,650.085,2014.52,649.817z"/>
				<path style="fill:#E6F7FF;" d="M2113.111,737.673c0.383,3.393,3.445,5.833,6.838,5.449c3.393-0.384,5.833-3.444,5.449-6.839
					c-0.383-3.393-3.445-5.833-6.838-5.449C2115.167,731.217,2112.727,734.279,2113.111,737.673z"/>
				<path style="fill:#E6F7FF;" d="M2080.773,741.328c0.383,3.393,3.444,5.832,6.838,5.449c3.394-0.384,5.834-3.445,5.449-6.838
					c-0.383-3.393-3.445-5.833-6.838-5.449C2082.829,734.873,2080.389,737.935,2080.773,741.328z"/>
				<path style="fill:#E6F7FF;" d="M2048.436,744.983c0.384,3.393,3.445,5.833,6.838,5.449c3.395-0.384,5.834-3.446,5.449-6.839
					c-0.383-3.393-3.444-5.833-6.838-5.449C2050.492,738.529,2048.051,741.59,2048.436,744.983z"/>
				<path style="fill:#E6F7FF;" d="M2016.097,748.639c0.384,3.393,3.446,5.832,6.839,5.449c3.394-0.384,5.834-3.445,5.449-6.839
					c-0.383-3.393-3.445-5.832-6.838-5.449C2018.154,742.184,2015.714,745.245,2016.097,748.639z"/>
				<path style="fill:#F47458;" d="M1924.743,758.965c0.384,3.393,3.445,5.835,6.839,5.45c3.393-0.384,5.833-3.445,5.45-6.838
					c-0.384-3.393-3.446-5.834-6.839-5.45C1926.799,752.51,1924.36,755.572,1924.743,758.965z"/>
				<polygon style="opacity:0.5;fill:#E6F7FF;" points="2222.448,700.423 2181.966,704.998 2209.235,526.371 2249.718,521.795 				
					"/>
				<polygon style="opacity:0.5;fill:#E6F7FF;" points="2260.887,696.077 2242.484,698.157 2269.754,519.53 2288.156,517.45 				"/>
				<polygon style="opacity:0.5;fill:#E6F7FF;" points="1972.145,486.106 1951.29,488.463 1963.776,406.574 1984.631,404.218 				
					"/>
				<polygon style="opacity:0.5;fill:#E6F7FF;" points="2011.095,481.704 1999.418,483.023 2011.904,401.134 2023.58,399.814 				
					"/>
			</g>
			<path style="fill:#F7A491;" d="M2551.931,493.545c-23.954-12.276-53.202,0.617-60.763,26.038
				c-3.285,11.048-6.828,25.026-9.331,40.506c-6.018,37.229,8.108,76.32,25.057,78.746c16.95,2.426,67.251-15.035,76.528-67.784
				C2589.148,538.484,2577.066,506.428,2551.931,493.545z"/>
			<path style="fill:#F7A491;" d="M2570.333,573.454c-1.178,8.233,3.325,15.689,10.058,16.653
				c6.733,0.965,13.146-4.931,14.324-13.164c1.179-8.233-3.324-15.689-10.059-16.654
				C2577.924,559.326,2571.511,565.22,2570.333,573.454z"/>
			<path style="fill:#13375B;" d="M2584.656,560.289c0,0-20.959-1.497-24.117-16.27c-3.16-14.773-20.186-49.967-56.521-49.471
				c-36.338,0.496,37.582-17.697,40.2-16.847c2.618,0.851,34.103,10.837,34.103,10.837s17.766,27.718,17.93,30.183
				c0.164,2.465-0.58,28.51-0.58,28.51L2584.656,560.289z"/>
			<path style="fill:#FFFFFF;" d="M2520.362,597.23l-31.634-3.922c0,0-0.76,12.105,13.102,14.231
				C2518.73,610.131,2520.362,597.23,2520.362,597.23z"/>
			<path style="fill:#466EB6;" d="M2578.822,541.153c0,0,4.56-58.911,0.302-79.837c0,0,14.565-6.325,21.81,9.931
				c2.498,5.604,7.858,31.484,3.912,75.214L2578.822,541.153z"/>
			<g>
				<path style="fill:#3C8F7C;" d="M2564.826,549.412c-8.156,15.16-3.35,33.595,10.738,41.175
					c14.088,7.579,32.121,1.433,40.277-13.729c8.158-15.162,3.35-33.596-10.738-41.175S2572.983,534.249,2564.826,549.412z"/>
				<path style="fill:#50BFA5;" d="M2567.867,551.046c-8.158,15.162-3.35,33.597,10.738,41.176
					c14.086,7.579,32.119,1.433,40.276-13.729s3.35-33.596-10.737-41.175C2594.057,529.739,2576.023,535.886,2567.867,551.046z"/>
				<path style="fill:#13375B;" d="M2577.549,556.255c-5.062,9.407-2.079,20.845,6.662,25.548c8.74,4.703,19.93,0.889,24.99-8.519
					c5.061-9.407,2.078-20.845-6.662-25.547C2593.798,543.034,2582.609,546.849,2577.549,556.255z"/>
				<path style="opacity:0.5;fill:#13375B;" d="M2603.121,570.014c4.458-8.287,2.668-18.144-3.795-23.59
					c1.095,0.324,2.172,0.755,3.213,1.315c8.74,4.702,11.723,16.14,6.662,25.547c-5.063,9.407-16.25,13.221-24.99,8.519
					c-1.041-0.559-1.994-1.221-2.867-1.957C2589.451,582.239,2598.662,578.301,2603.121,570.014z"/>
			</g>
		</g>
		<g>
			<g>
				<g>
					<path style="fill:#F79C8D;" d="M971.857,1890.955c-8.118-5.982-14.669-9.938-40.603-22.511
						c-1.691-0.819-7.849-4.744-10.07-6.104c-5.63-3.445-11.285-8.869-16.153-14.301c-4.647-5.186-6.863-21.813-7.909-35.063
						c2.67-29.593,44.323-463.148,44.323-539.261c0-53.854-6.063-150.494-6.063-150.494l-21.652-12.287l-62.846,217.826
						l-0.695,163.797c0,0-13.268,49.695-15.136,78.254c-1.867,28.56,25.504,260.493,25.504,260.493h0.001
						c0.001,8.29-0.324,15.787-1.246,20.471c-1.706,8.671-7.21,23.972-2.852,32.133c4.357,8.16,8.865,6.702,8.865,6.702
						l102.492,4.758C973.968,1895.466,976.817,1894.611,971.857,1890.955z"/>
					<path style="fill:#F79C8D;" d="M778.476,1106.404c0,0-39.214,59.158-48.551,108.117c-9.336,48.959,21.137,202.849-3.85,264.609
						c-8.515,21.049-49.535,88.748-55.137,133.628c-5.602,44.878-29.39,172.995-29.39,172.995h0.002
						c-2.95,13.598-7.569,30.418-13.566,38.237c-3.671,4.786-10.375,10.838-14.776,19.489c-3.581,13.938-4.696,28.231,1.078,38.913
						c1.418,2.624,2.873,6.682,8.78,8.509c17.491,5.409,31.829,0.441,39.276-16.348c1.267-2.854,4.412-4.928,5.516-8.367
						c2.522-7.859,4.641-17.858,5.15-28.824c0.779-16.708,3.392-29.984,6.177-39.803l0,0l125.346-307.484l90.747-265.363
						l23.247-136.667L778.476,1106.404z"/>
					<path style="fill:#86B1F2;" d="M667.858,1866.188c-27.129,4.958-45.182-10.948-54.574-22.856
						c-6.897,13.489-10.26,33.618-5.188,44.7c4.467,9.76,17.522,9.48,27.801,9.863c10.867,0.404,19.278-5.648,24.669-15.133
						C663.086,1878.332,665.683,1872.816,667.858,1866.188z"/>
					<path style="fill:#86B1F2;" d="M921.169,1862.332c-29.866,7.68-51.406,2.458-63.757-2.533
						c-1.439,1.459-7.942,20.396-5.703,26.941c2.742,8.014,6.646,9.824,10.094,9.916c27.28,0.717,99.925,1.694,120.726,1.967
						c2.906,0.037,4.508-3.363,2.64-5.6C980.011,1886.849,923.395,1863.694,921.169,1862.332z"/>
				</g>
				<g>
					<path style="fill:#F7A491;" d="M899.541,849.948l45.65-48.162c0,0,48.864,26.873,105.826,52.549
						c15.66-27.255,41.218-116.91,42.591-121.186c1.379-4.292,36.816-7.744,32.897,17.655
						c-3.917,25.376-14.641,161.154-42.316,172.054C1060.024,932.378,899.541,849.948,899.541,849.948z"/>
					<path style="fill:#F7A491;" d="M1146.388,689.294c-4.46-7.009-12.508-8.116-15.929-10.832
						c-8.116-6.444-12.079-3.382-13.38-5.097c-2.336-3.08,16.337-35.966,8-43.099c-4.457-3.812-29.392,53.549-33.698,70.814
						c-1.938,7.77,3.605,27.778,2.228,32.068c-0.227,0.704-1.107,3.715-2.489,8.38c11.127,1.012,25.955,2.991,35.811,6.759
						c3.528-18.217,9.302-21.738,16.272-34.358C1151.06,699.701,1147.939,691.731,1146.388,689.294z"/>
					<path style="fill:#13375B;" d="M935.955,669.047c-5.668-26.771-11.52-53.638-38.121-72.921
						c-21.527-15.604-44.659-20.063-69.184-11.168c-69.485,25.202-32.111,80.345-118.339,139.118
						c-26.793,18.262-36.964,24.629-56.192,48.966c-26.915,34.064-41.625,79.772-28.096,117.398
						c27.978,77.816,114.671,100.297,160.024,83.798c84.414-30.71,154.741-137.765,159.416-166.979
						C950.465,775.99,939.604,686.281,935.955,669.047z"/>
					<path style="fill:#FFFFFF;" d="M949.434,880.205c20.431,9.446,57.429,23.624,57.429,23.624l21.051-66.577
						c-118.979-67.68-109.644-56.759-198.942-55.429c-71.339,1.018-101.237-12.605-162.668,153.232c0,0,46.765,21.01,63.508,27.754
						c7.201-20.5,20.216-61.384,27.804-38.076c11.464,35.213,19.862,70.763,25.492,107.36c1.899,11.516,4.598,28.114,3.857,47.598
						c-12.719,19.547-56.084,88.347-64.349,130.023c-9.708,48.959-1.215,206.558-19.893,270.715c0,0,128.438,16.541,248.537,7.467
						c4.618-217.697-5.209-345.065-11.302-400.676c-1.135-58.003-2.143-133.815,0.243-137.755
						c4.307-7.109,22.486-30.073,7.017-64.419C944.483,878.972,945.221,878.258,949.434,880.205z"/>
					<path style="fill:#F7A491;" d="M860.121,1147.229c0.841,0.115,4.63-0.383,7.731-0.307c4.287,0.076,8.039,0.729,8.039,0.729
						s1.683-1.455,4.899-2.947c1.338-0.613,3.52-0.843,5.013-1.531c1.53-0.728,2.833-2.029,4.287-2.68
						c3.789-1.644,7.271-2.029,8.42-0.039c0.958,1.646-20.131,14.545-20.131,14.545c-19.521,0.115-39.959,10.066-85.199-19.443
						c-25.835-11.291-151.299-73.258-153.825-86.767c-1.416-7.578,17.836-66.253,33.566-110.805
						c12.133,5.435,37.931,16.918,52.359,22.965c-13.242,28.055-28.858,65.258-27.212,69.812c0.421,1.187,1.991,3.33,86.807,58.866
						c2.142,1.378,4.325,2.833,6.544,4.285c5.972,3.905,12.363,8.079,19.137,12.479l24.189-2.526c0,0,38.313,2.641,39.462,7.003
						c0.498,1.99-2.679,2.986-6.583,3.561h-0.115c-0.573,0.076-1.148,0.152-1.721,0.229c-0.039,0-0.078,0-0.078,0
						c-4.21,0.497-8.65,0.574-9.721,0.957c-1.225,0.421-3.675,1.376-5.779,2.832c23.883,9.761,22.046,6.278,29.968,5.78
						c1.99-0.152,4.095,0.42,5.97,0.268c3.216-0.268,5.78-2.182,8.269-2.335c3.636-0.19,6.583,1.492,7.234,2.181
						c0.841,0.844-0.728,2.068-3.789,3.444c-18.449,8-33.72,4.939-38.62,6.124c-3.292,0.805,2.717,2.029,12.095,1.035
						c2.335-0.23,5.397,0.611,8.497-0.115c2.067-0.46,3.943-1.799,5.971-2.297c1.875-0.46,3.789-0.422,5.358-0.727
						c2.067-0.383,4.938-1.951,6.583-2.143c6.123-0.69,9.11,0.382,9.799,0.957c1.415,1.261-26.411,11.941-26.411,11.941
						s-19.176,2.757-23.461,2.757C857.671,1145.315,855.106,1146.463,860.121,1147.229z"/>
					<path style="fill:#24B390;" d="M831.3,906.016l-33.309,2.565c-8.667,0.668-16.235-5.817-16.902-14.485l0,0
						c-0.667-8.667,5.818-16.235,14.485-16.902l33.309-2.565c8.667-0.667,16.234,5.818,16.902,14.485l0,0
						C846.452,897.782,839.967,905.349,831.3,906.016z"/>
					<g>
						<path style="fill:#184655;" d="M811.505,917.648c-0.069-0.288-6.871-29.13-8.321-60.52
							c-1.994-43.141,6.592-70.379,25.519-80.959c14.876-8.314,31.469-9.06,45.525-2.042c17.439,8.706,21.479,28.73,25.064,47.51
							c4.482,23.443,3.815,58.073,4.319,80.292l-7.033,0.16c-0.503-22.102,0.153-56.386-4.195-79.132
							c-3.11-16.302-6.435-35.117-21.298-42.538c-12.115-6.047-25.948-5.377-38.95,1.891
							c-32.267,18.035-22.251,98.306-13.787,133.706L811.505,917.648z"/>
					</g>
					<g>
						<path style="fill:#184655;" d="M870.11,1003.92c-5.811-19.733-19.971-76.652-7.94-93.863
							c12.536-17.246,46.287-17.015,62.213-11.849c13.808,4.149,16.514,23.714,16.821,38.061
							c0.324,17.763-3.515,46.987-6.264,64.383l-5.893-0.806c1.801-16.715,3.237-31.392,4.049-47.659
							c0.581-12.403,0.864-41.723-11.011-45.612c-12.946-4.192-39.72-3.956-50.478,6.397c-1.368,1.315-2.387,2.711-2.847,3.566
							c-7.365,13.623,4.087,70.724,7.183,85.889L870.11,1003.92z"/>
					</g>
					<path style="fill:#184655;" d="M833.182,927.469c0,9.435-7.35,17.083-16.414,17.083c-9.064,0-16.413-7.648-16.413-17.083
						c0-9.435,7.349-17.084,16.413-17.084C825.832,910.385,833.182,918.034,833.182,927.469z"/>
					<path style="fill:#9BC1F9;" d="M824.895,927.469c0,4.671-3.638,8.458-8.127,8.458c-4.487,0-8.125-3.786-8.125-8.458
						c0-4.672,3.638-8.458,8.125-8.458C821.257,919.01,824.895,922.797,824.895,927.469z"/>
					<path style="fill:#24B390;" d="M881.211,999.227c1.905,5.517-2.099,11.188-7.939,11.234c-3.535,0.027-6.786-2.268-7.941-5.607
						c-1.911-5.522,2.1-11.198,7.943-11.239C876.809,993.59,880.057,995.886,881.211,999.227z"/>
					<path style="fill:#24B390;" d="M940.963,997.693c1.911,5.518-2.093,11.193-7.935,11.24c-3.536,0.028-6.787-2.267-7.943-5.608
						c-1.909-5.519,2.1-11.192,7.938-11.238C936.558,992.058,939.807,994.353,940.963,997.693z"/>
					<path style="fill:#F7A491;" d="M837.756,716.173c0,0-5.441,43.93-8.648,59.179c-3.354,15.958-8.403,66.213,24.688,74.374
						c33.091,8.159,22.865-54.682,23.412-70.907c0.546-16.226,9.924-72.806,9.924-72.806L837.756,716.173z"/>
					<path style="fill:#F47458;" d="M835.956,730.19c0.338,0.201,0.651,0.418,0.996,0.616c18.288,10.485,34.208,8.831,46.155,0.67
						c2.133-14.043,4.027-25.465,4.027-25.465l-49.376,10.161C837.757,716.173,837.031,722.027,835.956,730.19z"/>
					<path style="fill:#F7A491;" d="M847.705,601.778c0,0-19.392,5.452-30.572,24.707c-11.182,19.257-16.759,74.562,24.399,98.16
						c41.16,23.597,70.375-14.211,69.129-49.583C909.417,639.691,899.562,592.902,847.705,601.778z"/>
					<path style="fill:#F7A491;" d="M919.755,659.884c0.457,9.194-3.476,16.864-8.786,17.132c-5.307,0.269-9.982-6.966-10.438-16.16
						c-0.458-9.193,3.476-16.864,8.785-17.132C914.624,643.454,919.298,650.69,919.755,659.884z"/>
					<path style="fill:#13375B;" d="M853.531,600.322c0,0-22.189,57.842-43.901,64.007c-21.716,6.166-19.982,34.618-19.982,34.618
						s-2.78-65.767,17.055-81.888C826.54,600.938,853.531,600.322,853.531,600.322z"/>
					<path style="fill:#FFFFFF;" d="M823.467,671.461l4.539,1.02c24.488,5.507,75.103-9.815,75.103-9.815
						s-2.345,28.139,3.517,37.351c0,0-7.228,24.958-30.341,31.826c-23.115,6.867-55.581-22.027-55.581-22.027
						S830,688.544,823.467,671.461z"/>
					<g>
						<path style="fill:#FFFFFF;" d="M822.41,710.745c-11.61-4.221-24.791-49.93-13.595-48.401c3.74,0.51,8.503,3.441,14.159,8.711
							c2.282,2.125,4.12,4.093,5.262,5.369c2.392,2.675,2.392,2.921,2.392,3.37h-2.513c0,0.333,0.135,0.555,0.15,0.58
							c-0.983-1.564-12.487-14.544-19.79-15.541c-0.222-0.029-0.746-0.103-1.128,1.44c-2.102,8.514,7.293,38.975,15.922,42.112
							L822.41,710.745z"/>
					</g>
					<path style="fill:#FFFFFF;" d="M906.669,643.49l-5.821,20.936l2.01,1.758l6.458-22.46
						C909.316,643.724,908.218,643.28,906.669,643.49z"/>
					<path style="fill:#F7A491;" d="M818.94,675.647c3.351,9.042,1.155,18.223-4.904,20.506
						c-6.058,2.283-13.682-3.194-17.032-12.236c-3.349-9.042-1.153-18.223,4.905-20.506S815.592,666.605,818.94,675.647z"/>
				</g>
			</g>
			<path style="fill:#A4DEE3;" d="M1166.697,293.237c-103.065,0.135-186.601,51.708-186.584,115.191
				c0.01,31.739,20.905,60.449,54.682,81.204l-24.34,62.824l70.542-42.047c25.681,8.166,54.847,12.758,85.765,12.717
				c103.065-0.134,186.601-51.708,186.583-115.189C1353.328,344.455,1269.762,293.102,1166.697,293.237z"/>
		</g>
	</g>
	<path style="fill:#F47458;" d="M3639.727,1895.37H213.736c-1.838,0-3.328,1.489-3.328,3.327l0,0c0,1.838,1.489,3.327,3.328,3.327
		h3425.99c1.838,0,3.327-1.489,3.327-3.327l0,0C3643.054,1896.859,3641.564,1895.37,3639.727,1895.37z"/>
</g>
</svg>
