<?xml version="1.0" encoding="utf-8"?>
<!-- Generator: Adobe Illustrator 27.5.0, SVG Export Plug-In . SVG Version: 6.00 Build 0)  -->
<svg version="1.1" id="_x2018_лой_x5F_1" xmlns="http://www.w3.org/2000/svg" xmlns:xlink="http://www.w3.org/1999/xlink"
	 x="0px" y="0px" viewBox="0 0 3200 2000" style="enable-background:new 0 0 3200 2000;" xml:space="preserve">
<rect style="fill:transparent;" width="3200" height="2000"/>
<g>
	<path style="fill:#CDE3FD;" d="M2927.128,1839.588l-2512.826-0.847c0,0-4.703-6.413-12.737-18.649
		c-1.546-2.341-3.206-4.906-4.991-7.683c-3.948-6.165-8.45-13.366-13.416-21.591c-0.667-1.117-1.346-2.247-2.05-3.411
		c-4.589-7.684-9.556-16.19-14.799-25.474c-0.604-1.07-1.22-2.141-1.823-3.235C263.708,1578.93,65.75,1118.488,317.397,604.808
		c319.042-651.223,1055.487-307.886,1338.72-367.092c788.01-164.72,1379.86-52.757,1172.221,780.705
		C2727.862,1421.763,3134.151,1436.423,2927.128,1839.588z"/>
	<rect x="722.221" y="383.882" style="opacity:0.8;fill:#FFFFFF;" width="1589.801" height="1447.583"/>
	<path style="opacity:0.2;fill:#8AA8ED;" d="M1755.385,1641.514c0,0-0.061-0.01-0.178-0.041c-0.889-0.223-4.972-1.568-7.677-8.062
		c-1.783-4.274-2.319-7.784-3.954-12.013l-6.701-11.567c-7.01-9.229-9.468-7.067-9.468-7.067s-1.832,2.35-4.54,5.449
		c-4.471,5.112-11.328,12.245-16.181,14.076c-3.446,1.292-5.607,3.436-6.932,5.426c-1.69,2.499-2.068,4.755-2.068,4.755
		s0.013,0.002,0.02,0.003l-0.02,0.002c-26.772-50.99-111.368-125.107-140.195-141.196c-14.779-8.257-12.442-40.114-9.194-79.522
		c2.218-26.701,4.86-56.87,2.895-85.518c11.549-2.699,18.248-4.766,18.248-4.766s-15.074-63.569-24.382-94.364
		c-8.597-28.442-38.125-91.91-42.588-101.445c0.02-0.151,0.053-0.418,0.091-0.736l1.671-13.543c0.019-0.095,0.056-0.205,0.105-0.325
		c8.984-9.123,15.568-17.662,15.568-17.662s0.352,2.422,0.977,6.564c3.489,22.848,36.681,41.586,48.558,43.337
		c27.25,4.017,43.994-3.713,56.355-16.78c2.799-2.958,5.296-6.019,7.514-9.128c40.537,2.995,82.848,3.493,82.848,3.493
		s10.653,0.642,20.284,1.926c9.63,1.284,15.622-1.284,17.335-3.424c1.712-2.141,11.557-3.853,11.342-6.635
		c-0.214-2.782-16.051,0.856-19.047,0c-2.996-0.855,6.849-8.132,11.984-8.998c5.137-0.866,24.398-12.831,24.398-14.543
		s-17.978-1.284-28.678,0c-10.701,1.284-37.619,14.543-37.619,14.543l-70.264-18.149c0.614-7.751-0.867-14.654-4.454-19.748
		c-13.931-19.784-48.983-7.25-72.885-74.04c-0.009-0.066-0.021-0.093-0.021-0.093c-12.734-35.603-22.891-62.507-23.923-64.494
		c-2.966-5.703-38.323-12.775-44.868-13.098c-4.75-0.262,4.104-20.433-4.278-22.722c-1.693-0.462-3.515-0.308-5.405,0.208
		c-0.095-1.118-0.182-2.234-0.258-3.34c6.333,2.11,11.474,2.965,11.474,2.965c-0.736-1.381-0.605-5.075-0.605-5.075
		c0.205,2.427,3.812,5.019,3.812,5.019c2.745,0.727,9.172-0.57,9.172-0.57s-5.976-1.589-8.046-12.741
		c7.67-9.11,15.378-25.093,20.765-39.311c0,0,0,0,0,0s20.734-27.137,11.07-48.152c-4.43-9.633-9.518-12.342-13.87-12.321
		c-0.566-0.718-1.134-1.396-1.69-2.034c-10.951-12.537-24.769-17.691-24.769-17.691c-0.363-0.154-0.719-0.292-1.078-0.438
		c-7.935-4.329-14.792-5.605-14.792-5.605c-60.396-30.078-97.678,86.065-90.077,95.76c7.602,9.694,30.836,14.96,30.836,14.96
		c-0.936-1.585-1.573-4.727-1.573-4.727c2.799,3.869,10.805,6.968,17.944,9.072c-0.72,3.083-1.505,6.3-2.331,9.46
		c-0.924,3.532-2.47,8.848-4.253,14.534c-0.262-0.091-0.513-0.176-0.747-0.25c-3.689-1.175-8.093,5.277-7.491,9.103
		c0.734,4.53-1.976,11.561-4.638,13.895c0,0-42.514,7.995-49.067,20.444c-1.654,3.142-2.639,13.131-3.402,26.501
		c-4.356,10.442-4.572,37.951-3.19,67.826c-1.582,24.584-4.132,45.523-9.266,50.266c-2.784,2.562-19.929,2.646-20.021,2.647
		c-17.937-9.916-39.086-22.705-47.834-32.219c0.294-8.413,0.406-23.672-2.447-27.005c-3.987-4.658-20.151-18.584-23.225-17.623
		c-3.074,0.961,9.027,20.774,8.286,26.5c-0.273,2.114-0.833,5.698-1.088,9.803c-2.32-2.499-5.863-6.091-7.286-6.33
		c-2.194-0.368-3.954-1.083-1.029,2.875c2.924,3.958,9.713,18.732,9.713,18.732l0.001-0.026c0.515,1.569,1.196,3.038,2.055,4.371
		l-0.444,0.386c0,0,30.46,42.982,67.096,71.252c3.73,12.031,10.239,23.484,21.341,30.843c-2.517,8.285-5.481,18.023-8.913,29.262
		c-13.486,44.147-8.795,128.837-8.795,128.837c2.669,1.003,5.358,1.938,8.055,2.839c1.606,18.544,3.681,41.951,6.01,66.911
		c0.963,10.389,1.965,21.033,3.005,31.717c0.295,3.057,0.591,6.112,0.899,9.169c6.009,61.083,12.815,120.921,17.489,134.931
		c8.298,24.893,34.607,158,44.417,208.262c-0.366,0.039-0.565,0.1-0.662,0.15l-0.095,0.084c0,0-13.552,24.161-16.3,31.933
		c-4.875,13.831-18.237,11.618-22.703,16.018c-1.809,1.781-5.583,11.315-3.356,12.429l47.229-0.443c0,0,4.708,0.855,8.025-12.627
		c0.219-0.891,4.842-5.837,11.41-8.353c4.325-1.659,7.849-2.093,12.123-3.604l11.756-6.364c9.429-6.739,7.338-9.259,7.338-9.259
		s-2.295-1.9-5.316-4.696c-4.98-4.617-11.911-11.678-13.602-16.581c-1.192-3.482-3.272-5.704-5.223-7.086
		c-1.967-1.416-3.78-1.973-4.427-2.14c3.224-36.162,16.274-194.765-0.671-216.983c-4.648-6.099-3.814-20.609-0.27-40.114
		c2.286-12.581,5.708-27.241,9.496-43.046c10.356,36.508,20.818,65.652,29.129,72.027
		c25.669,19.685,224.136,122.192,224.136,122.192v-0.002c0.026,0.013,24.547,12.847,32.391,15.368
		c13.967,4.473,21.262,13.967,25.789,18.303c1.832,1.758,4.371,2.566,6.869,2.165c3.683-0.581,8.46-1.764,9.508-4.022
		L1755.385,1641.514z"/>
	<g>
		<path style="fill:#233862;" d="M1573.73,820.536c0,0-28.867,17.005-11.153,49.953c0,0-25.273-4.626-30.731-12.172
			c0,0,0.637,3.143,1.572,4.727c0,0-23.234-5.265-30.835-14.96c-7.601-9.694,29.68-125.838,90.077-95.76
			c0,0,55.229,10.247,33.597,71.563c-21.631,61.315-1.188,66.73-1.188,66.73s-6.428,1.297-9.173,0.57c0,0-3.606-2.593-3.812-5.019
			c0,0-0.131,3.694,0.605,5.075c0,0-22.621-3.753-31.434-14.999C1572.442,864.997,1567.163,832.629,1573.73,820.536z"/>
		<path style="fill:#FFB27D;" d="M1532.05,919.249c-0.038,0.013-0.063,0.025-0.103,0.038
			C1531.768,919.262,1531.806,919.249,1532.05,919.249z"/>
		<path style="fill:#FFB27D;" d="M1602.212,899.05c0.848,7.602,1.862,14.42,2.312,17.669c1.015,7.281-68.069,2.543-72.474,2.53
			c3.069-1.336,12.443-31.062,15.409-42.4c3.595-13.752,6.42-28.609,6.42-28.609l48.782,3.082l2.902,0.18
			c-1.798,6.651-3.082,12.931-3.968,18.76c-0.115,0.783-0.231,1.58-0.334,2.35C1600.376,879.083,1601.159,889.664,1602.212,899.05z"
			/>
		<path style="fill:#233862;" d="M1547.151,843.321c0,0-7.908-25.082-6.309-44.315c1.143-13.731,20.69-60.573,67.686-40.64
			c0,0,13.817,5.154,24.769,17.691c8.709,9.971,19.922,29.488-8.422,67.375l-8.239,13.152L1547.151,843.321z"/>
		<path style="fill:#ED975D;" d="M1602.212,899.05c-34.124-9.997-48.604-49.414-48.604-49.414
			c14.433,0.424,33.234,10.442,47.988,20.625c-0.115,0.783-0.231,1.58-0.334,2.35
			C1600.376,879.083,1601.159,889.664,1602.212,899.05z"/>
		<path style="fill:#FFB27D;" d="M1604.625,885.203c0,0-61.65-15.238-51.569-53.484c10.08-38.247,8.912-65.972,48.7-57.86
			c39.788,8.112,43.558,24.714,43.299,38.298C1644.795,825.741,1620.922,888.181,1604.625,885.203z"/>
		<path style="fill:#233862;" d="M1629.96,780.323c0,0-28.682,40.408-56.23,40.212c-27.548-0.196-36.906-10.068-36.906-10.068
			s23.945-10.478,35.313-36.826C1572.137,773.642,1622.935,755.618,1629.96,780.323z"/>
		<path style="fill:#233862;" d="M1624.83,782.863c0,0,9.9,13.337,10.383,23.884c0.482,10.547-3.448,30.955,2.574,31.82
			c0,0,20.733-27.137,11.07-48.152C1638.61,768.131,1624.83,782.863,1624.83,782.863z"/>
		<path style="fill:#233862;" d="M1626.761,784.995c0,0-24.409,43.804-60.937,50.232c0,0,40.185-20.244,51.157-50.521
			C1627.954,754.429,1626.761,784.995,1626.761,784.995z"/>
		<path style="fill:#FFFFFF;" d="M1595.004,860.684c0,0,0.769,5.823,4.482,7.199c3.714,1.376,13.574,3.871,14.574,3.254
			c0.999-0.618,4.693-5.158,4.693-5.158S1603.217,860.021,1595.004,860.684z"/>
		<path style="fill:#FFB27D;" d="M1571.985,1445.732c-0.783,3.274-1.567,6.51-2.337,9.721c-4.648,19.313-8.976,37.225-11.698,52.21
			c-3.544,19.505-4.378,34.015,0.27,40.114c19.146,25.104,0,224.315,0,224.315l-21.791,22.445c0,0-37.88-196.682-48.152-227.499
			c-4.674-14.01-11.48-73.848-17.489-134.931c-0.309-3.057-0.604-6.112-0.899-9.169c-1.04-10.684-2.042-21.328-3.005-31.717
			c-5.393-57.796-9.425-107.284-9.425-107.284s40.179-28.249,76.685-31.396c21.508-1.875,41.732,4.97,51.723,31.396
			C1600.414,1322.384,1585.673,1388.771,1571.985,1445.732z"/>
		<path style="fill:#ED975D;" d="M1571.985,1445.732c-29.855-21.56-71.857-59.928-87.099-122.822
			c-2.915-31.267,21.739-60.98,49.257-70.367c21.508-1.875,41.732,4.97,51.723,31.396
			C1600.414,1322.384,1585.673,1388.771,1571.985,1445.732z"/>
		<path style="fill:#FFB27D;" d="M1680.855,1065.854l146.717,37.897v17.131c0,0-146.005-1.712-155.421-17.978
			C1662.734,1086.641,1680.855,1065.854,1680.855,1065.854z"/>
		<path style="fill:#FFB27D;" d="M1827.567,1630.523l-6.857,28.313c0,0-198.467-102.508-224.135-122.192
			c-10.311-7.91-23.935-50.862-36.558-99.451c-18.798-72.422-35.363-157.363-35.363-157.363s27.826-107.002,102.302-41.515
			c44.57,39.19,37.637,114.707,32.757,173.44c-3.249,39.408-5.586,71.266,9.193,79.522
			c28.828,16.089,113.423,90.206,140.196,141.196L1827.567,1630.523z"/>
		<path style="fill:#FFB27D;" d="M1490.898,1154.881c-51.832-13.19-108.809-93.602-108.809-93.602l14.595-12.659
			c15.11,17.813,77.936,48.494,77.936,48.494c-0.337-16.302,0.09-31.171,1.119-44.705c6.971-91.982,41.646-122.628,51.111-129.353
			c1.527-1.091,2.404-1.547,2.404-1.547s0.036,0.667,0.089,1.934c0.138,2.732,0.39,8.24,0.646,15.797
			C1531.912,995.539,1534.21,1165.914,1490.898,1154.881z"/>
		<path style="fill:#F99746;" d="M1531.943,1044.49c-2.687,65.619-12.503,130.597-41.072,126.416
			c-35.019-5.111-44.14-37.797-46-62.094c-1.153-15.124,0.511-26.997,0.511-26.997s17.233-0.079,20.025-2.647
			c13.237-12.228,9.305-132.143,15.858-144.593s49.067-20.445,49.067-20.445S1534.617,979.632,1531.943,1044.49z"/>
		<path style="fill:#ED7D2B;" d="M1531.943,1044.49c-2.687,65.619-12.503,130.597-41.072,126.416
			c-35.019-5.111-44.14-37.797-46-62.094c8.597-0.433,23.734-2.529,29.75-11.703c8.61-13.132,35.477-97.662,35.477-97.662
			S1520.66,1018.424,1531.943,1044.49z"/>
		<path style="fill:#F99746;" d="M1752.854,1065.854c9.492,13.48,4.266,39.619-15.643,60.663
			c-12.362,13.066-29.105,20.797-56.355,16.78c-11.878-1.751-45.068-20.489-48.559-43.337c-0.624-4.143-0.977-6.564-0.977-6.564
			s-15.108,15.131-15.673,17.987c-0.255,1.285-1.558,12.717-1.763,14.28c-0.235,1.891,1.109,8.832,1.109,8.832
			s-72.188,31.57-131.866-4.381c0,0-17.017-145.819-4.795-170.082c6.074-12.055,40.138-35.533,51.999-45.903
			c2.662-2.333,5.372-9.365,4.638-13.895c-0.602-3.827,3.801-10.279,7.491-9.103c7.132,2.284,27.316,12.271,41.518,8.461
			c7.074-1.88,16.044-10.057,22.901-8.185c8.382,2.289-0.471,22.46,4.279,22.722c6.544,0.322,41.9,7.395,44.867,13.098
			c1.032,1.986,11.188,28.89,23.923,64.494c0,0,0.012,0.027,0.021,0.093C1703.87,1058.604,1738.923,1046.07,1752.854,1065.854z"/>
		<path style="fill:#ED7D2B;" d="M1631.32,1093.396c0,0-1.758-55.624-6.252-54.945s-69.34,63.097-53.931,88.066
			C1586.546,1151.486,1631.32,1093.396,1631.32,1093.396z"/>
		<path style="fill:#2B478B;" d="M1680.855,1321.473c0,0-24.993,7.72-61.811,12.813c-45.588,6.304-109.316,8.575-166.228-12.813
			c0,0-4.69-84.689,8.795-128.836c13.486-44.159,19.789-65.28,19.789-65.28s54.029,13.548,108.901,3.042
			c7.708-1.466,15.428-3.42,23.014-5.949c0,0,33.849,71.863,43.157,102.659C1665.781,1257.903,1680.855,1321.473,1680.855,1321.473z
			"/>
		<path style="fill:#233862;" d="M1680.855,1321.473c0,0-24.993,7.72-61.811,12.813c-67.515-38.283-34.594-199.38-34.594-199.38
			c2.003-1.625,3.958-3.127,5.851-4.508c7.708-1.466,15.428-3.42,23.014-5.949c0,0,33.849,71.863,43.157,102.659
			C1665.781,1257.903,1680.855,1321.473,1680.855,1321.473z"/>
		<g>
			<path style="fill:#B64C41;" d="M1538.777,1143.298c-40.024,0-56.521-13.774-57.742-14.712l-2.589-18.85
				c0.384,0.284,54.088,32.531,137.201,1.647l-1.763,14.28C1581.923,1137.542,1559.566,1143.298,1538.777,1143.298z"/>
		</g>
		<path style="fill:#FFB27D;" d="M1827.572,1103.752c0,0,26.918-13.259,37.618-14.543s28.678-1.712,28.678,0
			s-19.261,13.677-24.397,14.543s-14.98,8.143-11.984,8.998c2.996,0.856,18.833-2.782,19.047,0s-9.631,4.494-11.343,6.635
			c-1.712,2.14-7.704,4.708-17.335,3.424s-20.283-1.926-20.283-1.926V1103.752z"/>
		<path style="fill:#2B478B;" d="M1827.567,1630.523l-6.857,28.313c0,0-198.467-102.508-224.135-122.192
			c-10.311-7.91-23.935-50.862-36.558-99.451c16.937,3.479,53.52,5.328,99.696-25.438c-3.249,39.408-5.586,71.266,9.193,79.522
			c28.828,16.089,113.423,90.206,140.196,141.196L1827.567,1630.523z"/>
		<path style="fill:#F99746;" d="M1866.8,1641.513c0,0-0.061-0.009-0.178-0.04c-0.889-0.223-4.972-1.568-7.676-8.062
			c-1.783-4.274-2.319-7.785-3.954-12.013l-6.701-11.567c-7.01-9.229-9.469-7.067-9.469-7.067s-1.832,2.35-4.54,5.449
			c-4.471,5.112-11.327,12.245-16.18,14.076c-3.447,1.292-5.607,3.436-6.933,5.426c-1.69,2.499-2.068,4.755-2.068,4.755
			s14.392,2.508,13.138,9.6c-2.442,13.726-1.866,16.222-1.616,16.672l0.087,0.093c0,0,24.543,12.847,32.392,15.369
			c13.966,4.473,21.261,13.967,25.788,18.303c1.833,1.758,4.371,2.566,6.87,2.165c3.682-0.581,8.459-1.763,9.508-4.022
			L1866.8,1641.513z"/>
		<path style="fill:#233862;" d="M1558.22,1547.777c19.146,25.104,0,224.315,0,224.315l-21.791,22.445
			c0,0-37.88-196.682-48.152-227.499c-4.674-14.01-11.48-73.848-17.489-134.931c18.157,8.103,62.457,25.745,98.861,23.345
			c-4.648,19.313-8.976,37.225-11.698,52.21C1554.406,1527.168,1553.571,1541.678,1558.22,1547.777z"/>
		<path style="fill:#F99746;" d="M1580.119,1804.522l-11.756,6.364c-4.273,1.512-7.798,1.945-12.123,3.604
			c-6.569,2.516-11.191,7.463-11.411,8.353c-3.317,13.482-8.025,12.627-8.025,12.627l-47.229,0.443
			c-2.228-1.113,1.547-10.647,3.356-12.429c4.465-4.399,17.828-2.187,22.703-16.018c2.749-7.771,16.3-31.933,16.3-31.933
			l0.095-0.084c0.457-0.237,2.969-0.74,16.618,2.098c7.052,1.459,9.976-12.854,9.976-12.854s2.244,0.442,4.693,2.205
			c1.951,1.382,4.031,3.604,5.223,7.086c1.69,4.903,8.622,11.964,13.602,16.581c3.02,2.796,5.315,4.696,5.315,4.696
			S1589.548,1797.783,1580.119,1804.522z"/>
		<g>
			<path style="fill:#FFB27D;" d="M1397.289,1055.207c0,0,1.803-27.957-2.184-32.615s-20.151-18.584-23.225-17.623
				c-3.074,0.961,9.026,20.775,8.286,26.5c-0.741,5.726-3.601,22.206,3.284,30.737
				C1390.335,1070.736,1397.289,1055.207,1397.289,1055.207z"/>
			<path style="fill:#FFB27D;" d="M1380.477,1056.549c0,0-6.789-14.774-9.714-18.732s-1.164-3.243,1.029-2.875
				c2.194,0.369,9.445,8.722,9.445,8.722L1380.477,1056.549z"/>
		</g>
	</g>
	<g>
		<path style="fill:#ED7D2B;" d="M2376.716,887.152c0,0-95.656,9.504-124.433,2.42c-28.776-7.083-100.044-64.026-100.044-64.026
			l-19.934,14.811c0,0,52.703,98.334,91.382,112.415s143.723,15.547,143.723,15.547L2376.716,887.152z"/>
		<g>
			<path style="fill:#2C3A64;" d="M2723.201,1748.684c0,0,18.907,17.682,15.146,30.168c-3.762,12.486-20.932,20.744-23.316,36.016
				c-2.384,15.271-11.683,23.564-20.018,23.527c-8.336-0.038-39.739-0.18-39.739-0.18s-6.087-10.78,8.745-13.955
				c14.833-3.175,20.501-21.107,19.65-37.781c-0.852-16.675,1.564-38.893,1.564-38.893l31.521-7.268L2723.201,1748.684z"/>
			<path style="fill:#2C3A64;" d="M2490.071,1793.257c0,0,4.245,40.066-4.108,44.196l-107.497-0.483c0,0-0.136-12.726,17.011-15.427
				c17.146-2.702,47.291-12.754,52.487-35.422C2453.159,1763.454,2490.071,1793.257,2490.071,1793.257z"/>
			<path style="fill:#35488B;" d="M2402.556,1227.161c0,0,5.311,70.222,11.544,154.633c8.473,114.664,18.647,255.509,19.597,282.187
				c1.64,46.325,8.725,120.445,8.725,120.445s17.509,17.681,52.744,10.42c0,0,31.844-105.619,41.308-217.48
				c0.147-1.833,0.295-3.68,0.442-5.527c8.848-113.877,22.888-353.694,22.888-353.694L2402.556,1227.161z"/>
			<path style="fill:#2C3A64;" d="M2402.556,1227.161c0,0,5.311,70.222,11.544,154.633l122.373,195.571
				c0.147-1.833,0.295-3.68,0.442-5.527c8.848-113.877,22.888-353.694,22.888-353.694L2402.556,1227.161z"/>
			<path style="fill:#35488B;" d="M2428.213,1235.612c0,0,100.269,254.683,166.413,374.454
				c66.145,119.772,86.833,153.208,86.833,153.208s38.271-15.11,41.791-25.514c0,0-24.461-230.762-68.863-287.188
				c-25.091-31.884-54.303-127.36-55.542-160.707c-1.239-33.348-8.583-99.37-8.583-99.37L2428.213,1235.612z"/>
		</g>
		<g>
			<path style="fill:#FFB27D;" d="M2440.186,852.565c0,0-91.721,47.625-80.989,34.508c3.429-4.191,0.21-19.003-1.855-24.009
				c-0.986-2.392-1.899-4.666-2.743-6.815c-6.01-15.419-8.355-24.458-8.355-24.458l23.738-31.412l16.105-21.313
				c1.955,9.068,4.696,17.117,7.924,24.265C2410.658,840.131,2440.186,852.565,2440.186,852.565z"/>
			<path style="fill:#ED975D;" d="M2394.01,803.332c0,0-5.737,36.366-39.412,52.917c-6.01-15.419-8.355-24.458-8.355-24.458
				l23.738-31.412C2385.365,800.307,2394.01,803.332,2394.01,803.332z"/>
		</g>
		<path style="fill:#F99746;" d="M2605.496,1239.586c-29.232,32.456-220.221,56.676-214.926,32.321
			c2.023-9.304,5.242-25.784,6.09-48.563c0.203-5.334,0.258-11.011,0.15-17.031c-0.42-22.413-3.293-49.471-11.021-80.633
			c-3.63-14.649-8.343-30.212-14.363-46.614c-1.413-3.852-2.886-7.732-4.447-11.673c-7.897-19.928-14.151-40.743-18.382-60.863
			c-8.156-38.659-8.857-74.737,0.525-97.105c0.046-0.104,9.137-23.696,9.183-23.815c40.931-13.003,56.633-51.927,56.633-51.927
			s127.942,35.279,179.68,220.445C2594.618,1054.127,2630.924,1211.329,2605.496,1239.586z"/>
		<path style="fill:#ED7D2B;" d="M2468.005,965.047c0,0-12.567,107.348-82.215,160.633c-3.63-14.649-8.343-30.212-14.363-46.614
			c7.55-25.387,16.167-46.194,23.865-55.07C2426.567,987.867,2468.005,965.047,2468.005,965.047z"/>
		<g>
			<path style="fill:#FFB27D;" d="M2329.455,839.398c0,0,66.278-3.201,63.65-44.445c-2.629-41.244,4.155-69.434-38.273-69.135
				c-42.429,0.3-49.64,16.562-52.11,30.542C2300.251,770.339,2312.146,839.167,2329.455,839.398z"/>
			<path style="fill:#2B478B;" d="M2424.116,730.371c0.683-0.673,2.165-1.14,5.375-1.055c0,0-2.42-1.831-5.828-2.198
				c-0.298-4.567-2.005-12.747-9.492-15.316c0,0,3.927,2.562,4.069,7.403c-8.097-9.964-26.521-18.246-79.412-18.35
				c-69.707-0.136-50.582,46.768-42.058,52.872c8.524,6.104,32.3-6.759,48.894-4.041c16.593,2.718,17.757,27.492,23.146,31.321
				c5.39,3.829,3.65-2.302,11.606-5.192c7.956-2.89,7.625,10.073,4.722,18.28c-2.903,8.207,6.723,20.138,6.723,20.138
				s0,0,11.602-10.77c11.602-10.769,25.686-59.263,21.709-70.174C2424.82,732.327,2424.475,731.352,2424.116,730.371z"/>
			<path style="fill:#FFFFFF;" d="M2339.9,814.827c0,0-2.147,5.831-4.864,7.038c-2.718,1.209-11.614,1.886-13.345,0.728
				s-4.67-5.611-4.67-5.611S2331.238,813.079,2339.9,814.827z"/>
		</g>
		<g>
			
				<rect x="2274.443" y="928.463" transform="matrix(1 0.0045 -0.0045 1 4.7976 -10.178)" style="fill:#2C5693;" width="19.28" height="283.95"/>
			<g>
				<path style="fill:#2C5693;" d="M2417.324,1835.303c1.862,0.214,3.511-0.209,3.113-3.195l-89.754-635.694l-12.889,8.048
					l96.156,627.899C2414.293,1834.47,2415.903,1835.139,2417.324,1835.303z"/>
			</g>
			
				<rect x="2242.856" y="1196.215" transform="matrix(1 0.0045 -0.0045 1 5.4317 -10.2573)" style="fill:#2C5693;" width="87.62" height="16.212"/>
			<path style="fill:#2C5693;" d="M2373.119,1523.769l-4.712,0.494c-4.604,0.482-8.775-2.818-9.269-7.336l-1.352-12.387
				c-0.493-4.517,2.871-8.608,7.477-9.091l4.711-0.494c4.605-0.482,8.775,2.818,9.27,7.336l1.352,12.387
				C2381.088,1519.194,2377.725,1523.285,2373.119,1523.769z"/>
			<g>
				<path style="fill:#2C5693;" d="M2150.844,1834.104c-1.864,0.197-3.51-0.24-3.085-3.223l95.47-634.861l12.816,8.163
					l-101.803,627.009C2153.881,1833.298,2152.266,1833.953,2150.844,1834.104z"/>
			</g>
			<path style="fill:#2C5693;" d="M2197.88,1522.905l4.683,0.534c4.576,0.521,8.754-2.725,9.285-7.214l1.455-12.309
				c0.53-4.489-2.779-8.589-7.355-9.11l-4.682-0.533c-4.576-0.521-8.754,2.725-9.285,7.214l-1.455,12.309
				C2189.994,1518.285,2193.304,1522.384,2197.88,1522.905z"/>
			<path style="fill:#163560;" d="M2300.141,933.262l-33.634-0.151c-2.112-0.009-3.832-1.745-3.822-3.857l0.065-14.556l41.313,0.186
				l-0.065,14.556C2303.988,931.552,2302.253,933.272,2300.141,933.262z"/>
			<g>
				
					<rect x="2250.508" y="895.24" transform="matrix(-1 -0.0045 0.0045 -1 4562.0186 1821.4034)" style="fill:#233862;" width="65.1" height="20.661"/>
				
					<rect x="2270.147" y="869.298" transform="matrix(-1 -0.0045 0.0045 -1 4562.3228 1776.4163)" style="fill:#233862;" width="26.026" height="27.557"/>
				
					<rect x="2040.604" y="768.749" transform="matrix(1 0.0045 -0.0045 1 3.6764 -9.241)" style="fill:#233862;" width="15.147" height="81.494"/>
				
					<rect x="2055.752" y="770.246" transform="matrix(1 0.0045 -0.0045 1 3.6594 -9.3825)" style="fill:#1C468A;" width="65.701" height="77.905"/>
				
					<rect x="2121.335" y="772.346" transform="matrix(1 0.0045 -0.0045 1 3.6614 -9.6773)" style="fill:#1C468A;" width="65.7" height="74.296"/>
				
					<rect x="2187.035" y="782.652" transform="matrix(1 0.0045 -0.0045 1 3.6634 -9.9727)" style="fill:#1C468A;" width="65.701" height="54.274"/>
				
					<rect x="2234.282" y="759.63" transform="matrix(1 0.0045 -0.0045 1 3.6852 -10.2183)" style="fill:#233862;" width="81.013" height="109.979"/>
				
					<rect x="2315.438" y="769.719" transform="matrix(1 0.0045 -0.0045 1 3.5477 -10.4292)" style="fill:#233862;" width="7.488" height="26.76"/>
				
					<rect x="2319.182" y="767.972" transform="matrix(1 0.0045 -0.0045 1 3.5483 -10.4473)" style="fill:#233862;" width="7.487" height="30.288"/>
				
					<rect x="2268.486" y="745.636" transform="matrix(1 0.0045 -0.0045 1 3.406 -10.2212)" style="fill:#233862;" width="14.327" height="13.997"/>
				
					<rect x="2249.086" y="731.727" transform="matrix(1 0.0045 -0.0045 1 3.3503 -10.2315)" style="fill:#233862;" width="52.084" height="15.21"/>
			</g>
		</g>
		<path style="fill:#FFB27D;" d="M2294.393,890.724c0,0-9.369-35.31-12.524-40.425c-3.156-5.115-20.677-19.588-22.31-19.044
			c-1.633,0.544-2.395,2.068-0.925,5.387c1.469,3.319,8.378,13.162,6.746,13.165c-1.632,0.002-23.595-27.254-29.89-24.372
			c-6.294,2.881-8.906,25.517-2.268,39.991c6.639,14.474,37.541,33.543,38.996,35.806
			C2284.555,920.424,2294.393,890.724,2294.393,890.724z"/>
		<path style="fill:#F99746;" d="M2295.314,888.462c0,0-26.89,9.857-24.269,26.029c0.966,5.965,55.042,185.763,86.82,187.892
			c31.779,2.13,133.514-144.185,126.743-184.944c-6.77-40.759-53.373-59.843-70.301-50.979
			c-16.927,8.864-35.591,127.738-42.536,125.72C2364.828,990.162,2295.314,888.462,2295.314,888.462z"/>
		<path style="fill:#FFB27D;" d="M2102.122,759.509c0,0-21.426,15.301-13.001,19.313c8.426,4.011,26.44,3.966,34.604-3.881
			C2131.89,767.093,2117.533,756.598,2102.122,759.509z"/>
	</g>
	<g>
		<g>
			<path style="fill:#2B478B;" d="M421.154,904.392l-0.315,3.747c-0.1,0-6.765-0.515-16.823,0.704
				c-5.96,0.729-13.114,2.05-20.797,4.451c-18.973,5.935-45.202,19.816-62.402,52.319c-15.101,28.529,1.043,76.133,18.131,126.527
				c20.885,61.586,44.561,131.394,19.64,186.429c-23.739,52.419-37.696,103.065-40.386,146.444
				c-3.005,48.697,7.921,86.292,32.478,111.729c17.729,18.357,32.905,50.559,40.587,86.116c8.06,37.28,7.079,73.869-2.678,100.4
				c-5.168,14.044-12.687,25.222-22.28,33.345c-0.604-1.145-1.22-2.289-1.823-3.458c8.827-7.67,15.742-18.131,20.558-31.183
				c21.287-57.838-2.879-147.186-37.067-182.593c-25.336-26.241-36.614-64.792-33.534-114.583
				c2.716-43.844,16.786-94.943,40.713-147.765c24.305-53.689,0.88-122.743-19.778-183.675
				c-18.119-53.399-33.76-99.532-17.892-129.495c17.842-33.697,45.063-48.069,64.754-54.205c8.122-2.527,15.591-3.898,21.777-4.628
				C414.075,903.838,420.714,904.354,421.154,904.392z"/>
		</g>
		<rect x="574.117" y="672.857" style="fill:#FFFFFF;" width="87.177" height="455.833"/>
		<g>
			<rect x="507.298" y="997.933" style="fill:#233862;" width="17.805" height="262.23"/>
			<g>
				<path style="fill:#233862;" d="M642.426,1834.845c1.721,0.19,3.241-0.207,2.862-2.963l-85.528-586.69l-11.87,7.486
					l91.41,579.464C639.623,1834.088,641.113,1834.7,642.426,1834.845z"/>
			</g>
			<rect x="478.683" y="1245.191" style="fill:#233862;" width="80.917" height="14.972"/>
			<path style="fill:#F99746;" d="M600.304,1546.39l-4.35,0.476c-4.25,0.465-8.116-2.566-8.59-6.735l-1.299-11.434
				c-0.474-4.17,2.616-7.962,6.866-8.427l4.349-0.477c4.251-0.465,8.116,2.566,8.59,6.736l1.3,11.434
				C607.644,1542.133,604.555,1545.925,600.304,1546.39z"/>
			<g>
				<path style="fill:#233862;" d="M396.326,1834.845c-1.721,0.19-3.241-0.207-2.861-2.963l85.528-586.69l11.87,7.486
					l-91.41,579.464C399.128,1834.088,397.639,1834.7,396.326,1834.845z"/>
			</g>
			<path style="fill:#F99746;" d="M438.467,1546.32l4.327,0.474c4.228,0.462,8.073-2.553,8.544-6.7l1.293-11.373
				c0.472-4.148-2.602-7.92-6.83-8.383l-4.326-0.473c-4.228-0.463-8.073,2.553-8.545,6.7l-1.293,11.373
				C431.166,1542.086,434.239,1545.858,438.467,1546.32z"/>
			<path style="fill:#233862;" d="M530.459,1002.3h-31.061c-1.951,0-3.546-1.596-3.546-3.546v-13.442h38.154v13.442
				C534.006,1000.704,532.41,1002.3,530.459,1002.3z"/>
		</g>
		<rect x="404.02" y="876.09" style="fill:#233862;" width="82.982" height="58.464"/>
		<polygon style="fill:#2B478B;" points="568.084,666.594 568.24,1133.935 485.545,997.434 485.545,842.134 		"/>
		<g>
			<path style="fill:#2B478B;" d="M568.064,666.588v467.824h99.947V666.588H568.064z M657.638,1124.052h-79.201V676.961h79.201
				V1124.052z"/>
		</g>
	</g>
	<g>
		<ellipse style="fill:#8AA8ED;" cx="976.807" cy="1051.904" rx="209.164" ry="206.867"/>
		<ellipse style="fill:#233862;" cx="942.434" cy="1065.649" rx="48.271" ry="47.741"/>
		<g>
			<rect x="937.503" y="1102.391" style="fill:#233862;" width="15.709" height="228.82"/>
			<g>
				<path style="fill:#233862;" d="M1056.724,1832.675c1.518,0.166,2.86-0.181,2.525-2.585l-75.46-511.942l-10.473,6.531
					l80.649,505.638C1054.251,1832.015,1055.565,1832.549,1056.724,1832.675z"/>
			</g>
			<rect x="912.256" y="1318.147" style="fill:#233862;" width="71.393" height="13.063"/>
			<path style="fill:#F99746;" d="M1019.56,1580.971l-3.837,0.415c-3.75,0.405-7.161-2.239-7.579-5.878l-1.147-9.977
				c-0.418-3.639,2.308-6.947,6.058-7.354l3.837-0.415c3.75-0.405,7.161,2.239,7.579,5.878l1.147,9.977
				C1026.037,1577.256,1023.31,1580.564,1019.56,1580.971z"/>
			<g>
				<path style="fill:#233862;" d="M839.594,1832.675c-1.518,0.166-2.86-0.181-2.525-2.585l75.46-511.942l10.473,6.531
					l-80.65,505.638C842.067,1832.015,840.752,1832.549,839.594,1832.675z"/>
			</g>
			<path style="fill:#F99746;" d="M876.774,1580.91l3.817,0.413c3.73,0.403,7.123-2.228,7.539-5.847l1.141-9.924
				c0.416-3.619-2.296-6.911-6.026-7.314l-3.817-0.413c-3.73-0.403-7.123,2.228-7.539,5.847l-1.141,9.924
				C870.332,1577.216,873.044,1580.507,876.774,1580.91z"/>
			<path style="fill:#233862;" d="M957.955,1106.201h-27.44c-1.711,0-3.111-1.4-3.111-3.111v-11.713h33.662v11.713
				C961.066,1104.801,959.667,1106.201,957.955,1106.201z"/>
		</g>
	</g>
	<g>
		<rect x="689.262" y="368.503" style="fill:#233862;" width="1652.898" height="60.359"/>
		<rect x="649.442" y="383.731" style="fill:#233862;" width="1732.537" height="29.903"/>
	</g>
	<g>
		<path style="fill:#2B478B;" d="M942.718,1069.96c-0.188,0.038-19.25,3.056-40.084,18.521
			c-19.225,14.271-43.944,42.36-52.595,95.207c-6.413,39.241-7.947,99.909-9.581,164.147
			c-2.665,105.731-5.432,215.059-30.415,245.989c-19.212,23.776-12.787,46.145-5.998,69.809c6.941,24.153,14.107,49.125-5.23,77.176
			c-18.961,27.499-51.967,17.867-90.191,6.715c-40.323-11.769-90.504-26.417-140.635-2.313
			c-61.648,29.636-137.303,39.217-184.831,42.26c-0.667-1.194-1.346-2.402-2.05-3.646c47.063-2.879,123.334-12.247,185.247-42.008
			c51.438-24.732,102.386-9.858,143.326,2.087c38.337,11.178,68.614,20.017,86.028-5.23c18.332-26.581,11.404-50.685,4.715-73.996
			c-6.765-23.563-13.755-47.917,6.689-73.228c24.167-29.926,26.92-138.611,29.573-243.714c1.634-64.364,3.169-125.157,9.631-164.651
			c8.877-54.204,34.389-83.086,54.229-97.759c21.577-15.943,40.801-18.974,41.606-19.087L942.718,1069.96z"/>
	</g>
	<path style="fill:#2E3552;" d="M3047.466,1839.593H242.188c-1.841,0-3.347-1.506-3.347-3.347v-1.538
		c0-1.841,1.506-3.348,3.347-3.348h2805.277c1.841,0,3.348,1.507,3.348,3.348v1.538
		C3050.813,1838.087,3049.307,1839.593,3047.466,1839.593z"/>
	<path style="fill:#2B478B;" d="M934.536,1067.623c0-2.901,2.352-5.253,5.253-5.253c2.901,0,5.253,2.352,5.253,5.253
		s-2.352,5.253-5.253,5.253C936.887,1072.876,934.536,1070.524,934.536,1067.623z"/>
</g>
</svg>
