<?xml version="1.0" encoding="UTF-8"?>
<svg version="1.1" xmlns="http://www.w3.org/2000/svg" viewBox="0 0 260 260">
<path d="M0 0 C1.87939453 -0.34057617 1.87939453 -0.34057617 4.1328125 -0.29296875 C4.93847656 -0.28330078 5.74414062 -0.27363281 6.57421875 -0.26367188 C7.83685547 -0.2259668 7.83685547 -0.2259668 9.125 -0.1875 C9.97449219 -0.17396484 10.82398438 -0.16042969 11.69921875 -0.14648438 C13.79974837 -0.11108219 15.89995293 -0.05727401 18 0 C20.95358585 7.26206427 22.86471192 14.72899368 24.79296875 22.31640625 C25.14725342 23.70071731 25.50169241 25.08498888 25.85627747 26.46922302 C26.59478233 29.35718169 27.32965172 32.24603718 28.06225586 35.13549805 C28.99828315 38.82499627 29.94610993 42.51134981 30.89701366 46.1970377 C31.63113881 49.0498526 32.35758132 51.90458308 33.08190346 54.75990105 C33.42808148 56.11964914 33.77692356 57.47872206 34.12856102 58.83706856 C34.61998995 60.73902149 35.09964463 62.6440047 35.57885742 64.54907227 C35.85404709 65.62858658 36.12923676 66.70810089 36.4127655 67.82032776 C37 71 37 71 37 78 C32.38 78 27.76 78 23 78 C21.02142614 72.40837822 19.85568609 67.98980262 19 62 C12.4 62 5.8 62 -1 62 C-1.45375 64.26875 -1.9075 66.5375 -2.375 68.875 C-3.75 75.75 -3.75 75.75 -6 78 C-8.78515625 78.23046875 -8.78515625 78.23046875 -12.0625 78.1875 C-13.14660156 78.18105469 -14.23070312 78.17460937 -15.34765625 78.16796875 C-18 78 -18 78 -19 77 C-19.01398515 68.54322945 -16.53047423 60.25923803 -14.47265625 52.12890625 C-14.11970631 50.71560113 -13.76721093 49.30218242 -13.41514587 47.88865662 C-12.68076678 44.94683578 -11.94147889 42.00630725 -11.19848633 39.06665039 C-10.24697795 35.30062546 -9.30717952 31.53179337 -8.37087345 27.76196384 C-7.64688371 24.85183281 -6.91719806 21.94315392 -6.18572807 19.03489494 C-5.83680534 17.64504533 -5.48955782 16.25477402 -5.14402962 14.86407661 C-4.66173445 12.92690851 -4.17102597 10.9918409 -3.67993164 9.05688477 C-3.40315079 7.95675552 -3.12636993 6.85662628 -2.84120178 5.72315979 C-2 3 -2 3 0 0 Z M8 19 C6.02 28.9 4.04 38.8 2 49 C6.29 49 10.58 49 15 49 C14.38627074 42.12199963 13.10103248 35.6335677 11.4375 28.9375 C11.20353516 27.97650391 10.96957031 27.01550781 10.72851562 26.02539062 C10.15732057 23.68232518 9.58107577 21.34063082 9 19 C8.67 19 8.34 19 8 19 Z " fill="#1c4571" transform="translate(216,111)"/>
<path d="M0 0 C1.87939453 -0.34057617 1.87939453 -0.34057617 4.1328125 -0.29296875 C4.93847656 -0.28330078 5.74414062 -0.27363281 6.57421875 -0.26367188 C7.83685547 -0.2259668 7.83685547 -0.2259668 9.125 -0.1875 C9.97449219 -0.17396484 10.82398437 -0.16042969 11.69921875 -0.14648438 C13.79974837 -0.11108219 15.89995293 -0.05727401 18 0 C20.79428811 8.84735955 23.33191194 17.73331244 25.671875 26.7109375 C25.99915588 27.96331207 26.32643677 29.21568665 26.66363525 30.50601196 C27.34813549 33.12892166 28.03001472 35.75249771 28.71044922 38.37646484 C29.5790585 41.72369849 30.45832087 45.06803876 31.33997726 48.4118557 C32.18724829 51.63461513 33.02248833 54.86046611 33.859375 58.0859375 C34.17493347 59.27770599 34.49049194 60.46947449 34.81561279 61.69735718 C35.10301331 62.81607208 35.39041382 63.93478699 35.68652344 65.08740234 C36.06813629 66.55081558 36.06813629 66.55081558 36.4574585 68.04379272 C37 71 37 71 37 78 C32.38 78 27.76 78 23 78 C20.6239935 72.21494069 19.81929848 68.55438784 19 62 C9.1 62.495 9.1 62.495 -1 63 C-1.45375 65.10375 -1.9075 67.2075 -2.375 69.375 C-3.75 75.75 -3.75 75.75 -6 78 C-9.0390625 78.1953125 -9.0390625 78.1953125 -12.625 78.125 C-13.81351563 78.10695313 -15.00203125 78.08890625 -16.2265625 78.0703125 C-17.14179688 78.04710937 -18.05703125 78.02390625 -19 78 C-19.15445989 73.04830494 -18.67178777 68.81124847 -17.47119141 64.01074219 C-17.30859329 63.35129608 -17.14599518 62.69184998 -16.97846985 62.01242065 C-16.4442587 59.85513035 -15.89827408 57.70102826 -15.3515625 55.546875 C-14.97465953 54.03962718 -14.59831536 52.53223952 -14.22250366 51.02471924 C-13.43576505 47.87647408 -12.64336182 44.72972758 -11.84667969 41.58398438 C-10.825978 37.55239125 -9.8179163 33.51776709 -8.81383705 29.48200607 C-8.0393294 26.37368336 -7.25901707 23.26684149 -6.4768486 20.16043854 C-6.1028703 18.67288549 -5.73050668 17.18492553 -5.3597908 15.69655609 C-4.84149425 13.62008975 -4.31561678 11.54569182 -3.78759766 9.47167969 C-3.49003571 8.29144226 -3.19247375 7.11120483 -2.88589478 5.89520264 C-2 3 -2 3 0 0 Z M8 19 C7.14289208 22.95044687 6.28846192 26.90146232 5.43652344 30.85302734 C5.14624639 32.19758805 4.85523444 33.54199031 4.56347656 34.88623047 C4.14455691 36.81696561 3.72848719 38.74831842 3.3125 40.6796875 C2.93544922 42.42354736 2.93544922 42.42354736 2.55078125 44.20263672 C1.93560532 46.85187581 1.93560532 46.85187581 2 49 C6.29 49 10.58 49 15 49 C14.31261551 42.36318424 12.95828166 35.99207631 11.4375 29.5 C11.20353516 28.48679688 10.96957031 27.47359375 10.72851562 26.4296875 C10.15590618 23.95227521 9.57965985 21.47577035 9 19 C8.67 19 8.34 19 8 19 Z " fill="#1c4571" transform="translate(38,111)"/>
<path d="M0 0 C1.99279829 -0.00959229 3.98545548 -0.04073135 5.97802734 -0.07226562 C16.61720347 -0.11529566 24.51600639 0.83700596 32.36474609 8.37304688 C37.42296342 14.04869918 37.57525281 19.71942783 37.37255859 27.08398438 C36.59110218 34.25917512 33.35294138 38.49072268 27.90771484 43.01367188 C22.69604083 46.41588734 17.77072779 46.63586411 11.71630859 46.86523438 C10.46237305 46.92324219 10.46237305 46.92324219 9.18310547 46.98242188 C7.132016 47.07618596 5.08044345 47.15927682 3.02880859 47.24023438 C3.00375244 48.14378662 2.97869629 49.04733887 2.95288086 49.97827148 C2.85793542 53.31987718 2.75869238 56.6612969 2.65649414 60.00268555 C2.61309229 61.45087677 2.57142115 62.89912092 2.53149414 64.34741211 C2.47391797 66.42512997 2.41018832 68.50258011 2.34521484 70.58007812 C2.29022827 72.45747681 2.29022827 72.45747681 2.23413086 74.37280273 C2.02880859 77.24023438 2.02880859 77.24023438 1.02880859 78.24023438 C-1.13599937 78.33916377 -3.30412926 78.36994538 -5.47119141 78.36523438 C-6.65712891 78.3678125 -7.84306641 78.37039062 -9.06494141 78.37304688 C-11.97119141 78.24023438 -11.97119141 78.24023438 -12.97119141 77.24023438 C-13.07144836 74.87261862 -13.10738076 72.53416364 -13.10058594 70.16601562 C-13.10233826 69.42620453 -13.10409058 68.68639343 -13.105896 67.92416382 C-13.1103145 65.46699714 -13.10737654 63.00990184 -13.10400391 60.55273438 C-13.10467695 58.8526203 -13.10564697 57.15250632 -13.10690308 55.45239258 C-13.10838005 51.88459357 -13.10622552 48.31681955 -13.1015625 44.74902344 C-13.09586521 40.16534944 -13.09914422 35.58173398 -13.10513496 30.99806213 C-13.1087406 27.48603877 -13.10760198 23.97402939 -13.10500717 20.46200562 C-13.10433791 18.77143344 -13.1051663 17.08086002 -13.10748672 15.39028931 C-13.1100133 13.03164281 -13.10617262 10.67309243 -13.10058594 8.31445312 C-13.10261017 7.60896332 -13.1046344 6.90347351 -13.10671997 6.17660522 C-13.06890543 -2.39797592 -7.32401555 0.02130623 0 0 Z M2.02880859 14.24023438 C2.02880859 20.51023438 2.02880859 26.78023437 2.02880859 33.24023438 C4.23568359 33.32273437 6.44255859 33.40523437 8.71630859 33.49023438 C9.95767578 33.53664063 11.19904297 33.58304688 12.47802734 33.63085938 C16.5984773 33.17756455 18.13668752 32.13772117 21.02880859 29.24023438 C22.60336599 26.09111959 22.37679978 23.72014622 22.02880859 20.24023438 C20.34239153 16.35806662 20.34239153 16.35806662 17.02880859 14.24023438 C11.86088846 13.71794457 7.28880429 13.96579982 2.02880859 14.24023438 Z " fill="#1c4571" transform="translate(96.97119140625,110.759765625)"/>
<path d="M0 0 C2.82251129 2.03955439 5.08703894 4.07778707 7 7 C7.375 9.625 7.375 9.625 6 12 C3.86082795 14.0562584 1.73063373 15.81276794 -1 17 C-4.35235428 16.65518642 -5.2090334 15.81823182 -7.875 13.5 C-10.83406518 10.93498119 -12.99371492 10.08346427 -17 10 C-21.23729127 10.97783645 -22.54699998 11.32049998 -25 15 C-25.30759548 16.92737765 -25.30759548 16.92737765 -25.2746582 19.04077148 C-25.28419022 19.84848495 -25.29372223 20.65619843 -25.30354309 21.48838806 C-25.30217598 22.79157738 -25.30217598 22.79157738 -25.30078125 24.12109375 C-25.30506638 25.01740005 -25.3093515 25.91370636 -25.31376648 26.83717346 C-25.319509 28.7326676 -25.32001062 30.62818377 -25.31567383 32.52368164 C-25.31251572 35.42307162 -25.33596726 38.32143947 -25.36132812 41.22070312 C-25.36360132 43.06249871 -25.36430452 44.90429704 -25.36328125 46.74609375 C-25.372491 47.6128624 -25.38170074 48.47963104 -25.39118958 49.37266541 C-25.36386809 54.15565893 -25.36386809 54.15565893 -23.60546875 58.53149414 C-21.02422317 60.8925331 -18.67558003 60.92758371 -15.2890625 61.17578125 C-10.79197303 60.83044162 -8.05304082 58.05304082 -5 55 C1.09883958 55.11728538 3.76393342 56.97057081 8 61 C6.62757886 66.18470207 3.33524755 69.10983497 -1 72 C-6.29773197 74.72620514 -10.51162534 75.52035619 -16.4375 75.4375 C-17.56236816 75.42722778 -17.56236816 75.42722778 -18.70996094 75.41674805 C-26.00426262 75.20440848 -30.14524095 73.41068542 -35.8125 68.625 C-41.04998971 62.34001234 -41.45688406 57.0803812 -41.43359375 49.1953125 C-41.4388356 48.15736542 -41.44407745 47.11941833 -41.44947815 46.05001831 C-41.45588635 43.85968925 -41.45457697 41.66932572 -41.44604492 39.47900391 C-41.43754567 36.14292511 -41.46629741 32.80856565 -41.49804688 29.47265625 C-41.49965942 27.33854218 -41.49908033 25.20442509 -41.49609375 23.0703125 C-41.50732773 22.0804837 -41.51856171 21.09065491 -41.53013611 20.0708313 C-41.45866329 12.90122143 -40.09691974 7.30763799 -35.10546875 1.9765625 C-24.2138177 -5.69861319 -11.82856765 -6.24285515 0 0 Z " fill="#1c4571" transform="translate(185,114)"/>
<path d="M0 0 C79.86 0 159.72 0 242 0 C242 0.99 242 1.98 242 3 C162.14 3 82.28 3 0 3 C0 2.01 0 1.02 0 0 Z " fill="#1c4571" transform="translate(13,233)"/>
<path d="M0 0 C0.66 0 1.32 0 2 0 C1.96519531 0.59167969 1.93039063 1.18335938 1.89453125 1.79296875 C1.71959681 6.89938844 2.04176929 9.68591356 5 14 C5 15.32 5 16.64 5 18 C4.154375 17.67 3.30875 17.34 2.4375 17 C-1.36487737 15.89385386 -4.06476276 15.49915162 -8 16 C-11.25415498 18.40524498 -12.69571685 20.10616823 -14 23.9375 C-14 27.8524781 -13.15444427 29.73358449 -11 33 C-8.08329867 35.91670133 -5.81134754 37.70195396 -1.9375 39.125 C1.14935552 39.25246571 1.14935552 39.25246571 3.75 37.125 C6.5695376 33.20897556 7.31238934 29.71064617 8 25 C8.99 25.33 9.98 25.66 11 26 C10.67 28.97 10.34 31.94 10 35 C10.495 34.01 10.495 34.01 11 33 C14 34 14 34 15.375 35.5625 C16.97558548 37.27233291 16.97558548 37.27233291 19.6875 37.1875 C20.450625 37.125625 21.21375 37.06375 22 37 C20.84810672 40.45567984 20.33882057 40.6572028 17.3125 42.375 C13.5164705 44.64577801 10.21299114 46.94765842 7 50 C7 50.99 7 51.98 7 53 C6.2265625 52.4740625 6.2265625 52.4740625 5.4375 51.9375 C2.05993333 50.6384359 -0.50468057 51.32782319 -4 52 C-4.33 52.99 -4.66 53.98 -5 55 C-6.32 54.67 -7.64 54.34 -9 54 C-13.56523483 59.13588918 -14.61902655 62.48991339 -14.30859375 69.34765625 C-13.91130996 72.76228529 -13.06595542 75.73551153 -12 79 C-12 80.32 -12 81.64 -12 83 C-12.66 83 -13.32 83 -14 83 C-18.25765975 74.29956487 -18.94141724 66.31713786 -16 57 C-13.42723309 52.13011979 -10.24824557 49.34436353 -6 46 C-4.98833259 45.01180515 -3.98527483 44.01451147 -3 43 C-3.51949219 42.79246094 -4.03898437 42.58492187 -4.57421875 42.37109375 C-10.02387342 39.96357533 -13.15667099 37.25954851 -16 32 C-17.47786392 27.56640823 -17.38918209 23.09341428 -17.62109375 18.4453125 C-18.1027888 14.06536366 -18.86292099 11.13707901 -22 8 C-21.625 5.875 -21.625 5.875 -21 4 C-18.6342642 4.94629432 -17.26018602 5.61656797 -15.8125 7.75 C-14.82935532 10.47255451 -14.39039936 13.13707134 -14 16 C-13.525625 15.525625 -13.05125 15.05125 -12.5625 14.5625 C-8.88355203 12.31923904 -5.2378888 12.26260422 -1 12 C-1.01160156 11.21753906 -1.02320312 10.43507813 -1.03515625 9.62890625 C-1.04417969 8.61699219 -1.05320312 7.60507812 -1.0625 6.5625 C-1.07410156 5.55316406 -1.08570312 4.54382812 -1.09765625 3.50390625 C-1 1 -1 1 0 0 Z M0 42 C0 42.66 0 43.32 0 44 C0.99 43.67 1.98 43.34 3 43 C2.01 42.67 1.02 42.34 0 42 Z " fill="#1c4571" transform="translate(39,44)"/>
<path d="M0 0 C1.67542976 0.28604898 3.34385343 0.61781233 5 1 C5.625 2.875 5.625 2.875 6 5 C5.34 5.66 4.68 6.32 4 7 C2.32315078 6.72239314 0.65743863 6.3765449 -1 6 C-3.23624584 5.90091835 -5.47504874 5.85399428 -7.7134552 5.84178162 C-8.37517925 5.83684364 -9.03690331 5.83190566 -9.71867961 5.82681805 C-11.92809192 5.81150356 -14.13747531 5.80309893 -16.34692383 5.79467773 C-17.93385063 5.78509445 -19.52077491 5.7750841 -21.10769653 5.76467896 C-25.41096602 5.73767265 -29.71424642 5.71663997 -34.01755357 5.69667697 C-38.51657994 5.67479103 -43.01557281 5.64741511 -47.51457214 5.62062073 C-56.03192743 5.5707291 -64.54930134 5.52577718 -73.06669301 5.48259836 C-82.76434909 5.43319581 -92.46197157 5.37828888 -102.15959513 5.32291877 C-122.10636543 5.20915292 -142.05316783 5.10230214 -162 5 C-162 4.01 -162 3.02 -162 2 C-161.17117089 1.99576806 -160.34234179 1.99153612 -159.48839664 1.98717594 C-139.35104236 1.8840157 -119.213724 1.77540022 -99.07643223 1.66066074 C-89.33832073 1.60530686 -79.60020557 1.55182137 -69.86206055 1.50268555 C-61.37748205 1.45987016 -52.89293078 1.41359896 -44.40839428 1.36312145 C-39.91302937 1.33649912 -35.41766994 1.3116456 -30.92227364 1.29092598 C-26.69606308 1.27139257 -22.46990443 1.24725888 -18.24374008 1.21950912 C-16.68805188 1.21012116 -15.13235226 1.20245221 -13.5766468 1.19658089 C-11.46185273 1.18834919 -9.34718564 1.17408118 -7.23243713 1.15821838 C-6.04608956 1.15176583 -4.85974199 1.14531328 -3.6374445 1.1386652 C-1.07587794 1.29888002 -1.07587794 1.29888002 0 0 Z " fill="#1c4571" transform="translate(175,204)"/>
<path d="M0 0 C1.44595398 0.95603075 2.83997007 1.9897106 4.22265625 3.03515625 C4.82078125 2.39578125 5.41890625 1.75640625 6.03515625 1.09765625 C9.44363332 -2.1160507 12.67170565 -2.32784736 17.27734375 -2.234375 C19.22265625 -1.96484375 19.22265625 -1.96484375 21.78515625 -0.46484375 C23.4814277 2.48519356 23.51288539 4.47366754 22.90625 7.80078125 C21.66524482 11.85709531 19.78515005 15.65059074 17.22265625 19.03515625 C16.23265625 19.36515625 15.24265625 19.69515625 14.22265625 20.03515625 C14.56566919 16.34776714 14.92986222 14.39893065 17.28515625 11.47265625 C19.46953506 9.18367785 19.46953506 9.18367785 19.47265625 6.22265625 C19.39015625 5.50078125 19.30765625 4.77890625 19.22265625 4.03515625 C16.33403916 2.5908477 14.42617924 2.65827119 11.22265625 3.03515625 C8.2430684 5.09800844 8.2430684 5.09800844 6.22265625 8.03515625 C5.80278679 10.74679403 5.80278679 10.74679403 6.22265625 13.03515625 C1.22265625 8.03515625 1.22265625 8.03515625 -0.58984375 5.72265625 C-3.2282017 3.68735154 -5.29413458 3.34305857 -8.609375 3.5234375 C-12.80499431 4.51375485 -15.97007058 6.80784221 -18.77734375 10.03515625 C-19.71371796 12.57095885 -19.77734375 14.28400945 -19.77734375 17.03515625 C-19.27203125 17.36128906 -18.76671875 17.68742187 -18.24609375 18.0234375 C-17.2715625 18.67892578 -17.2715625 18.67892578 -16.27734375 19.34765625 C-15.62765625 19.77691406 -14.97796875 20.20617187 -14.30859375 20.6484375 C-13.80328125 21.10605469 -13.29796875 21.56367187 -12.77734375 22.03515625 C-12.77734375 23.02515625 -12.77734375 24.01515625 -12.77734375 25.03515625 C-16.08917355 24.73408081 -18.31176652 24.34973546 -21.08984375 22.47265625 C-23.41549871 19.11337686 -24.08251423 16.04596821 -23.77734375 12.03515625 C-22.14989426 6.75073201 -19.5234549 2.97322506 -14.77734375 0.03515625 C-9.72446147 -2.27159435 -5.04345254 -2.73787424 0 0 Z " fill="#1c4571" transform="translate(27.77734375,24.96484375)"/>
<path d="M0 0 C1.65 0 3.3 0 5 0 C5.33 0.66 5.66 1.32 6 2 C6.33 1.34 6.66 0.68 7 0 C8.65 0 10.3 0 12 0 C12 6.27 12 12.54 12 19 C10.35 18.67 8.7 18.34 7 18 C6.67 17.34 6.34 16.68 6 16 C5.67 16.99 5.34 17.98 5 19 C3.35 19 1.7 19 0 19 C0 12.73 0 6.46 0 0 Z " fill="#1c4571" transform="translate(196,193)"/>
<path d="M0 0 C1.60875 -0.061875 3.2175 -0.12375 4.875 -0.1875 C5.77992188 -0.22230469 6.68484375 -0.25710937 7.6171875 -0.29296875 C8.79667969 -0.14794922 8.79667969 -0.14794922 10 0 C12.29000466 3.43500699 12.29748064 4.88728019 12.3125 8.9375 C12.32925781 9.97777344 12.34601563 11.01804688 12.36328125 12.08984375 C11.93640754 15.50942349 11.72039824 16.8413666 9 19 C6.03 19 3.06 19 0 19 C0 12.73 0 6.46 0 0 Z M5 4 C5 7.63 5 11.26 5 15 C7.37994368 13.05667668 7.37994368 13.05667668 7.25 9.5 C7.37994368 5.94332332 7.37994368 5.94332332 5 4 Z " fill="#1c4571" transform="translate(214,193)"/>
<path d="M0 0 C1.4540625 0.0309375 1.4540625 0.0309375 2.9375 0.0625 C3.44083542 2.66606241 3.94029378 5.27026651 4.4375 7.875 C4.58058594 8.61298828 4.72367188 9.35097656 4.87109375 10.11132812 C5.44676281 13.14044391 5.9375 15.971696 5.9375 19.0625 C4.2875 19.0625 2.6375 19.0625 0.9375 19.0625 C0.9375 17.7425 0.9375 16.4225 0.9375 15.0625 C0.2775 15.0625 -0.3825 15.0625 -1.0625 15.0625 C-1.3925 16.3825 -1.7225 17.7025 -2.0625 19.0625 C-3.7125 19.0625 -5.3625 19.0625 -7.0625 19.0625 C-6.58820278 16.08248162 -6.10831304 13.10355713 -5.625 10.125 C-5.49029297 9.27486328 -5.35558594 8.42472656 -5.21679688 7.54882812 C-5.08466797 6.73994141 -4.95253906 5.93105469 -4.81640625 5.09765625 C-4.69595947 4.3487915 -4.5755127 3.59992676 -4.45141602 2.82836914 C-3.77391026 -0.24783874 -3.29578165 0.06726085 0 0 Z M-1.0625 10.0625 C-0.0625 12.0625 -0.0625 12.0625 -0.0625 12.0625 Z " fill="#1c4571" transform="translate(249.0625,192.9375)"/>
<path d="M0 0 C4.39342272 0.59142229 6.18361525 2.30142468 9.25 5.4375 C11.86654034 9.71911147 12.00172278 14.56664323 11.25 19.4375 C9.60758209 24.12721395 7.63250395 28.13180182 4 31.5625 C0.06415065 32.8148157 -3.65602327 32.67832216 -7.75 32.4375 C-7.75 31.4475 -7.75 30.4575 -7.75 29.4375 C-6.75419922 29.21707031 -6.75419922 29.21707031 -5.73828125 28.9921875 C0.58326048 27.38642362 3.64047697 25.91000266 7.25 20.4375 C8.78214888 17.37320224 8.47938548 14.8209358 8.25 11.4375 C7.3655391 8.49042754 7.3655391 8.49042754 5.25 6.4375 C1.3254778 5.43853071 -1.89896842 5.05112863 -5.75 6.4375 C-4.96166499 2.49582495 -4.26139649 0.67794944 0 0 Z " fill="#1c4571" transform="translate(67.75,76.5625)"/>
<path d="M0 0 C-1 3 -1 3 -3.36328125 4.4296875 C-4.33652344 4.90664062 -5.30976563 5.38359375 -6.3125 5.875 C-12.10143357 8.88461534 -12.10143357 8.88461534 -16 14 C-15.62459301 16.11733958 -15.62459301 16.11733958 -15 18 C-14.36191406 18.13277344 -13.72382813 18.26554687 -13.06640625 18.40234375 C-11.82697266 18.66724609 -11.82697266 18.66724609 -10.5625 18.9375 C-9.32693359 19.19853516 -9.32693359 19.19853516 -8.06640625 19.46484375 C-6 20 -6 20 -5 21 C-4.95919217 22.99958364 -4.95745644 25.00045254 -5 27 C-5.66 26.67 -6.32 26.34 -7 26 C-7 25.34 -7 24.68 -7 24 C-8.5778125 24.1546875 -8.5778125 24.1546875 -10.1875 24.3125 C-14 24 -14 24 -16.9375 21.9375 C-19.54673278 18.22131998 -19.70429978 16.46056526 -19 12 C-15.7556723 5.87182546 -7.7403027 -3.27474345 0 0 Z " fill="#1c4571" transform="translate(25,93)"/>
<path d="M0 0 C1.65 0 3.3 0 5 0 C5 6.27 5 12.54 5 19 C3.35 19 1.7 19 0 19 C0 12.73 0 6.46 0 0 Z " fill="#1c4571" transform="translate(232,193)"/>
<path d="M0 0 C1.65 0 3.3 0 5 0 C5 6.27 5 12.54 5 19 C3.35 19 1.7 19 0 19 C0 12.73 0 6.46 0 0 Z " fill="#1c4571" transform="translate(185,193)"/>
<path d="M0 0 C2.31 0 4.62 0 7 0 C7.33 3.3 7.66 6.6 8 10 C5.36 10 2.72 10 0 10 C0 6.7 0 3.4 0 0 Z " fill="#1c4571" transform="translate(51,216)"/>
<path d="M0 0 C2.31 0 4.62 0 7 0 C7 3.3 7 6.6 7 10 C4.69 10 2.38 10 0 10 C0 6.7 0 3.4 0 0 Z " fill="#1c4571" transform="translate(192,216)"/>
<path d="M0 0 C2.31 0 4.62 0 7 0 C7 3.3 7 6.6 7 10 C4.69 10 2.38 10 0 10 C0 6.7 0 3.4 0 0 Z " fill="#1c4571" transform="translate(118,216)"/>
<path d="M0 0 C2.5 0.125 2.5 0.125 3.5 1.125 C3.64115161 3.79558851 3.54247107 6.44932238 3.5 9.125 C1.52 10.115 1.52 10.115 -0.5 11.125 C-1.49 10.465 -2.48 9.805 -3.5 9.125 C-3.97114738 6.3822492 -3.67805784 3.92941103 -3.5 1.125 C-2.5 0.125 -2.5 0.125 0 0 Z M-0.5 3.125 C0.5 7.125 0.5 7.125 0.5 7.125 Z " fill="#1c4571" transform="translate(74.5,215.875)"/>
<path d="M0 0 C2.31 0 4.62 0 7 0 C7 2.97 7 5.94 7 9 C5.02 9.99 5.02 9.99 3 11 C2.01 10.34 1.02 9.68 0 9 C-0.29296875 6.8359375 -0.29296875 6.8359375 -0.1875 4.375 C-0.16042969 3.55773437 -0.13335937 2.74046875 -0.10546875 1.8984375 C-0.05326172 0.95871094 -0.05326172 0.95871094 0 0 Z " fill="#1c4571" transform="translate(173,216)"/>
<path d="M0 0 C1.99954746 -0.04254356 4.00041636 -0.04080783 6 0 C7 1 7 1 7.1328125 2.8125 C7.13023437 3.534375 7.12765625 4.25625 7.125 5 C7.12757813 5.721875 7.13015625 6.44375 7.1328125 7.1875 C7 9 7 9 6 10 C4.00041636 10.04080783 1.99954746 10.04254356 0 10 C0 6.7 0 3.4 0 0 Z M3 2 C3 3.98 3 5.96 3 8 C3.33 8 3.66 8 4 8 C4 6.02 4 4.04 4 2 C3.67 2 3.34 2 3 2 Z " fill="#1c4571" transform="translate(153,216)"/>
<path d="M0 0 C1.99954746 -0.04254356 4.00041636 -0.04080783 6 0 C7 1 7 1 7.1328125 2.8125 C7.13023438 3.534375 7.12765625 4.25625 7.125 5 C7.12757812 5.721875 7.13015625 6.44375 7.1328125 7.1875 C7 9 7 9 6 10 C4.00041636 10.04080783 1.99954746 10.04254356 0 10 C0 6.7 0 3.4 0 0 Z M3 2 C3 3.98 3 5.96 3 8 C3.33 8 3.66 8 4 8 C4 6.02 4 4.04 4 2 C3.67 2 3.34 2 3 2 Z " fill="#1c4571" transform="translate(36,216)"/>
<path d="M0 0 C1.98 0 3.96 0 6 0 C6.33 3.3 6.66 6.6 7 10 C4.69 10 2.38 10 0 10 C0 6.7 0 3.4 0 0 Z " fill="#1c4571" transform="translate(208,216)"/>
<path d="M0 0 C1.98 0 3.96 0 6 0 C6.33 3.3 6.66 6.6 7 10 C4.69 10 2.38 10 0 10 C0 6.7 0 3.4 0 0 Z " fill="#1c4571" transform="translate(235,216)"/>
<path d="M0 0 C1.2065625 0.0309375 1.2065625 0.0309375 2.4375 0.0625 C2.7675 1.3825 3.0975 2.7025 3.4375 4.0625 C2.4475 4.0625 1.4575 4.0625 0.4375 4.0625 C0.4375 4.7225 0.4375 5.3825 0.4375 6.0625 C1.4275 6.0625 2.4175 6.0625 3.4375 6.0625 C3.125 8 3.125 8 2.4375 10.0625 C1.4475 10.3925 0.4575 10.7225 -0.5625 11.0625 C-1.5525 10.4025 -2.5425 9.7425 -3.5625 9.0625 C-4.03364738 6.3197492 -3.74055784 3.86691103 -3.5625 1.0625 C-2.5625 0.0625 -2.5625 0.0625 0 0 Z " fill="#1c4571" transform="translate(168.5625,215.9375)"/>
<path d="M0 0 C1.98 0 3.96 0 6 0 C6 3.3 6 6.6 6 10 C4.02 10 2.04 10 0 10 C0 6.7 0 3.4 0 0 Z " fill="#1c4571" transform="translate(145,216)"/>
<path d="M0 0 C1.98 0 3.96 0 6 0 C6 1.32 6 2.64 6 4 C5.01 4 4.02 4 3 4 C3 4.66 3 5.32 3 6 C3.99 6 4.98 6 6 6 C6 7.32 6 8.64 6 10 C2.25 11.125 2.25 11.125 0 10 C0 6.7 0 3.4 0 0 Z " fill="#1c4571" transform="translate(21,216)"/>
<path d="M0 0 C1.2065625 0.0309375 1.2065625 0.0309375 2.4375 0.0625 C2.251875 0.701875 2.06625 1.34125 1.875 2 C1.730625 2.680625 1.58625 3.36125 1.4375 4.0625 C1.7675 4.3925 2.0975 4.7225 2.4375 5.0625 C2.47813832 6.72867115 2.480221 8.39638095 2.4375 10.0625 C1.4475 10.3925 0.4575 10.7225 -0.5625 11.0625 C-1.5525 10.4025 -2.5425 9.7425 -3.5625 9.0625 C-4.03364738 6.3197492 -3.74055784 3.86691103 -3.5625 1.0625 C-2.5625 0.0625 -2.5625 0.0625 0 0 Z " fill="#1c4571" transform="translate(252.5625,215.9375)"/>
<path d="M0 0 C1.65 0 3.3 0 5 0 C6.2089448 3.62683441 6.31404708 6.41623524 5 10 C4.01 10.33 3.02 10.66 2 11 C0.4375 10 0.4375 10 -1 8 C-0.96726452 5.23385218 -0.49404328 2.73969453 0 0 Z " fill="#1c4571" transform="translate(105,216)"/>
<path d="M0 0 C1.32 0 2.64 0 4 0 C4.66 3.3 5.32 6.6 6 10 C3.69 10 1.38 10 -1 10 C-0.67 6.7 -0.34 3.4 0 0 Z " fill="#1c4571" transform="translate(98,216)"/>
<path d="M0 0 C1.32 0 2.64 0 4 0 C4.66 3.3 5.32 6.6 6 10 C3.69 10 1.38 10 -1 10 C-0.67 6.7 -0.34 3.4 0 0 Z " fill="#1c4571" transform="translate(228,216)"/>
<path d="M0 0 C1.32 0 2.64 0 4 0 C4.66 3.3 5.32 6.6 6 10 C3.69 10 1.38 10 -1 10 C-0.67 6.7 -0.34 3.4 0 0 Z " fill="#1c4571" transform="translate(201,216)"/>
<path d="M0 0 C1.32 0 2.64 0 4 0 C4.66 3.3 5.32 6.6 6 10 C3.69 10 1.38 10 -1 10 C-0.67 6.7 -0.34 3.4 0 0 Z " fill="#1c4571" transform="translate(14,216)"/>
<path d="M0 0 C1.32 0.33 2.64 0.66 4 1 C4.33 3.97 4.66 6.94 5 10 C2.69 10 0.38 10 -2 10 C-1.34 6.7 -0.68 3.4 0 0 Z " fill="#1c4571" transform="translate(139,216)"/>
<path d="M0 0 C1.98 0 3.96 0 6 0 C7.125 3.75 7.125 3.75 6 6 C5.01 6 4.02 6 3 6 C3 7.32 3 8.64 3 10 C2.01 10 1.02 10 0 10 C0 6.7 0 3.4 0 0 Z " fill="#1c4571" transform="translate(90,216)"/>
<path d="M0 0 C0.99 0 1.98 0 3 0 C3.66 3.3 4.32 6.6 5 10 C2.69 10 0.38 10 -2 10 C-1.34 6.7 -0.68 3.4 0 0 Z " fill="#1c4571" transform="translate(30,216)"/>
<path d="M0 0 C2.31 0 4.62 0 7 0 C6.34 3.3 5.68 6.6 5 10 C4.01 10 3.02 10 2 10 C1.34 6.7 0.68 3.4 0 0 Z " fill="#1c4571" transform="translate(59,216)"/>
<path d="M0 0 C2.31 0 4.62 0 7 0 C6.34 3.3 5.68 6.6 5 10 C4.01 10 3.02 10 2 10 C1.34 6.7 0.68 3.4 0 0 Z " fill="#1c4571" transform="translate(215,216)"/>
<path d="M0 0 C1.98 0 3.96 0 6 0 C5.67 3.3 5.34 6.6 5 10 C4.01 10 3.02 10 2 10 C1.34 6.7 0.68 3.4 0 0 Z " fill="#1c4571" transform="translate(126,216)"/>
<path d="M0 0 C1.65 0 3.3 0 5 0 C5 0.66 5 1.32 5 2 C4.34 2 3.68 2 3 2 C3 2.66 3 3.32 3 4 C3.66 4 4.32 4 5 4 C5 4.66 5 5.32 5 6 C4.34 6 3.68 6 3 6 C3 6.66 3 7.32 3 8 C3.66 8 4.32 8 5 8 C5 8.66 5 9.32 5 10 C3.35 10 1.7 10 0 10 C0 6.7 0 3.4 0 0 Z " fill="#1c4571" transform="translate(44,216)"/>
<path d="M0 0 C1.98 0 3.96 0 6 0 C6 0.66 6 1.32 6 2 C5.01 2 4.02 2 3 2 C3 2.66 3 3.32 3 4 C3.66 4 4.32 4 5 4 C5 4.66 5 5.32 5 6 C4.34 6 3.68 6 3 6 C3 7.32 3 8.64 3 10 C2.01 10 1.02 10 0 10 C0 6.7 0 3.4 0 0 Z " fill="#1c4571" transform="translate(79,216)"/>
<path d="M0 0 C0.33 0 0.66 0 1 0 C0.67 3.3 0.34 6.6 0 10 C0.66 10 1.32 10 2 10 C1.34 11.98 0.68 13.96 0 16 C0.66 16 1.32 16 2 16 C2 16.66 2 17.32 2 18 C1.01 18 0.02 18 -1 18 C-4.26326325 11.81697489 -1.8908063 6.28235642 0 0 Z " fill="#1c4571" transform="translate(206,146)"/>
<path d="M0 0 C1.98 0 3.96 0 6 0 C5.67 3.3 5.34 6.6 5 10 C4.01 10 3.02 10 2 10 C2 7.36 2 4.72 2 2 C1.34 2 0.68 2 0 2 C0 1.34 0 0.68 0 0 Z " fill="#1c4571" transform="translate(242,216)"/>
<path d="M0 0 C0.99 0 1.98 0 3 0 C3 2.64 3 5.28 3 8 C3.99 8 4.98 8 6 8 C6 8.66 6 9.32 6 10 C4.02 10 2.04 10 0 10 C0 6.7 0 3.4 0 0 Z " fill="#1c4571" transform="translate(181,216)"/>
<path d="M0 0 C1.98 0 3.96 0 6 0 C5.67 3.3 5.34 6.6 5 10 C4.01 10 3.02 10 2 10 C2 7.36 2 4.72 2 2 C1.34 2 0.68 2 0 2 C0 1.34 0 0.68 0 0 Z " fill="#1c4571" transform="translate(111,216)"/>
<path d="M0 0 C3.00617269 3.00617269 2.59585316 5.82381598 3 10 C1.68 10 0.36 10 -1 10 C-1 10.99 -1 11.98 -1 13 C-1.66 12.67 -2.32 12.34 -3 12 C-2.01 8.04 -1.02 4.08 0 0 Z " fill="#1c4571" transform="translate(36,114)"/>
<path d="M0 0 C0.99 0 1.98 0 3 0 C3 3.3 3 6.6 3 10 C2.01 10 1.02 10 0 10 C0 6.7 0 3.4 0 0 Z " fill="#1c4571" transform="translate(188,216)"/>
<path d="M0 0 C0.33 0 0.66 0 1 0 C1.33 3.3 1.66 6.6 2 10 C1.01 10 0.02 10 -1 10 C-0.67 6.7 -0.34 3.4 0 0 Z " fill="#1c4571" transform="translate(20,178)"/>
<path d="M0 0 C1.32 0.33 2.64 0.66 4 1 C3.67 1.66 3.34 2.32 3 3 C2.01 3 1.02 3 0 3 C0 2.01 0 1.02 0 0 Z " fill="#1c4571" transform="translate(26,108)"/>
<path d="M0 0 C0.99 0 1.98 0 3 0 C3 0.99 3 1.98 3 3 C2.01 3 1.02 3 0 3 C0 2.01 0 1.02 0 0 Z " fill="#1c4571" transform="translate(26,115)"/>
<path d="M0 0 C0.99 0 1.98 0 3 0 C3 0.99 3 1.98 3 3 C2.01 3 1.02 3 0 3 C0 2.01 0 1.02 0 0 Z " fill="#1c4571" transform="translate(38,107)"/>
<path d="M0 0 C0.99 0 1.98 0 3 0 C3 0.99 3 1.98 3 3 C2.01 3 1.02 3 0 3 C0 2.01 0 1.02 0 0 Z " fill="#1c4571" transform="translate(40,100)"/>
<path d="M0 0 C0.99 0.33 1.98 0.66 3 1 C3 1.66 3 2.32 3 3 C2.01 3 1.02 3 0 3 C0 2.01 0 1.02 0 0 Z " fill="#1c4571" transform="translate(29,101)"/>
</svg>
