<?xml version="1.0" encoding="UTF-8"?>
<svg version="1.1" xmlns="http://www.w3.org/2000/svg"  viewBox="0 0 225 225">
<path d="M0 0 C4.22132485 3.83756804 6.40499491 7.78396616 7.11964417 13.41000366 C7.26996502 16.92883536 7.29040903 20.42721134 7.26757812 23.94921875 C7.27300674 25.29701491 7.28013354 26.64480512 7.28881836 27.99258423 C7.30696719 31.63317701 7.30001959 35.27331354 7.28730202 38.91391373 C7.27713025 42.73518293 7.28657924 46.55641471 7.29284668 50.37768555 C7.300111 56.79320239 7.29056748 63.20853466 7.27148438 69.62402344 C7.24971783 77.02684287 7.25677007 84.42922154 7.27879 91.8320303 C7.29697883 98.20342737 7.29948537 104.57469225 7.28903532 110.94610691 C7.28281944 114.74469279 7.28191186 118.54307193 7.29518127 122.34164429 C7.30679019 125.91400011 7.2986234 129.48579118 7.27560425 133.0580864 C7.26784711 134.98399849 7.27962997 136.9099587 7.29211426 138.83584595 C7.21797631 146.46430975 6.51829497 152.02980292 1.4444046 158.04878235 C-2.31348966 161.66179637 -6.20309646 162.56200511 -11.25 162.5 C-15.11313106 161.81555796 -18.81301535 160.70636538 -22.5625 159.5625 C-24.17511719 159.08913208 -24.17511719 159.08913208 -25.8203125 158.60620117 C-28.11078575 157.93203722 -30.3993238 157.25126889 -32.68603516 156.56445312 C-36.30884261 155.48242542 -39.93982766 154.43302851 -43.57421875 153.390625 C-45.96636713 152.69868125 -48.35830013 152.00599241 -50.75 151.3125 C-51.86415283 150.99224854 -52.97830566 150.67199707 -54.1262207 150.34204102 C-72.75446673 144.85632716 -72.75446673 144.85632716 -77.25 137.5 C-80.46232377 128.18223302 -79.52083033 117.65413717 -79.48046875 107.94921875 C-79.47927403 106.04409313 -79.47882441 104.13896692 -79.4790802 102.23384094 C-79.47752201 98.25229165 -79.46928603 94.2708331 -79.45581055 90.28930664 C-79.43885682 85.21943304 -79.43499577 80.14965918 -79.43575573 75.07976055 C-79.43548196 71.1477821 -79.42996728 67.21582486 -79.42275429 63.28385353 C-79.41960124 61.41619845 -79.41760821 59.548541 -79.41686058 57.68088341 C-79.39135885 27.26832126 -79.39135885 27.26832126 -75.25 21.5 C-71.57164921 18.15246892 -67.8386657 16.2894579 -63.203125 14.64453125 C-62.51277161 14.39290726 -61.82241821 14.14128326 -61.11114502 13.8820343 C-52.17330689 10.67784174 -43.08443166 7.94012544 -34 5.1875 C-32.22773029 4.64562131 -30.45559414 4.1033056 -28.68359375 3.56054688 C-6.78168282 -3.13000746 -6.78168282 -3.13000746 0 0 Z M-17.58984375 9.1875 C-18.80768555 9.55294922 -20.02552734 9.91839844 -21.28027344 10.29492188 C-22.58284686 10.69608061 -23.88525253 11.09778441 -25.1875 11.5 C-26.52501882 11.90705317 -27.86258438 12.31395277 -29.20019531 12.72070312 C-48.11699798 18.11416042 -48.11699798 18.11416042 -66.25 25.5 C-66.25 26.16 -66.25 26.82 -66.25 27.5 C-42.985 27.995 -42.985 27.995 -19.25 28.5 C-18.56841357 31.90793216 -18.12430818 34.37747538 -18.11628723 37.71888733 C-18.11202225 38.5277388 -18.10775726 39.33659027 -18.10336304 40.16995239 C-18.10381622 41.04336273 -18.10426941 41.91677307 -18.10473633 42.81665039 C-18.10137772 43.74729813 -18.0980191 44.67794586 -18.09455872 45.63679504 C-18.08507448 48.70709575 -18.08310713 51.77734181 -18.08203125 54.84765625 C-18.07881785 56.98327151 -18.07545371 59.11888655 -18.07194519 61.25450134 C-18.06596092 65.72737133 -18.06410466 70.200222 -18.06469727 74.6730957 C-18.06479906 80.40878073 -18.0511257 86.14434245 -18.03392506 91.87999821 C-18.0228184 96.28857494 -18.02077762 100.69712169 -18.02130699 105.10571098 C-18.02012568 107.22084416 -18.01569544 109.33597808 -18.00797462 111.45109749 C-17.99819806 114.40506837 -18.00104316 117.35876908 -18.00708008 120.31274414 C-18.00146057 121.18817871 -17.99584106 122.06361328 -17.99005127 122.96557617 C-17.99424576 123.77160782 -17.99844025 124.57763947 -18.00276184 125.40809631 C-18.00221707 126.10585206 -18.00167231 126.80360781 -18.00111103 127.52250767 C-18.29857459 129.88593869 -18.99320949 131.48341665 -20.25 133.5 C-22.27148438 134.11157227 -22.27148438 134.11157227 -24.84375 134.25390625 C-25.83117187 134.30949707 -26.81859375 134.36508789 -27.8359375 134.42236328 C-35.21062587 134.59006572 -42.58119491 134.51586723 -49.95605469 134.40405273 C-52.08529482 134.37393987 -54.2143658 134.35613362 -56.34375 134.33984375 C-57.59865234 134.32300537 -58.85355469 134.30616699 -60.14648438 134.28881836 C-63.41816339 134.25321257 -63.41816339 134.25321257 -66.25 136.5 C-59.54664878 139.29601932 -52.81616957 141.68835998 -45.859375 143.76953125 C-44.43700531 144.19742195 -44.43700531 144.19742195 -42.98590088 144.63395691 C-41.00016606 145.22886526 -39.01364312 145.82114884 -37.02636719 146.41088867 C-33.99021339 147.31541562 -30.96009629 148.23854456 -27.9296875 149.16210938 C-25.98992626 149.74073418 -24.04983307 150.31824761 -22.109375 150.89453125 C-20.75921295 151.30998955 -20.75921295 151.30998955 -19.3817749 151.73384094 C-14.66116201 153.11095261 -11.1135964 153.95841319 -6.25 152.5 C-3.72262996 150.58268479 -3.2783153 149.58494591 -2.25 146.5 C-2.15320949 144.6972307 -2.11504418 142.89108131 -2.10955811 141.08572388 C-2.10384796 139.96132904 -2.09813782 138.8369342 -2.09225464 137.6784668 C-2.09113678 136.44410889 -2.09001892 135.20975098 -2.08886719 133.93798828 C-2.08390228 132.63860321 -2.07893738 131.33921814 -2.07382202 130.00045776 C-2.06070566 126.43429823 -2.05425468 122.86815752 -2.04981136 119.30197763 C-2.04687969 117.07387317 -2.04277472 114.84577384 -2.03830719 112.61767197 C-2.02463489 105.64607013 -2.01496666 98.67448004 -2.0111053 91.70286572 C-2.00662365 83.65567977 -1.98906982 75.6086636 -1.9601047 67.56152928 C-1.93849028 61.3406318 -1.92840117 55.1197821 -1.92706418 48.89884746 C-1.92601607 45.18356796 -1.92010696 41.46844812 -1.90224457 37.75320816 C-1.88270689 33.60896747 -1.88705187 29.4650824 -1.89355469 25.32080078 C-1.8843399 24.09049133 -1.87512512 22.86018188 -1.8656311 21.59259033 C-1.87120026 20.46255585 -1.87676941 19.33252136 -1.88250732 18.16824341 C-1.88104076 17.18858675 -1.8795742 16.20893009 -1.8780632 15.19958687 C-2.32224927 11.97560126 -3.28715024 10.08133103 -5.25 7.5 C-9.65018782 6.84110719 -13.37944718 7.9149184 -17.58984375 9.1875 Z M-29.25 79.5 C-29.91 80.16 -30.57 80.82 -31.25 81.5 C-30.9314823 83.60820797 -30.9314823 83.60820797 -30.25 85.5 C-28.6 85.83 -26.95 86.16 -25.25 86.5 C-24.59 85.18 -23.93 83.86 -23.25 82.5 C-23.91 81.51 -24.57 80.52 -25.25 79.5 C-26.57 79.5 -27.89 79.5 -29.25 79.5 Z " fill="#1c4571" transform="translate(147.25,32.5)"/>
<path d="M0 0 C0.94875 0.04125 1.8975 0.0825 2.875 0.125 C3.535 1.445 4.195 2.765 4.875 4.125 C3.885 4.62 3.885 4.62 2.875 5.125 C2.545 4.465 2.215 3.805 1.875 3.125 C0.225 3.455 -1.425 3.785 -3.125 4.125 C-3.455 6.105 -3.785 8.085 -4.125 10.125 C-5.115 10.125 -6.105 10.125 -7.125 10.125 C-7.455 8.145 -7.785 6.165 -8.125 4.125 C-7.795 5.115 -7.465 6.105 -7.125 7.125 C-6.465 7.125 -5.805 7.125 -5.125 7.125 C-5.186875 5.949375 -5.186875 5.949375 -5.25 4.75 C-5.05795839 0.71712612 -3.942779 0.15771116 0 0 Z " fill="#1c4571" transform="translate(120.125,109.875)"/>
<path d="M0 0 C0 0.66 0 1.32 0 2 C1.32 2.66 2.64 3.32 4 4 C1.03 4 -1.94 4 -5 4 C-5.33 3.34 -5.66 2.68 -6 2 C-2.25 0 -2.25 0 0 0 Z " fill="#1c4571" transform="translate(120,184)"/>
<path d="M0 0 C1.98 0 3.96 0 6 0 C6.66 1.32 7.32 2.64 8 4 C7.01 4.495 7.01 4.495 6 5 C5.67 4.34 5.34 3.68 5 3 C1.97065509 2.34227572 1.97065509 2.34227572 -1 2 C-0.67 1.34 -0.34 0.68 0 0 Z " fill="#1c4571" transform="translate(117,110)"/>
</svg>
