<?xml version="1.0" encoding="UTF-8"?>
<svg version="1.1" xmlns="http://www.w3.org/2000/svg" viewBox="0 0 225 225">
<path d="M0 0 C4.29239368 2.42325886 8.16492172 3.25133188 13 2 C15.95479431 0.29114396 18.48595441 -1.69831248 21 -4 C23.78740982 2.09885269 24.31638365 8.98600257 22.20703125 15.41796875 C20.51418522 18.87500681 18.46791782 22.03849862 16 25 C16.99 24.34 17.98 23.68 19 23 C20.94140625 22.96875 20.94140625 22.96875 23 24 C24.5318956 26.16840887 25.73701218 28.15620447 26.9375 30.5 C27.28304932 31.16128906 27.62859863 31.82257813 27.98461914 32.50390625 C37.96686345 52.43579599 40.36273989 76.6027215 34 98 C33.6596875 99.15757812 33.319375 100.31515625 32.96875 101.5078125 C30.13115421 110.23150226 26.10764983 117.41090087 21 125 C20.48695313 125.78117188 19.97390625 126.56234375 19.4453125 127.3671875 C18.36454943 128.95955438 17.1936403 130.4903961 16 132 C15.34 132 14.68 132 14 132 C13.79117188 132.55042969 13.58234375 133.10085937 13.3671875 133.66796875 C5.04005464 147.87167823 -14.98104858 155.76865455 -30 160 C-33.00390625 160.16015625 -33.00390625 160.16015625 -35 160 C-35 159.34 -35 158.68 -35 158 C-35.556875 158.474375 -36.11375 158.94875 -36.6875 159.4375 C-40.76959144 162.19566989 -44.99740008 162.12051325 -49.8125 162.0625 C-50.78832031 162.05347656 -51.76414062 162.04445312 -52.76953125 162.03515625 C-53.87361328 162.01775391 -53.87361328 162.01775391 -55 162 C-54.67 160.68 -54.34 159.36 -54 158 C-56.87319278 158.83437629 -56.87319278 158.83437629 -58.75 160.0625 C-64.25409904 162.3558746 -69.60466708 160.76174136 -75 159 C-75 158.01 -75 157.02 -75 156 C-74.34 156 -73.68 156 -73 156 C-73 155.01 -73 154.02 -73 153 C-74.010625 153.33 -75.02125 153.66 -76.0625 154 C-84.00453734 156.15162765 -88.89150685 154.51250582 -96.04296875 150.734375 C-99.94470004 148.44590909 -103.52089345 145.8856119 -107 143 C-106.67 142.34 -106.34 141.68 -106 141 C-103.5636748 140.36789732 -101.18597124 139.85953222 -98.71484375 139.40625 C-97.1512703 139.10125427 -95.58788298 138.79530321 -94.0246582 138.48852539 C-93.1955191 138.32820831 -92.36638 138.16789124 -91.51211548 138.00271606 C-61.75388007 132.19216178 -28.52195337 125.32942615 -5 105 C-4.26652344 104.38898438 -3.53304687 103.77796875 -2.77734375 103.1484375 C6.24799898 94.97519842 12.44735094 83.41452766 13.2421875 71.3125 C13.6724786 60.96344739 12.41265026 52.90527686 5.75 44.6875 C-1.36006693 37.19923802 -8.67568241 34.51838669 -18.8125 33.6875 C-28.90702792 34.02866695 -39.23224225 37.43064178 -46.58984375 44.53515625 C-47.01394531 44.99792969 -47.43804687 45.46070313 -47.875 45.9375 C-48.926875 46.9584375 -48.926875 46.9584375 -50 48 C-53.5217325 47.69627769 -55.22664033 46.09676932 -57.6875 43.6875 C-65.63124295 36.52197955 -76.26742051 33.4223407 -86.9296875 33.74609375 C-96.83075369 34.96037545 -104.04028686 39.20004467 -110.390625 46.80078125 C-115.95109233 54.39918685 -117.64573981 62.30631343 -116.59375 71.58203125 C-113.78487533 88.08416994 -105.16072738 99.89367639 -91.9765625 109.99609375 C-80.82832231 117.50140506 -68.66260911 122.65415165 -56 127 C-56.33 127.66 -56.66 128.32 -57 129 C-66.43700432 132.14566811 -76.5084774 133.77235693 -86.25 135.6875 C-87.32564209 135.90188721 -88.40128418 136.11627441 -89.50952148 136.3371582 C-108.8337443 140.04068443 -108.8337443 140.04068443 -113.25537109 137.91650391 C-127.85464417 126.97789698 -136.51184593 105.05894049 -139.55859375 87.84375 C-142.24512373 64.44954203 -138.09451973 42.73464852 -125 23 C-122.83125748 23.50603992 -121.00032373 23.99983813 -119 25 C-119.598125 24.319375 -120.19625 23.63875 -120.8125 22.9375 C-125.90761126 16.09549345 -126.7693074 10.39932346 -126 2 C-125 -1.6875 -125 -1.6875 -124 -4 C-123.52691406 -3.566875 -123.05382812 -3.13375 -122.56640625 -2.6875 C-121.90511719 -2.130625 -121.24382812 -1.57375 -120.5625 -1 C-119.92441406 -0.443125 -119.28632812 0.11375 -118.62890625 0.6875 C-114.67648863 2.66077239 -111.33122091 2.74949437 -107 2 C-103.44846471 0.59675733 -100.23031964 -1.26425749 -96.9375 -3.1875 C-65.01800982 -20.79079988 -30.95979854 -18.86612724 0 0 Z " fill="#1c4571" transform="translate(164,39)"/>
<path d="M0 0 C0.6808667 0.00054382 1.3617334 0.00108765 2.06323242 0.00164795 C30.7202308 0.10659711 54.38670538 9.7219421 76 28.375 C77.25490234 29.33792969 77.25490234 29.33792969 78.53515625 30.3203125 C83.03066202 34.06775471 86.40291114 38.78644463 90 43.375 C90.67417969 44.19871094 91.34835938 45.02242187 92.04296875 45.87109375 C101.42998668 57.88123046 107.6848129 72.55113229 111 87.375 C111.26055176 88.42288696 111.26055176 88.42288696 111.52636719 89.49194336 C113.23374484 96.91873178 113.38510503 104.21400137 113.375 111.8125 C113.37478851 112.47152313 113.37457703 113.13054626 113.37435913 113.80953979 C113.27526778 144.83922212 101.33819087 171.99169241 79.75 194.0625 C57.15388725 216.33046031 28.70669451 225.63423196 -2.59277344 225.6237793 C-11.78237331 225.53805081 -20.12296481 224.7924506 -29 222.375 C-30.22074219 222.04628906 -31.44148438 221.71757812 -32.69921875 221.37890625 C-48.24073139 216.68559679 -61.58634603 208.71685793 -74 198.375 C-75.52947266 197.14910156 -75.52947266 197.14910156 -77.08984375 195.8984375 C-81.70125975 191.89981369 -85.25818248 187.17498057 -89 182.375 C-89.68449219 181.51777344 -90.36898437 180.66054687 -91.07421875 179.77734375 C-105.95130211 160.3991389 -112.40761744 137.52205169 -112.375 113.3125 C-112.37445618 112.62968964 -112.37391235 111.94687927 -112.37335205 111.24337769 C-112.33297208 100.19557888 -111.43162399 89.92494286 -108 79.375 C-107.79101074 78.70017578 -107.58202148 78.02535156 -107.36669922 77.33007812 C-102.72491615 62.62935992 -94.99310921 50.06222 -85 38.375 C-84.52304688 37.76527344 -84.04609375 37.15554687 -83.5546875 36.52734375 C-79.11610346 30.96009119 -73.61349579 26.70673472 -68 22.375 C-67.21753906 21.76527344 -66.43507812 21.15554687 -65.62890625 20.52734375 C-46.36116031 6.2633632 -23.75822306 -0.03210571 0 0 Z M-79.40625 40.44140625 C-97.04564999 60.39199269 -106.37891848 85.66387594 -106.3125 112.125 C-106.32861328 113.3934375 -106.34472656 114.661875 -106.36132812 115.96875 C-106.36583205 124.79644106 -105.20943573 132.83614445 -103 141.375 C-102.71781616 142.48584961 -102.71781616 142.48584961 -102.42993164 143.61914062 C-98.65271493 157.52608199 -91.44375457 170.51965264 -82 181.375 C-81.27425781 182.24382812 -80.54851562 183.11265625 -79.80078125 184.0078125 C-62.88435032 203.56658449 -38.76175115 216.51960016 -13 219.375 C0.80214533 220.30314551 14.63935094 220.24092855 28 216.375 C29.258125 216.01148438 30.51625 215.64796875 31.8125 215.2734375 C59.37501734 206.86946995 82.36490907 187.79519465 96 162.375 C107.70205442 136.8792196 111.8092446 107.47102132 103 80.375 C102.79101074 79.72821289 102.58202148 79.08142578 102.36669922 78.41503906 C96.44279494 60.79863458 85.72322919 43.88631454 71 32.375 C70.22914063 31.570625 69.45828125 30.76625 68.6640625 29.9375 C65.4865084 26.88108433 62.1227017 24.66810413 58.375 22.375 C57.66206787 21.93712158 56.94913574 21.49924316 56.21459961 21.0480957 C11.95948934 -5.74065152 -43.90727378 3.66732313 -79.40625 40.44140625 Z " fill="#1c4571" transform="translate(112,-0.375)"/>
<path d="M0 0 C5.05627986 3.74272673 8.21485951 8.70140294 10.1953125 14.625 C11.31919445 22.98904778 10.0696421 29.70221795 5.1953125 36.625 C0.90586274 41.65951548 -4.28671524 44.51737073 -10.8046875 45.625 C-18.96590814 45.92914487 -25.3549128 43.52594691 -31.5546875 38.3125 C-36.79633108 32.05164795 -39.08682704 26.83158052 -38.8046875 18.625 C-37.70889023 11.00055796 -34.43316032 5.79375208 -28.8046875 0.625 C-20.30440269 -5.5031123 -8.92210859 -5.04916756 0 0 Z M-22.8046875 15.625 C-23.1346875 16.945 -23.4646875 18.265 -23.8046875 19.625 C-17.5346875 19.625 -11.2646875 19.625 -4.8046875 19.625 C-5.43055874 15.01684047 -5.43055874 15.01684047 -6.8671875 12.875 C-13.4133071 8.65169703 -18.02656461 10.38071878 -22.8046875 15.625 Z " fill="#1c4571" transform="translate(158.8046875,85.375)"/>
<path d="M0 0 C5.3004321 3.62008235 9.31198315 7.68741627 11 14 C11.89290346 21.87964288 12.12057953 29.56682121 7 36 C2.24350374 41.30408387 -2.88068416 44.87838308 -10 46 C-17.6732847 46.27447208 -24.30008405 44.42260469 -29.98046875 39.16796875 C-36.04833167 32.62468564 -37.54403735 26.9675045 -37.37890625 18.10546875 C-36.61407093 11.83697308 -33.8299876 6.31216622 -29.125 2.0625 C-20.11182699 -3.88619418 -9.7896088 -5.75859341 0 0 Z M-22 16 C-22.33 17.32 -22.66 18.64 -23 20 C-16.4 20 -9.8 20 -3 20 C-4.97724031 15.05689923 -5.65011757 13.66924604 -10 11 C-15.73349864 9.90209601 -18.1544956 12.06506526 -22 16 Z " fill="#1c4571" transform="translate(93,85)"/>
<path d="M0 0 C2.10404435 0.01085195 4.20725855 -0.00002489 6.3112793 -0.01269531 C7.66089054 -0.0113757 9.01050127 -0.00881743 10.36010742 -0.00488281 C11.56787842 -0.00262695 12.77564941 -0.00037109 14.02001953 0.00195312 C16.9813849 0.24717204 18.65471848 0.70661112 21.14526367 2.26074219 C13.44065763 4.3053302 6.03137554 4.6829068 -1.91723633 4.88574219 C-3.1644043 4.92441406 -4.41157227 4.96308594 -5.6965332 5.00292969 C-8.7491265 5.09649577 -11.8017248 5.18223891 -14.85473633 5.26074219 C-15.18473633 5.92074219 -15.51473633 6.58074219 -15.85473633 7.26074219 C-18.62232326 8.11345816 -21.36210265 8.86717281 -24.16723633 9.57324219 C-30.80524042 11.31483171 -37.0287512 13.35867888 -43.27661133 16.24511719 C-45.85473633 17.26074219 -45.85473633 17.26074219 -48.82739258 17.67871094 C-52.42170963 18.36974738 -54.54269165 19.75242682 -57.54223633 21.82324219 C-62.5428651 25.26074219 -62.5428651 25.26074219 -65.85473633 25.26074219 C-66.51473633 24.60074219 -67.17473633 23.94074219 -67.85473633 23.26074219 C-48.15510469 7.56781529 -25.13841033 -0.15464301 0 0 Z " fill="#1c4571" transform="translate(110.854736328125,-0.2607421875)"/>
<path d="M0 0 C0 0.66 0 1.32 0 2 C2.475 2.495 2.475 2.495 5 3 C4.34 3.66 3.68 4.32 3 5 C1.32943851 4.68676972 -0.33605325 4.34665557 -2 4 C-5.33492978 3.90296529 -8.66448136 3.94170938 -12 4 C-11.67 4.66 -11.34 5.32 -11 6 C-10.07767578 5.94779297 -10.07767578 5.94779297 -9.13671875 5.89453125 C-8.32847656 5.86746094 -7.52023438 5.84039062 -6.6875 5.8125 C-5.48673828 5.76029297 -5.48673828 5.76029297 -4.26171875 5.70703125 C-1.52148416 6.06198392 -0.70828921 6.89366282 1 9 C0.67 9.66 0.34 10.32 0 11 C0.66 11.33 1.32 11.66 2 12 C1.34773438 12.08636719 0.69546875 12.17273438 0.0234375 12.26171875 C-6.1276818 13.25061551 -9.67644896 14.4547284 -14 19 C-14.33 19.99 -14.66 20.98 -15 22 C-17.5625 23.1875 -17.5625 23.1875 -20 24 C-21.125 20.25 -21.125 20.25 -20 18 C-19.34 18 -18.68 18 -18 18 C-17.67 17.01 -17.34 16.02 -17 15 C-18.98 15 -20.96 15 -23 15 C-23 15.66 -23 16.32 -23 17 C-23.66 17 -24.32 17 -25 17 C-26.43023178 21.67209049 -27.40380045 26.13103697 -28 31 C-27.34 31.33 -26.68 31.66 -26 32 C-27.485 32.495 -27.485 32.495 -29 33 C-31.2595326 26.22140221 -30.90299456 19.02610378 -27.875 12.5625 C-24.57754591 6.78269283 -20.43196404 3.0185149 -14.14453125 0.4921875 C-9.51703302 -0.56986127 -4.71418561 -0.2090033 0 0 Z " fill="#1c4571" transform="translate(86,82)"/>
<path d="M0 0 C1.48202352 2.34928174 2.02573566 3.64865233 1.8203125 6.453125 C-1.43705437 19.55579172 -7.89398442 32.91070574 -17 43 C-17.66 43 -18.32 43 -19 43 C-19.20882812 43.55042969 -19.41765625 44.10085937 -19.6328125 44.66796875 C-27.95994536 58.87167823 -47.98104858 66.76865455 -63 71 C-66.00390625 71.16015625 -66.00390625 71.16015625 -68 71 C-68 70.34 -68 69.68 -68 69 C-68.556875 69.474375 -69.11375 69.94875 -69.6875 70.4375 C-73.76959144 73.19566989 -77.99740008 73.12051325 -82.8125 73.0625 C-84.27623047 73.04896484 -84.27623047 73.04896484 -85.76953125 73.03515625 C-86.50558594 73.02355469 -87.24164063 73.01195312 -88 73 C-87.67 71.68 -87.34 70.36 -87 69 C-89.87319278 69.83437629 -89.87319278 69.83437629 -91.75 71.0625 C-94.86931366 72.36221402 -97.65970099 72.12847304 -101 72 C-101 71.34 -101 70.68 -101 70 C-95.555 69.01 -95.555 69.01 -90 68 C-90 67.34 -90 66.68 -90 66 C-87.525 65.505 -87.525 65.505 -85 65 C-85 64.34 -85 63.68 -85 63 C-83.68 63.33 -82.36 63.66 -81 64 C-81 64.99 -81 65.98 -81 67 C-81.66 67 -82.32 67 -83 67 C-83 67.99 -83 68.98 -83 70 C-76.66707346 70.76794794 -76.66707346 70.76794794 -70.8828125 68.62890625 C-69.05716179 66.97589362 -69.05716179 66.97589362 -67.47265625 65.21484375 C-66.98667969 64.81394531 -66.50070313 64.41304688 -66 64 C-65.01 64.33 -64.02 64.66 -63 65 C-53.10824717 66.00936253 -42.64356549 60.25065845 -34.625 54.75 C-32 53 -32 53 -30 53 C-30 52.34 -30 51.68 -30 51 C-28.29059971 49.39771617 -26.46698472 47.98705258 -24.62890625 46.53515625 C-22.73441742 44.99243114 -22.73441742 44.99243114 -22 42 C-21.236875 41.5565625 -20.47375 41.113125 -19.6875 40.65625 C-12.09274988 35.97576446 -6.6493224 24.35842559 -4 16 C-3.64845296 12.8589044 -3.74016575 10.16997788 -4 7 C-3.34 7 -2.68 7 -2 7 C-1.34 4.69 -0.68 2.38 0 0 Z " fill="#1c4571" transform="translate(197,128)"/>
<path d="M0 0 C1.87945312 0.40992188 1.87945312 0.40992188 3.796875 0.828125 C6.74568336 1.61536343 9.45609459 2.53433123 12.25 3.75 C12.25 4.41 12.25 5.07 12.25 5.75 C13.57 6.41 14.89 7.07 16.25 7.75 C16.25 8.41 16.25 9.07 16.25 9.75 C16.745 10.74 16.745 10.74 17.25 11.75 C18.44625 12.08 19.6425 12.41 20.875 12.75 C25.89743689 14.30475761 29.97263832 16.92130937 34.3125 19.8125 C34.99199707 20.26044922 35.67149414 20.70839844 36.37158203 21.16992188 C38.0389133 22.30501752 39.65038717 23.52131188 41.25 24.75 C41.25 25.41 41.25 26.07 41.25 26.75 C41.83394531 26.83378906 42.41789062 26.91757812 43.01953125 27.00390625 C45.89823867 27.9668364 47.00602208 29.37056444 48.9375 31.6875 C49.53949219 32.39777344 50.14148438 33.10804687 50.76171875 33.83984375 C52.25 35.75 52.25 35.75 53.25 37.75 C50.31120516 36.39763423 47.95767089 34.85057341 45.5 32.75 C44.88640625 32.234375 44.2728125 31.71875 43.640625 31.1875 C42.25 29.75 42.25 29.75 42.25 27.75 C41.66226807 27.46552002 41.07453613 27.18104004 40.46899414 26.88793945 C38.47283098 25.86427167 36.62510867 24.76455056 34.74609375 23.54296875 C18.24903724 12.93553464 0.46745324 4.50276361 -19.5546875 4.65234375 C-20.6406572 4.65446617 -20.6406572 4.65446617 -21.74856567 4.65663147 C-24.04075407 4.66218925 -26.33284157 4.67473367 -28.625 4.6875 C-30.18749858 4.69252047 -31.74999871 4.69708241 -33.3125 4.70117188 C-37.12503835 4.71214481 -40.93750212 4.7293799 -44.75 4.75 C-44.42 3.76 -44.09 2.77 -43.75 1.75 C-42.59383179 1.720271 -42.59383179 1.720271 -41.41430664 1.68994141 C-37.88006151 1.59395546 -34.34634883 1.48457671 -30.8125 1.375 C-28.99395508 1.32859375 -28.99395508 1.32859375 -27.13867188 1.28125 C-21.9069052 1.11111125 -16.93857351 0.94359814 -11.85546875 -0.3671875 C-7.46021747 -1.48316728 -4.42598373 -1.01007927 0 0 Z " fill="#1c4571" transform="translate(139.75,2.25)"/>
<path d="M0 0 C-0.99 1.485 -0.99 1.485 -2 3 C-2.66 3 -3.32 3 -4 3 C-3.67 4.65 -3.34 6.3 -3 8 C-2.01 7.67 -1.02 7.34 0 7 C3.19240612 6.91685849 6.37464331 7.14050182 9.5625 7.3125 C10.43841797 7.34794922 11.31433594 7.38339844 12.21679688 7.41992188 C13.05404297 7.46310547 13.89128906 7.50628906 14.75390625 7.55078125 C15.52033447 7.58856689 16.2867627 7.62635254 17.07641602 7.6652832 C19 8 19 8 21 10 C10.605 10.495 10.605 10.495 0 11 C0.33 12.32 0.66 13.64 1 15 C0.236875 15.0825 -0.52625 15.165 -1.3125 15.25 C-4.12231286 15.73997433 -4.12231286 15.73997433 -5.5 18 C-7 20 -7 20 -9.6875 20.75 C-10.450625 20.8325 -11.21375 20.915 -12 21 C-11.814375 20.360625 -11.62875 19.72125 -11.4375 19.0625 C-11.2209375 18.0415625 -11.2209375 18.0415625 -11 17 C-11.33 16.67 -11.66 16.34 -12 16 C-12.33228375 10.57269868 -11.4516516 6.17150883 -10 1 C-9.01 1.33 -8.02 1.66 -7 2 C-7 1.34 -7 0.68 -7 0 C-3.98968256 -0.93423645 -3.13349732 -1.04449911 0 0 Z " fill="#1c4571" transform="translate(70,97)"/>
<path d="M0 0 C5.00656812 9.1497989 4.25626555 20.07500359 4.125 30.1875 C4.1149393 31.53449847 4.10581897 32.88150431 4.09765625 34.22851562 C4.07430604 37.48587021 4.0415577 40.74283549 4 44 C4.66 44 5.32 44 6 44 C5.96447021 43.40050537 5.92894043 42.80101074 5.89233398 42.18334961 C5.73354119 39.43509437 5.58544527 36.68635967 5.4375 33.9375 C5.38142578 32.99455078 5.32535156 32.05160156 5.26757812 31.08007812 C4.99558422 25.87592806 5.04012018 21.12646927 6 16 C6.33 16 6.66 16 7 16 C8.81305261 45.13902594 8.81305261 45.13902594 5 58 C4.34 58 3.68 58 3 58 C2.67 57.34 2.34 56.68 2 56 C1.01 56.495 1.01 56.495 0 57 C-1.09015239 53.68469629 -0.85468042 51.51881403 -0.07421875 48.14453125 C1.27621075 41.30833683 1.25744936 34.63457589 1.1875 27.6875 C1.18685547 26.45193359 1.18621094 25.21636719 1.18554688 23.94335938 C1.15905632 18.4892476 0.96857813 13.37584719 0 8 C-0.11196073 5.32189925 -0.04625299 2.68267314 0 0 Z " fill="#1c4571" transform="translate(217,84)"/>
<path d="M0 0 C3.47417927 0.31583448 5.53412708 0.63485636 8.3125 2.8125 C10.0006856 5.00088874 10.45224423 6.35251377 11 9 C11.66 9.33 12.32 9.66 13 10 C12.33587285 13.32063575 11.3927124 14.6072876 9 17 C8.63557767 18.66014616 8.30027117 20.32706064 8 22 C6 19 6 19 6.375 16.8125 C6.684375 15.9153125 6.684375 15.9153125 7 15 C6.1646875 15.37125 6.1646875 15.37125 5.3125 15.75 C3 16 3 16 0.25 14.0625 C-0.4925 13.381875 -1.235 12.70125 -2 12 C-2.33 12.66 -2.66 13.32 -3 14 C-4.65 13.67 -6.3 13.34 -8 13 C-8 12.67 -8 12.34 -8 12 C-5.36 11.34 -2.72 10.68 0 10 C-0.66 8.68 -1.32 7.36 -2 6 C-4.97 6 -7.94 6 -11 6 C-11.33 5.01 -11.66 4.02 -12 3 C-7.27685687 2.22887459 -2.78478822 1.90235126 2 2 C1.34 1.34 0.68 0.68 0 0 Z " fill="#1c4571" transform="translate(86,83)"/>
<path d="M0 0 C0.86931152 0.34039307 1.73862305 0.68078613 2.63427734 1.03149414 C4.04580078 1.57773438 4.04580078 1.57773438 5.48583984 2.13500977 C6.47068359 2.52495117 7.45552734 2.91489258 8.47021484 3.31665039 C9.46279297 3.70272461 10.45537109 4.08879883 11.47802734 4.48657227 C13.93650902 5.44396176 16.39198166 6.40840798 18.84521484 7.37915039 C18.51521484 8.03915039 18.18521484 8.69915039 17.84521484 9.37915039 C15.54795989 10.10814596 13.3126016 10.70946088 10.97021484 11.25415039 C10.26783691 11.42269531 9.56545898 11.59124023 8.84179688 11.76489258 C6.51251256 12.3164981 4.17979957 12.85044114 1.84521484 13.37915039 C1.013125 13.56832031 0.18103516 13.75749023 -0.67626953 13.95239258 C-3.2085382 14.52210467 -5.74327726 15.07864047 -8.27978516 15.62915039 C-9.46870361 15.89187744 -9.46870361 15.89187744 -10.68164062 16.15991211 C-14.91694699 17.05530475 -18.79716646 17.57405985 -23.15478516 17.37915039 C-23.15478516 16.71915039 -23.15478516 16.05915039 -23.15478516 15.37915039 C-21.17478516 15.37915039 -19.19478516 15.37915039 -17.15478516 15.37915039 C-17.15478516 14.71915039 -17.15478516 14.05915039 -17.15478516 13.37915039 C-6.51116098 11.39670321 -6.51116098 11.39670321 -2.02978516 10.81665039 C0.73551196 10.68641345 0.73551196 10.68641345 1.84521484 9.37915039 C0.85521484 8.71915039 -0.13478516 8.05915039 -1.15478516 7.37915039 C-0.49478516 6.71915039 0.16521484 6.05915039 0.84521484 5.37915039 C-0.80478516 3.72915039 -2.45478516 2.07915039 -4.15478516 0.37915039 C-2.15478516 -0.62084961 -2.15478516 -0.62084961 0 0 Z " fill="#1c4571" transform="translate(89.15478515625,158.620849609375)"/>
<path d="M0 0 C14.03857957 2.07686851 26.75890436 12.89680388 37 22 C36.505 23.485 36.505 23.485 36 25 C36.99 25.33 37.98 25.66 39 26 C38.34 26.66 37.68 27.32 37 28 C35 26.625 35 26.625 33 25 C33 24.34 33 23.68 33 23 C32.401875 22.896875 31.80375 22.79375 31.1875 22.6875 C29 22 29 22 27.76953125 20.73046875 C25.28002564 18.29591911 22.41837541 16.49638762 19.5 14.625 C18.88431152 14.22869385 18.26862305 13.8323877 17.63427734 13.42407227 C12.31912103 10.07106592 6.82520348 7.3657459 1 5 C1.66 4.34 2.32 3.68 3 3 C2.01 2.01 1.02 1.02 0 0 Z " fill="#1c4571" transform="translate(152,7)"/>
<path d="M0 0 C3.35595828 0.59927826 5.37801226 1.84622436 8 4 C7.67 4.66 7.34 5.32 7 6 C7.928125 6.28875 8.85625 6.5775 9.8125 6.875 C13 8 13 8 16 10 C16.66 9.67 17.32 9.34 18 9 C18 7.68 18 6.36 18 5 C21.465 4.505 21.465 4.505 25 4 C25.99 5.485 25.99 5.485 27 7 C27.66 7 28.32 7 29 7 C29.33 6.01 29.66 5.02 30 4 C32.475 4.495 32.475 4.495 35 5 C35 5.99 35 6.98 35 8 C35.99 7.67 36.98 7.34 38 7 C38 7.66 38 8.32 38 9 C36.35 9.33 34.7 9.66 33 10 C33 10.66 33 11.32 33 12 C25.48160736 14.45498535 20.40731306 14.8997721 13.0625 11.375 C7.98977345 8.695069 3.41278908 5.66001917 -1 2 C-0.67 1.34 -0.34 0.68 0 0 Z " fill="#1c4571" transform="translate(58,180)"/>
<path d="M0 0 C2 1 2 1 2.78125 2.99609375 C3.0184375 3.80175781 3.255625 4.60742188 3.5 5.4375 C4.57316512 9.09382035 4.57316512 9.09382035 7 12 C7 13.32 7 14.64 7 16 C7.66 16.33 8.32 16.66 9 17 C9.68132451 18.66072849 10.34742127 20.327767 11 22 C11.66 22.66 12.32 23.32 13 24 C14.79454828 26.76317193 16.51705553 29.56654147 18.24609375 32.37109375 C19.72042863 34.58095428 21.08242676 36.20162726 23 38 C23.9036035 39.0768608 24.79913022 40.16053792 25.6875 41.25 C30.44256219 46.82122958 35.15309088 51.30273277 42 54 C42.8125 56.125 42.8125 56.125 43 58 C44.03125 58.2475 45.0625 58.495 46.125 58.75 C49.94085073 59.82705464 52.7442704 61.73514463 56 64 C57.64619113 64.71573527 59.30728055 65.4025696 61 66 C61 66.33 61 66.66 61 67 C49.18998704 66.73159061 39.50853122 57.27190425 31 50 C30.15953125 49.35546875 29.3190625 48.7109375 28.453125 48.046875 C23.96491616 44.30193641 20.58783897 39.5871364 17 35 C16.31421875 34.14148438 15.6284375 33.28296875 14.921875 32.3984375 C10.89020113 27.14456329 7.582406 21.68949731 4.5625 15.8125 C4.22017334 15.15934814 3.87784668 14.50619629 3.52514648 13.83325195 C1.22907099 9.19023299 0.40783306 5.16397072 0 0 Z " fill="#1c4571" transform="translate(6,147)"/>
<path d="M0 0 C5.55313696 0.64411386 11.01255636 1.50057804 16.5 2.5625 C17.22703125 2.70107422 17.9540625 2.83964844 18.703125 2.98242188 C20.46918037 3.31936665 22.23465426 3.65935683 24 4 C24 4.33 24 4.66 24 5 C32.91 5 41.82 5 51 5 C50.67 5.66 50.34 6.32 50 7 C47.93359375 7.4140625 47.93359375 7.4140625 45.4375 7.625 C44.61121094 7.69976562 43.78492188 7.77453125 42.93359375 7.8515625 C41.97646484 7.92503906 41.97646484 7.92503906 41 8 C41 8.66 41 9.32 41 10 C37.41673499 10.05814085 33.83359162 10.09364357 30.25 10.125 C29.23421875 10.14175781 28.2184375 10.15851563 27.171875 10.17578125 C26.1921875 10.18222656 25.2125 10.18867188 24.203125 10.1953125 C22.85202637 10.21102295 22.85202637 10.21102295 21.47363281 10.22705078 C18.80187452 9.98181438 17.21828519 9.50067804 15 8 C14.67 7.01 14.34 6.02 14 5 C11.98491642 4.26676204 11.98491642 4.26676204 10 4 C10 4.33 10 4.66 10 5 C5.07872966 5.16682272 1.49656104 5.24828052 -3 3 C-3 2.34 -3 1.68 -3 1 C-2.01 1 -1.02 1 0 1 C0 0.67 0 0.34 0 0 Z " fill="#1c4571" transform="translate(80,215)"/>
<path d="M0 0 C3.85437577 1.11574035 7.31649144 2.61431352 10.875 4.4375 C15.1687991 6.6364456 19.45152921 8.39961213 24 10 C24 10.66 24 11.32 24 12 C26.97 12.495 26.97 12.495 30 13 C30 13.33 30 13.66 30 14 C24.375 14.25 24.375 14.25 21 12 C21 12.66 21 13.32 21 14 C22.74906659 14.19601608 24.49931846 14.38147403 26.25 14.5625 C27.22453125 14.66691406 28.1990625 14.77132812 29.203125 14.87890625 C31.79218615 14.99100247 33.53842815 14.6790543 36 14 C38.75 14.4375 38.75 14.4375 41 15 C40.01 15.33 39.02 15.66 38 16 C38 16.66 38 17.32 38 18 C38.66 18.33 39.32 18.66 40 19 C36.26381094 19.96884164 33.82507097 19.96722747 30.12890625 18.890625 C29.22462891 18.63023437 28.32035156 18.36984375 27.38867188 18.1015625 C26.45603516 17.82054687 25.52339844 17.53953125 24.5625 17.25 C23.63373047 16.98445313 22.70496094 16.71890625 21.74804688 16.4453125 C16.88687812 15.01983099 12.43354308 13.45732271 8 11 C9.32 10.34 10.64 9.68 12 9 C9.69 8.01 7.38 7.02 5 6 C5 5.34 5 4.68 5 4 C2.525 3.01 2.525 3.01 0 2 C0 1.34 0 0.68 0 0 Z " fill="#1c4571" transform="translate(56,204)"/>
<path d="M0 0 C0.66 0 1.32 0 2 0 C1.7834375 1.423125 1.7834375 1.423125 1.5625 2.875 C0.88786802 7.56851104 0.45255333 12.28051526 0 17 C0.99 14.03 1.98 11.06 3 8 C4.03064573 12.12258292 3.74867027 13.92484801 3 18 C2.85886429 20.23501234 2.7554661 22.47262702 2.68359375 24.7109375 C2.64169922 25.95488281 2.59980469 27.19882813 2.55664062 28.48046875 C2.51732422 29.76566406 2.47800781 31.05085938 2.4375 32.375 C2.37272461 34.33759766 2.37272461 34.33759766 2.30664062 36.33984375 C2.20087571 39.55979797 2.09878421 42.77982531 2 46 C1.34 46 0.68 46 0 46 C0 44.35 0 42.7 0 41 C-0.99 41 -1.98 41 -3 41 C-3 38.36 -3 35.72 -3 33 C-2.01 32.505 -2.01 32.505 -1 32 C-1 29.69 -1 27.38 -1 25 C-1.66 25.66 -2.32 26.32 -3 27 C-4 26 -4 26 -4.1875 22.53125 C-4.12697092 17.6889235 -3.1306395 13.19062603 -2 8.5 C-1.71382813 7.26636719 -1.71382813 7.26636719 -1.421875 6.0078125 C-0.95572696 4.00337593 -0.47897024 2.00141137 0 0 Z " fill="#1c4571" transform="translate(4,79)"/>
<path d="M0 0 C1.32 0.33 2.64 0.66 4 1 C4 1.66 4 2.32 4 3 C4.66 3 5.32 3 6 3 C6 3.66 6 4.32 6 5 C6.94875 5.165 7.8975 5.33 8.875 5.5 C13.67213078 6.83144854 17.02345312 9.96391071 20.765625 13.125 C23.05582621 15.11662026 23.05582621 15.11662026 26 17 C26 17.99 26 18.98 26 20 C27.65 20.66 29.3 21.32 31 22 C31 22.66 31 23.32 31 24 C31.763125 24.103125 32.52625 24.20625 33.3125 24.3125 C36.22636046 25.05790616 37.02950397 25.84458939 39 28 C33.17104836 26.25527978 28.19862692 24.1599497 23 21 C22.278125 20.67 21.55625 20.34 20.8125 20 C19 19 19 19 17.16015625 17.1484375 C15.08635898 15.08589049 12.96499663 13.37383959 10.625 11.625 C6.75234642 8.64849766 3.28320028 5.61993877 0 2 C0 1.34 0 0.68 0 0 Z " fill="#1c4571" transform="translate(30,186)"/>
<path d="M0 0 C2 1 2 1 4 3 C2.6875 4.5 2.6875 4.5 1 6 C0.01 6 -0.98 6 -2 6 C-2.66 7.65 -3.32 9.3 -4 11 C-4.66 11 -5.32 11 -6 11 C-6.2475 11.5775 -6.495 12.155 -6.75 12.75 C-8.18589094 15.33460369 -9.87984963 16.94042535 -12 19 C-13.7041954 20.97123456 -15.3496598 22.98291754 -17 25 C-17.66 24.67 -18.32 24.34 -19 24 C-19 19.12966514 -18.06208005 18.50291999 -14.8125 15.0625 C-13.98878906 14.18335938 -13.16507813 13.30421875 -12.31640625 12.3984375 C-9.90516498 9.90180658 -7.48873691 7.41960533 -5 5 C-3.6078125 3.6078125 -3.6078125 3.6078125 -2.1875 2.1875 C-1.465625 1.465625 -0.74375 0.74375 0 0 Z " fill="#1c4571" transform="translate(41,24)"/>
<path d="M0 0 C0.66 0.66 1.32 1.32 2 2 C-5.92521173 17.98442462 -15.04581259 30.71076138 -28 43 C-28.66 42.67 -29.32 42.34 -30 42 C-28.02 39.525 -28.02 39.525 -26 37 C-26.99 36.67 -27.98 36.34 -29 36 C-28.01 35.505 -28.01 35.505 -27 35 C-26.01 35.33 -25.02 35.66 -24 36 C-22.42726432 33.1575146 -22.42726432 33.1575146 -22 30 C-20.68 30 -19.36 30 -18 30 C-18 29.34 -18 28.68 -18 28 C-17.34 28 -16.68 28 -16 28 C-15.566875 27.1028125 -15.566875 27.1028125 -15.125 26.1875 C-14 24 -14 24 -12 21 C-13.98 21.99 -13.98 21.99 -16 23 C-14.57559353 19.43898382 -13.3386476 18.6693238 -10 17 C-6.8860786 13.49526255 -4.78554522 9.89737762 -2.75 5.6875 C-2.22921875 4.61886719 -1.7084375 3.55023438 -1.171875 2.44921875 C-0.59179688 1.23685547 -0.59179688 1.23685547 0 0 Z " fill="#1c4571" transform="translate(215,155)"/>
<path d="M0 0 C2 0 2 0 4 1.75 C5.8603274 3.84286832 6.8550003 5.48100067 8 8 C9.85774722 11.65008473 9.85774722 11.65008473 13 14 C13.33 13.34 13.66 12.68 14 12 C17.0916909 14.52956528 17.90931332 17.22454612 19 21 C17 21 17 21 15.375 19.5 C14.92125 19.005 14.4675 18.51 14 18 C14.32613281 18.60585938 14.65226563 19.21171875 14.98828125 19.8359375 C18.0754648 25.75531598 20.31048758 31.54413955 22 38 C21.01 38.495 21.01 38.495 20 39 C19.74347656 38.2471875 19.48695313 37.494375 19.22265625 36.71875 C14.65353143 24.04212086 8.28519141 12.62204026 0 2 C0 1.34 0 0.68 0 0 Z " fill="#1c4571" transform="translate(195,43)"/>
<path d="M0 0 C0.66 0 1.32 0 2 0 C2.12375 0.639375 2.2475 1.27875 2.375 1.9375 C2.684375 2.9584375 2.684375 2.9584375 3 4 C3.66 4.33 4.32 4.66 5 5 C6.35308313 6.31328657 7.68870078 7.64499081 9 9 C9.78375 8.34 10.5675 7.68 11.375 7 C14 5 14 5 16 5 C16 5.66 16 6.32 16 7 C15.21625 7.61875 14.4325 8.2375 13.625 8.875 C11.13770844 10.88852174 10.14461734 12.08642859 9 15 C9.66 15.33 10.32 15.66 11 16 C9.68 16.33 8.36 16.66 7 17 C7 15.68 7 14.36 7 13 C5.02 13.33 3.04 13.66 1 14 C1 11.69 1 9.38 1 7 C-0.32 7.33 -1.64 7.66 -3 8 C-2.45276317 4.62537285 -1.9451 2.91765 0 0 Z " fill="#1c4571" transform="translate(126,90)"/>
<path d="M0 0 C-0.33 0.33 -0.66 0.66 -1 1 C-0.01 1.33 0.98 1.66 2 2 C2 1.34 2 0.68 2 0 C2.99 0.33 3.98 0.66 5 1 C5 1.66 5 2.32 5 3 C2.43850372 3.50567729 -0.12399465 4.00470132 -2.6875 4.5 C-3.7693457 4.71462891 -3.7693457 4.71462891 -4.87304688 4.93359375 C-8.63841359 5.65571887 -12.14473813 6.1824976 -16 6 C-16 5.34 -16 4.68 -16 4 C-13.36 3.34 -10.72 2.68 -8 2 C-17.57 2 -27.14 2 -37 2 C-33.12047198 0.06023599 -31.89616015 -0.23662012 -27.7890625 -0.16015625 C-26.79132813 -0.14919922 -25.79359375 -0.13824219 -24.765625 -0.12695312 C-23.72921875 -0.10568359 -22.6928125 -0.08441406 -21.625 -0.0625 C-14.9377677 0.05062987 -6.17739954 -2.13833061 0 0 Z " fill="#1c4571" transform="translate(137,219)"/>
<path d="M0 0 C0.33 0.66 0.66 1.32 1 2 C1.66 2 2.32 2 3 2 C3 3.98 3 5.96 3 8 C3.99 8 4.98 8 6 8 C6 14.93 6 21.86 6 29 C5.67 29 5.34 29 5 29 C4.67 25.37 4.34 21.74 4 18 C4 24.93 4 31.86 4 39 C3.34 39 2.68 39 2 39 C1.97494385 38.17387207 1.9498877 37.34774414 1.92407227 36.49658203 C1.82801633 33.38402127 1.72884978 30.27157829 1.62768555 27.15917969 C1.56390016 25.1686935 1.50359073 23.1780969 1.44335938 21.1875 C1.2102682 14.08718417 0.84783288 7.05521792 0 0 Z " fill="#1c4571" transform="translate(219,89)"/>
<path d="M0 0 C0.99 0 1.98 0 3 0 C4.05838127 6.00860549 4.11662571 11.84627561 4.0625 17.9375 C4.05798828 18.90751953 4.05347656 19.87753906 4.04882812 20.87695312 C4.0371315 23.2513676 4.02074086 25.62565021 4 28 C3.01 28.33 2.02 28.66 1 29 C-0.09857724 22.8323971 -0.11539104 16.81584877 -0.0625 10.5625 C-0.05798828 9.54478516 -0.05347656 8.52707031 -0.04882812 7.47851562 C-0.03712437 4.98561491 -0.02072848 2.49283926 0 0 Z " fill="#1c4571" transform="translate(24,101)"/>
<path d="M0 0 C2.97 0.495 2.97 0.495 6 1 C6 1.66 6 2.32 6 3 C7.175625 3.28875 8.35125 3.5775 9.5625 3.875 C14.56736162 5.51922537 18.70711538 8.16715031 23.0625 11.0625 C23.7419165 11.51028809 24.42133301 11.95807617 25.12133789 12.41943359 C26.78867246 13.55481208 28.40025877 14.77121326 30 16 C30 16.66 30 17.32 30 18 C30.58394531 18.08378906 31.16789062 18.16757812 31.76953125 18.25390625 C34.64823867 19.2168364 35.75602208 20.62056444 37.6875 22.9375 C38.28949219 23.64777344 38.89148438 24.35804687 39.51171875 25.08984375 C41 27 41 27 42 29 C39.06120516 27.64763423 36.70767089 26.10057341 34.25 24 C33.63640625 23.484375 33.0228125 22.96875 32.390625 22.4375 C31 21 31 21 31 19 C30.41226807 18.71552002 29.82453613 18.43104004 29.21899414 18.13793945 C27.22283098 17.11427167 25.37510867 16.01455056 23.49609375 14.79296875 C15.88467583 9.90447179 8.4267134 5.39210921 0 2 C0 1.34 0 0.68 0 0 Z " fill="#1c4571" transform="translate(151,11)"/>
<path d="M0 0 C0.33 0 0.66 0 1 0 C1.14695313 0.95519531 1.29390625 1.91039063 1.4453125 2.89453125 C2.96739228 11.66835897 5.20401579 18.38623131 10 26 C11.1263074 27.8950569 12.25136038 29.79086007 13.375 31.6875 C14.24772719 33.12638099 15.12184083 34.56442774 16 36 C13.5625 35.1484375 13.5625 35.1484375 11 34 C10.30341637 32.34561387 9.63903117 30.67745682 9 29 C8.154375 28.34 7.30875 27.68 6.4375 27 C3.4693595 24.56460267 3.63790137 23.67054725 3 20 C2.33323323 18.03451081 1.64455109 16.07635964 0.9375 14.125 C-0.64335652 9.47980204 -1.54173933 5.87565401 -1 1 C-0.67 0.67 -0.34 0.34 0 0 Z " fill="#1c4571" transform="translate(46,107)"/>
<path d="M0 0 C0 0.33 0 0.66 0 1 C-1.12148437 1.14695313 -1.12148437 1.14695313 -2.265625 1.296875 C-7.96462842 2.16216871 -11.0558892 2.64787774 -15 7 C-17.65142812 7.93032566 -20.2333056 8.44666112 -23 9 C-22.67 8.01 -22.34 7.02 -22 6 C-23.98 6.99 -23.98 6.99 -26 8 C-25.34 8.66 -24.68 9.32 -24 10 C-24.33 10.66 -24.66 11.32 -25 12 C-26.65 11.67 -28.3 11.34 -30 11 C-30.33 10.01 -30.66 9.02 -31 8 C-21.34088075 3.25516949 -10.8593319 -0.39082428 0 0 Z " fill="#1c4571" transform="translate(98,1)"/>
<path d="M0 0 C3.36525621 0.46417327 5.40608501 1.86928411 8 4 C7.67 4.66 7.34 5.32 7 6 C7.928125 6.28875 8.85625 6.5775 9.8125 6.875 C13 8 13 8 16 10 C16.66 9.67 17.32 9.34 18 9 C18 7.68 18 6.36 18 5 C19.32 5 20.64 5 22 5 C21.835 5.78375 21.67 6.5675 21.5 7.375 C20.82086554 10.81917573 20.82086554 10.81917573 22 14 C16.94589935 13.48848226 13.6513954 11.88653644 9.375 9.1875 C8.26898438 8.50042969 7.16296875 7.81335938 6.0234375 7.10546875 C3.35333099 5.24605349 1.19731764 3.38489353 -1 1 C-0.67 0.67 -0.34 0.34 0 0 Z " fill="#1c4571" transform="translate(58,180)"/>
<path d="M0 0 C2.01503575 3.02255362 2.89958143 5.56119198 4 9 C4.5259375 10.299375 4.5259375 10.299375 5.0625 11.625 C6 14 6 14 6.40234375 15.89453125 C7.08409381 18.29625204 8.12334252 19.98550804 9.5 22.0625 C11.08074245 24.45658958 12.08186532 26.24559596 13 29 C14.49985609 30.66710346 14.49985609 30.66710346 16 32 C15.67 32.99 15.34 33.98 15 35 C6.59016365 25.79774746 0.73736949 13.37875763 -1 1 C-0.67 0.67 -0.34 0.34 0 0 Z " fill="#1c4571" transform="translate(27,131)"/>
<path d="M0 0 C0.66 0 1.32 0 2 0 C2.07347656 1.46373047 2.07347656 1.46373047 2.1484375 2.95703125 C2.22320312 4.22933594 2.29796875 5.50164062 2.375 6.8125 C2.44460937 8.07707031 2.51421875 9.34164062 2.5859375 10.64453125 C2.76102939 14.12755234 2.76102939 14.12755234 5 17 C5.309375 17.825 5.61875 18.65 5.9375 19.5 C7.49187448 23.15735172 9.2318983 24.54279661 12.625 26.5625 C15 28 15 28 16 30 C9.51502304 28.19023899 5.77392776 25.60012046 2.25 19.875 C-0.98601636 13.70825184 -2.02754882 6.75849607 0 0 Z " fill="#1c4571" transform="translate(121,99)"/>
<path d="M0 0 C1.051875 0.433125 1.051875 0.433125 2.125 0.875 C3.07375 1.24625 4.0225 1.6175 5 2 C6.010625 2.4125 7.02125 2.825 8.0625 3.25 C10.93459668 4.27903792 10.93459668 4.27903792 13.375 3.125 C13.91125 2.75375 14.4475 2.3825 15 2 C15 2.66 15 3.32 15 4 C15.66 4 16.32 4 17 4 C16.67 5.65 16.34 7.3 16 9 C14.71073008 9.36279456 13.41846728 9.71496698 12.125 10.0625 C11.40570313 10.25972656 10.68640625 10.45695312 9.9453125 10.66015625 C8 11 8 11 6 10 C5.71125 9.21625 5.4225 8.4325 5.125 7.625 C3.85454366 4.66060186 2.58553036 3.80987125 0 2 C0 1.34 0 0.68 0 0 Z " fill="#1c4571" transform="translate(148,95)"/>
<path d="M0 0 C2.58548628 2.58548628 2.97641847 4.29538385 3.09765625 7.91796875 C3.08605469 8.99691406 3.07445312 10.07585938 3.0625 11.1875 C3.05347656 12.27417969 3.04445312 13.36085938 3.03515625 14.48046875 C3.02355469 15.31191406 3.01195312 16.14335938 3 17 C2.01 16.34 1.02 15.68 0 15 C0.33 12.69 0.66 10.38 1 8 C0.34 8 -0.32 8 -1 8 C-1.33 8.66 -1.66 9.32 -2 10 C-2.99 9.67 -3.98 9.34 -5 9 C-6.72795352 8.93197033 -8.45835365 8.91504355 -10.1875 8.9375 C-11.08855469 8.94652344 -11.98960937 8.95554687 -12.91796875 8.96484375 C-13.94857422 8.98224609 -13.94857422 8.98224609 -15 9 C-15 8.67 -15 8.34 -15 8 C-12.36 8 -9.72 8 -7 8 C-7 7.34 -7 6.68 -7 6 C-5.46875 4.4921875 -5.46875 4.4921875 -3.5 2.875 C-2.8503125 2.33617187 -2.200625 1.79734375 -1.53125 1.2421875 C-0.77328125 0.62730469 -0.77328125 0.62730469 0 0 Z " fill="#1c4571" transform="translate(184,35)"/>
<path d="M0 0 C-3.92438786 1.66489182 -7.89100419 2.87204037 -12 4 C-12 4.66 -12 5.32 -12 6 C-14.99479617 6.9126354 -17.22346574 7.00692589 -20.3125 6.5625 C-24.2571393 6.05309294 -28.02586519 5.91544394 -32 6 C-32 5.34 -32 4.68 -32 4 C-24.81975367 2.41189846 -17.61246422 1.37074761 -10.3203125 0.46484375 C-7.15225806 0.09409654 -7.15225806 0.09409654 -4.7421875 -0.62109375 C-3 -1 -3 -1 0 0 Z " fill="#1c4571" transform="translate(95,175)"/>
<path d="M0 0 C0 0.66 0 1.32 0 2 C-0.75023437 2.14695312 -1.50046875 2.29390625 -2.2734375 2.4453125 C-10.95814219 4.34850975 -18.74285927 7.2461975 -24.875 13.9375 C-25.926875 14.9584375 -25.926875 14.9584375 -27 16 C-29.3125 15.8125 -29.3125 15.8125 -31 15 C-31 14.34 -31 13.68 -31 13 C-29.68 13.33 -28.36 13.66 -27 14 C-27 13.34 -27 12.68 -27 12 C-25.6875 10.375 -25.6875 10.375 -24 9 C-23.01 9 -22.02 9 -21 9 C-20.67 8.01 -20.34 7.02 -20 6 C-16.4375 4.3125 -16.4375 4.3125 -13 3 C-13 2.34 -13 1.68 -13 1 C-4.57142857 -1.42857143 -4.57142857 -1.42857143 0 0 Z " fill="#1c4571" transform="translate(141,71)"/>
<path d="M0 0 C0.66 0 1.32 0 2 0 C2 1.32 2 2.64 2 4 C1.01 4.33 0.02 4.66 -1 5 C-2.32 11.6 -3.64 18.2 -5 25 C-4.34 25.33 -3.68 25.66 -3 26 C-3.99 26.33 -4.98 26.66 -6 27 C-8.31753292 20.04740124 -7.86586083 12.92344526 -4.625 6.375 C-3.22650696 3.84789855 -2.04740797 2.04740797 0 0 Z " fill="#1c4571" transform="translate(63,88)"/>
<path d="M0 0 C-1.20381448 2.49361571 -2.45428722 4.68143083 -4 7 C-4.66 7 -5.32 7 -6 7 C-6 7.66 -6 8.32 -6 9 C-7.32 9 -8.64 9 -10 9 C-9.67 10.32 -9.34 11.64 -9 13 C-10.32 13.99 -11.64 14.98 -13 16 C-13.66 15.34 -14.32 14.68 -15 14 C-14.505 13.566875 -14.01 13.13375 -13.5 12.6875 C-11.66781808 11.00259517 -11.66781808 11.00259517 -12 8 C-10.57421875 5.95703125 -10.57421875 5.95703125 -8.6875 3.8125 C-7.76517578 2.73935547 -7.76517578 2.73935547 -6.82421875 1.64453125 C-4.4664093 -0.48103145 -3.04291229 0 0 0 Z " fill="#1c4571" transform="translate(203,176)"/>
<path d="M0 0 C2.04119788 1.61594832 4.04072937 3.2856382 6 5 C6 5.66 6 6.32 6 7 C4.68 6.67 3.36 6.34 2 6 C0.9609283 13.02782042 0.9609283 13.02782042 2 20 C1.01 20 0.02 20 -1 20 C-3.14288655 13.57134036 -2.68159945 6.20119872 0 0 Z " fill="#1c4571" transform="translate(40,35)"/>
<path d="M0 0 C3 3.75 3 3.75 3 6 C3.99 6 4.98 6 6 6 C7.32 9.3 8.64 12.6 10 16 C9.34 16 8.68 16 8 16 C8.33 17.32 8.66 18.64 9 20 C8.34 20 7.68 20 7 20 C6.05132329 17.86547739 5.10349796 15.73063875 4.16015625 13.59375 C3.3927119 11.87798215 2.60904077 10.16937186 1.80859375 8.46875 C1.43863281 7.6746875 1.06867188 6.880625 0.6875 6.0625 C0.34074219 5.33160156 -0.00601563 4.60070313 -0.36328125 3.84765625 C-0.57339844 3.23792969 -0.78351563 2.62820312 -1 2 C-0.67 1.34 -0.34 0.68 0 0 Z " fill="#1c4571" transform="translate(209,58)"/>
<path d="M0 0 C3.96 1.98 3.96 1.98 8 4 C8 4.66 8 5.32 8 6 C8.99 6.33 9.98 6.66 11 7 C12.60546875 9.328125 12.60546875 9.328125 14.1875 12.25 C14.71730469 13.20390625 15.24710938 14.1578125 15.79296875 15.140625 C17.01747942 18.04140757 17.25504467 19.89412264 17 23 C16.34 23 15.68 23 15 23 C14.79246094 22.3709375 14.58492187 21.741875 14.37109375 21.09375 C11.73964275 13.78294054 8.16469577 7.99887424 1.78125 3.40234375 C1.1934375 2.93957031 0.605625 2.47679688 0 2 C0 1.34 0 0.68 0 0 Z " fill="#1c4571" transform="translate(162,75)"/>
<path d="M0 0 C3.3 0.66 6.6 1.32 10 2 C6.6875781 4.20828127 3.89169865 5.00575368 0.0625 6.0625 C-1.77634766 6.57490234 -1.77634766 6.57490234 -3.65234375 7.09765625 C-4.75707031 7.39542969 -5.86179687 7.69320313 -7 8 C-7.76441406 8.24621094 -8.52882813 8.49242187 -9.31640625 8.74609375 C-9.87199219 8.82988281 -10.42757812 8.91367188 -11 9 C-11.66 8.34 -12.32 7.68 -13 7 C-12.67 6.67 -12.34 6.34 -12 6 C-12.99 5.67 -13.98 5.34 -15 5 C-12.69 4.34 -10.38 3.68 -8 3 C-7.67 3.66 -7.34 4.32 -7 5 C-4.69 4.01 -2.38 3.02 0 2 C0 1.34 0 0.68 0 0 Z " fill="#1c4571" transform="translate(84,4)"/>
<path d="M0 0 C1.22976562 0.12568359 1.22976562 0.12568359 2.484375 0.25390625 C3.56203125 0.35574219 4.6396875 0.45757812 5.75 0.5625 C6.81734375 0.66691406 7.8846875 0.77132812 8.984375 0.87890625 C11.67787689 0.987065 13.45126958 0.7154331 16 0 C18.75 0.4375 18.75 0.4375 21 1 C20.01 1.33 19.02 1.66 18 2 C18 2.66 18 3.32 18 4 C18.66 4.33 19.32 4.66 20 5 C15.36733774 6.43027825 11.6905884 5.39403523 7.1875 4.0625 C6.49462891 3.86720703 5.80175781 3.67191406 5.08789062 3.47070312 C3.38910039 2.99035554 1.69413405 2.49651979 0 2 C0 1.34 0 0.68 0 0 Z " fill="#1c4571" transform="translate(76,218)"/>
<path d="M0 0 C0.5775 0.20625 1.155 0.4125 1.75 0.625 C0.945625 0.91375 0.14125 1.2025 -0.6875 1.5 C-3.3826468 2.35762568 -3.3826468 2.35762568 -4.25 4.625 C-8.71549293 6.63631706 -13.31814638 8.10227616 -18.25 7.625 C-17.92 5.975 -17.59 4.325 -17.25 2.625 C-14.5809266 1.77089651 -12.60000529 1.63660705 -9.75 1.6875 C-6.03705939 1.62119749 -3.48269359 -0.58044893 0 0 Z " fill="#1c4571" transform="translate(147.25,191.375)"/>
<path d="M0 0 C2.2109885 0.42793326 3.98119242 0.99059621 6 2 C6 2.66 6 3.32 6 4 C4.35 4 2.7 4 1 4 C0.34 5.32 -0.32 6.64 -1 8 C-1.66 8 -2.32 8 -3 8 C-3.0825 8.639375 -3.165 9.27875 -3.25 9.9375 C-4.29520372 14.20541517 -6.14091826 18.03107667 -8 22 C-8.33 22 -8.66 22 -9 22 C-8.853665 14.53691515 -5.39262412 5.39262412 0 0 Z " fill="#1c4571" transform="translate(39,62)"/>
<path d="M0 0 C1.32 0.33 2.64 0.66 4 1 C3.690625 1.7425 3.38125 2.485 3.0625 3.25 C1.96876427 5.85603571 1.96876427 5.85603571 1.5625 8.125 C0.86111979 10.46293402 -0.25136858 11.31862363 -2 13 C-3.96907875 15.95361812 -5.35157577 18.49850918 -6 22 C-6.66 21.67 -7.32 21.34 -8 21 C-6.6123552 16.49015439 -4.818498 12.30624212 -2.8046875 8.05078125 C-1.81736584 5.90171616 -1.81736584 5.90171616 -2 3 C-1.34 2.01 -0.68 1.02 0 0 Z " fill="#1c4571" transform="translate(18,50)"/>
<path d="M0 0 C4.27683498 1.52744106 6.00037651 4.00075302 8 8 C8.32124049 11.3629864 8.2395064 14.63360448 8 18 C5.70986347 14.5647952 5.82157027 13.014669 6 9 C5.34 9 4.68 9 4 9 C4 7.68 4 6.36 4 5 C3.01 4.67 2.02 4.34 1 4 C0.3125 1.9375 0.3125 1.9375 0 0 Z M2 8 C2.66 8.33 3.32 8.66 4 9 C4 9.99 4 10.98 4 12 C3.34 12 2.68 12 2 12 C1.67 12.66 1.34 13.32 1 14 C0.34 14 -0.32 14 -1 14 C-1 12.35 -1 10.7 -1 9 C-0.01 8.67 0.98 8.34 2 8 Z " fill="#1c4571" transform="translate(95,88)"/>
<path d="M0 0 C0.66 0.66 1.32 1.32 2 2 C-1.62057668 8.08734321 -4.87362338 12.34773701 -11 16 C-11.66 16 -12.32 16 -13 16 C-11.82191948 12.6470016 -10.80593388 10.2447471 -8 8 C-7.01 7.67 -6.02 7.34 -5 7 C-3.96708324 5.01679982 -2.9662501 3.01652194 -2 1 C-1.34 0.67 -0.68 0.34 0 0 Z " fill="#1c4571" transform="translate(166,113)"/>
<path d="M0 0 C0.66 0.33 1.32 0.66 2 1 C1.52949219 2.05058594 1.05898438 3.10117187 0.57421875 4.18359375 C-2.62123653 11.37015985 -5.7116477 18.46189832 -8 26 C-8.66 26 -9.32 26 -10 26 C-9.86722656 25.40832031 -9.73445312 24.81664063 -9.59765625 24.20703125 C-8.68994822 20.14553475 -7.7908887 16.08625829 -7 12 C-6.34 12 -5.68 12 -5 12 C-4.9175 11.319375 -4.835 10.63875 -4.75 9.9375 C-3.77667472 6.1253093 -2.04192545 3.35929671 0 0 Z " fill="#1c4571" transform="translate(17,60)"/>
<path d="M0 0 C0.66 0 1.32 0 2 0 C2.33 1.65 2.66 3.3 3 5 C3.66 5 4.32 5 5 5 C3.23570801 9.97209562 0.6060834 14.43438061 -2 19 C-3.56454159 14.97985339 -2.46223974 11.30074319 -1.5625 7.25 C-1.34110352 6.20392578 -1.34110352 6.20392578 -1.11523438 5.13671875 C-0.75131967 3.4227979 -0.37670932 1.71115419 0 0 Z " fill="#1c4571" transform="translate(178,107)"/>
<path d="M0 0 C0.33 0.66 0.66 1.32 1 2 C1.66 2 2.32 2 3 2 C5.27141454 7.39460953 5.20413361 12.26157749 5 18 C1.0859375 15.3359375 1.0859375 15.3359375 0.3125 12.3125 C0.209375 11.219375 0.10625 10.12625 0 9 C-0.20799697 7.56245129 -0.41633757 6.12495227 -0.625 4.6875 C-0.74875 3.470625 -0.8725 2.25375 -1 1 C-0.67 0.67 -0.34 0.34 0 0 Z " fill="#1c4571" transform="translate(194,82)"/>
<path d="M0 0 C5.55313696 0.64411386 11.01255636 1.50057804 16.5 2.5625 C17.22703125 2.70107422 17.9540625 2.83964844 18.703125 2.98242188 C20.46918037 3.31936665 22.23465426 3.65935683 24 4 C24 4.33 24 4.66 24 5 C19.21521178 5.09764874 14.72314313 4.77112541 10 4 C10 4.33 10 4.66 10 5 C5.07872966 5.16682272 1.49656104 5.24828052 -3 3 C-3 2.34 -3 1.68 -3 1 C-2.01 1 -1.02 1 0 1 C0 0.67 0 0.34 0 0 Z " fill="#1c4571" transform="translate(80,215)"/>
<path d="M0 0 C0 0.66 0 1.32 0 2 C0.99 2.33 1.98 2.66 3 3 C0.06171403 5.50298434 -2.17902761 6.46930939 -6 7 C-6 6.34 -6 5.68 -6 5 C-6.66 5 -7.32 5 -8 5 C-7.75 3.125 -7.75 3.125 -7 1 C-4.09342573 -1.03460199 -3.47133392 -1.15711131 0 0 Z " fill="#1c4571" transform="translate(68,10)"/>
<path d="M0 0 C1.32 0.66 2.64 1.32 4 2 C2.68818459 5.93544623 0.04041273 7.74938163 -3.1484375 10.14453125 C-5.49514852 11.22877115 -6.61653863 10.85573613 -9 10 C-7.60804085 7.2160817 -5.84424221 7.02101003 -3 6 C-3.66 5.34 -4.32 4.68 -5 4 C-3.35 2.68 -1.7 1.36 0 0 Z " fill="#1c4571" transform="translate(179,197)"/>
<path d="M0 0 C-0.66 0 -1.32 0 -2 0 C-2 0.66 -2 1.32 -2 2 C-2.66 2 -3.32 2 -4 2 C-4.33 2.99 -4.66 3.98 -5 5 C-5.66 5 -6.32 5 -7 5 C-7.33 4.34 -7.66 3.68 -8 3 C-9.24136719 3.28875 -10.48273438 3.5775 -11.76171875 3.875 C-13.40358121 4.25028285 -15.04551192 4.62526718 -16.6875 5 C-17.50412109 5.19078125 -18.32074219 5.3815625 -19.16210938 5.578125 C-23.17239326 6.48733916 -26.85717252 7.27000098 -31 7 C-27.53896836 4.69264557 -25.01801131 4.2972411 -20.9375 3.5625 C-15.46623259 2.55067218 -10.21379917 1.27825685 -4.953125 -0.546875 C-3 -1 -3 -1 0 0 Z " fill="#1c4571" transform="translate(153,213)"/>
<path d="M0 0 C0.66 0.33 1.32 0.66 2 1 C2 3.64 2 6.28 2 9 C2.66 9 3.32 9 4 9 C3.38461538 14.53846154 3.38461538 14.53846154 1.4375 16.875 C0.963125 17.24625 0.48875 17.6175 0 18 C-1.30062431 14.18483536 -0.89369853 10.72438237 -0.5625 6.75 C-0.46066406 5.48671875 -0.35882813 4.2234375 -0.25390625 2.921875 C-0.17011719 1.95765625 -0.08632812 0.9934375 0 0 Z " fill="#1c4571" transform="translate(219,119)"/>
<path d="M0 0 C0.66 0 1.32 0 2 0 C3.34919532 1.65385233 4.68133728 3.321702 6 5 C6.99 5.66 7.98 6.32 9 7 C8.67 7.33 8.34 7.66 8 8 C11.96 8 15.92 8 20 8 C20 8.66 20 9.32 20 10 C10.83945841 12.00386847 10.83945841 12.00386847 6.5234375 9.6484375 C3.09576801 6.71933812 0.74931809 4.56678995 0 0 Z " fill="#1c4571" transform="translate(44,167)"/>
<path d="M0 0 C0.33 0 0.66 0 1 0 C1.48062124 2.68724704 1.95953496 5.37478033 2.4375 8.0625 C2.57220703 8.81466797 2.70691406 9.56683594 2.84570312 10.34179688 C3.6521177 14.88525458 4.37461944 19.42804307 5 24 C4.34 24.33 3.68 24.66 3 25 C2.32492934 21.93929066 1.66145078 18.8761791 1 15.8125 C0.80921875 14.94818359 0.6184375 14.08386719 0.421875 13.19335938 C0.24140625 12.35224609 0.0609375 11.51113281 -0.125 10.64453125 C-0.29257813 9.87471924 -0.46015625 9.10490723 -0.6328125 8.31176758 C-1.02792697 5.82417522 -1.12969002 3.51463537 -1 1 C-0.67 0.67 -0.34 0.34 0 0 Z " fill="#1c4571" transform="translate(1,122)"/>
<path d="M0 0 C2.97 0.495 2.97 0.495 6 1 C6 1.99 6 2.98 6 4 C6.99 3.67 7.98 3.34 9 3 C9 3.66 9 4.32 9 5 C7.35 5.33 5.7 5.66 4 6 C4 6.66 4 7.32 4 8 C2.35 8.33 0.7 8.66 -1 9 C-2.0326802 6.21176345 -2.04509293 5.1322726 -1.0625 2.25 C-0.711875 1.5075 -0.36125 0.765 0 0 Z " fill="#1c4571" transform="translate(87,184)"/>
<path d="M0 0 C0.99 0 1.98 0 3 0 C3 0.66 3 1.32 3 2 C1.7934375 2.9590625 1.7934375 2.9590625 0.5625 3.9375 C-2.23720732 5.81035932 -2.23720732 5.81035932 -3 9 C-5.5625 10.1875 -5.5625 10.1875 -8 11 C-9.125 7.25 -9.125 7.25 -8 5 C-7.34 5 -6.68 5 -6 5 C-5.67 4.01 -5.34 3.02 -5 2 C-3.68 2 -2.36 2 -1 2 C-0.67 1.34 -0.34 0.68 0 0 Z " fill="#1c4571" transform="translate(74,95)"/>
<path d="M0 0 C4.82360189 -0.19294408 8.49646738 0.24252386 13 2 C10 3 10 3 7 2 C7 2.66 7 3.32 7 4 C7.66 4.33 8.32 4.66 9 5 C7.1746875 4.9690625 7.1746875 4.9690625 5.3125 4.9375 C2.74523924 4.92389261 0.71430291 5.06348824 -1.8125 5.625 C-4 6 -4 6 -7 4 C-3.01939223 2.82923301 0.91621717 1.74250597 5 1 C3.35 1 1.7 1 0 1 C0 0.67 0 0.34 0 0 Z " fill="#1c4571" transform="translate(124,25)"/>
<path d="M0 0 C4.24994263 -0.05805933 8.49978324 -0.09361654 12.75 -0.125 C13.9565625 -0.14175781 15.163125 -0.15851562 16.40625 -0.17578125 C17.56640625 -0.18222656 18.7265625 -0.18867187 19.921875 -0.1953125 C20.99018555 -0.20578613 22.05849609 -0.21625977 23.15917969 -0.22705078 C25.97979105 -0.00161519 27.60787463 0.54151006 30 2 C28.04434742 2.38873828 26.08533496 2.76060833 24.125 3.125 C23.03445312 3.33382813 21.94390625 3.54265625 20.8203125 3.7578125 C19.42425781 3.87769531 19.42425781 3.87769531 18 4 C17.34 3.34 16.68 2.68 16 2 C13.26565038 1.6936141 10.61720179 1.4886664 7.875 1.375 C7.12089844 1.33632813 6.36679688 1.29765625 5.58984375 1.2578125 C3.72696816 1.16348969 1.86351745 1.08065338 0 1 C0 0.67 0 0.34 0 0 Z " fill="#1c4571" transform="translate(102,0)"/>
<path d="M0 0 C0.98484375 0.10183594 1.9696875 0.20367187 2.984375 0.30859375 C3.73203125 0.39238281 4.4796875 0.47617188 5.25 0.5625 C5.25 0.8925 5.25 1.2225 5.25 1.5625 C4.59773438 1.68367188 3.94546875 1.80484375 3.2734375 1.9296875 C-0.6566323 2.68324071 -4.39812407 3.44094286 -8.1875 4.75 C-10.75 5.5625 -10.75 5.5625 -13.75 4.5625 C-9.31988935 -0.34226536 -6.45066422 -0.69114259 0 0 Z " fill="#1c4571" transform="translate(144.75,82.4375)"/>
<path d="M0 0 C6.81598387 -0.33278764 11.92122066 -0.24201565 18 3 C17.01 4.485 17.01 4.485 16 6 C14.26982492 5.54548816 12.54090123 5.08621143 10.8125 4.625 C9.84957031 4.36976562 8.88664063 4.11453125 7.89453125 3.8515625 C5.17789793 3.05233704 2.60862825 2.0968638 0 1 C0 0.67 0 0.34 0 0 Z " fill="#1c4571" transform="translate(144,70)"/>
<path d="M0 0 C3.87460798 1.25662962 5.9860255 2.39604563 8 6 C8 9.11257569 7.82638376 11.10765685 7 14 C4 12 4 12 3.375 10.1875 C3.0966465 8.56377126 2.82719937 6.93851044 2.5625 5.3125 C2.376875 4.549375 2.19125 3.78625 2 3 C1.34 2.67 0.68 2.34 0 2 C0 1.34 0 0.68 0 0 Z " fill="#1c4571" transform="translate(188,30)"/>
<path d="M0 0 C1.44246094 0.25716797 1.44246094 0.25716797 2.9140625 0.51953125 C5.375 1.1875 5.375 1.1875 7.375 3.1875 C4.405 2.8575 1.435 2.5275 -1.625 2.1875 C-0.635 2.8475 0.355 3.5075 1.375 4.1875 C0.116875 4.208125 -1.14125 4.22875 -2.4375 4.25 C-3.14519531 4.26160156 -3.85289062 4.27320313 -4.58203125 4.28515625 C-6.625 4.1875 -6.625 4.1875 -9.625 3.1875 C-9.625 2.1975 -9.625 1.2075 -9.625 0.1875 C-6.15610711 -0.97153767 -3.56827972 -0.66845132 0 0 Z " fill="#1c4571" transform="translate(137.625,1.8125)"/>
<path d="M0 0 C0.66 0.33 1.32 0.66 2 1 C-1.02532308 4.34608023 -4.03571006 6.30159994 -8.0625 8.3125 C-9.62677734 9.11107422 -9.62677734 9.11107422 -11.22265625 9.92578125 C-14 11 -14 11 -17 10 C-14.04528092 6.65318549 -11.60793067 5.23273248 -7.375 3.875 C-3.28542781 2.61049954 -3.28542781 2.61049954 0 0 Z " fill="#1c4571" transform="translate(160,184)"/>
<path d="M0 0 C-0.66 0 -1.32 0 -2 0 C-2 0.66 -2 1.32 -2 2 C-1.34 2.33 -0.68 2.66 0 3 C-0.99 4.485 -0.99 4.485 -2 6 C-3.65 5.67 -5.3 5.34 -7 5 C-6.01 4.01 -5.02 3.02 -4 2 C-4.90492187 2.23396484 -4.90492187 2.23396484 -5.828125 2.47265625 C-6.62734375 2.66730469 -7.4265625 2.86195313 -8.25 3.0625 C-9.03890625 3.25972656 -9.8278125 3.45695313 -10.640625 3.66015625 C-13.10394822 4.01497267 -14.65604132 3.76877544 -17 3 C-14.92085336 2.29994051 -12.83648414 1.61537756 -10.75 0.9375 C-9.58984375 0.55464844 -8.4296875 0.17179688 -7.234375 -0.22265625 C-4.19922915 -0.95211763 -2.84296787 -1.11889082 0 0 Z " fill="#1c4571" transform="translate(113,169)"/>
<path d="M0 0 C1.79570284 2.66125745 2.03345719 3.78111062 1.5390625 7.015625 C1.08660156 8.61664063 1.08660156 8.61664063 0.625 10.25 C0.32851562 11.32765625 0.03203125 12.4053125 -0.2734375 13.515625 C-0.51320312 14.33546875 -0.75296875 15.1553125 -1 16 C-3.12508244 12.81237635 -3.5020163 10.73487777 -4 7 C-3.34 7 -2.68 7 -2 7 C-1.34 4.69 -0.68 2.38 0 0 Z " fill="#1c4571" transform="translate(197,128)"/>
<path d="M0 0 C0 0.99 0 1.98 0 3 C-3 5 -3 5 -5.875 4.6875 C-6.90625 4.460625 -7.9375 4.23375 -9 4 C-9.94875 3.814375 -10.8975 3.62875 -11.875 3.4375 C-12.57625 3.293125 -13.2775 3.14875 -14 3 C-10.40612846 -0.44412689 -4.68724694 -2.34362347 0 0 Z " fill="#1c4571" transform="translate(182,66)"/>
<path d="M0 0 C5.67193509 -0.36203841 10.89083483 0.33577868 16 3 C16.33 3.99 16.66 4.98 17 6 C16.01 6.33 15.02 6.66 14 7 C13.67 6.01 13.34 5.02 13 4 C11.88625 3.855625 10.7725 3.71125 9.625 3.5625 C6 3 6 3 4 2 C4 2.66 4 3.32 4 4 C3.01 3.67 2.02 3.34 1 3 C0.67 2.01 0.34 1.02 0 0 Z " fill="#1c4571" transform="translate(131,27)"/>
<path d="M0 0 C1.10228696 4.40914783 1.07654536 8.48382401 1 13 C0.01 13.33 -0.98 13.66 -2 14 C-2.33 9.71 -2.66 5.42 -3 1 C-1 0 -1 0 0 0 Z " fill="#1c4571" transform="translate(27,116)"/>
<path d="M0 0 C0.66 0.33 1.32 0.66 2 1 C1.67 2.98 1.34 4.96 1 7 C1.66 7.33 2.32 7.66 3 8 C2.01 8.495 2.01 8.495 1 9 C0.08968728 11.34386809 0.08968728 11.34386809 -0.625 14.0625 C-0.88539062 14.98160156 -1.14578125 15.90070313 -1.4140625 16.84765625 C-1.60742188 17.55792969 -1.80078125 18.26820312 -2 19 C-2.33 19 -2.66 19 -3 19 C-3.38614349 12.1781317 -2.00865708 6.50422293 0 0 Z " fill="#1c4571" transform="translate(6,79)"/>
<path d="M0 0 C0.66 0 1.32 0 2 0 C3.61254899 2.43213811 5.10544889 4.85220693 6.5625 7.375 C7.1802832 8.42300781 7.1802832 8.42300781 7.81054688 9.4921875 C10.73493304 14.46986607 10.73493304 14.46986607 12 17 C7.99818144 15.49821378 6.52245735 13.20119996 4.3125 9.625 C3.71050781 8.66851562 3.10851562 7.71203125 2.48828125 6.7265625 C1.21836082 4.40004161 0.45940065 2.58489435 0 0 Z " fill="#1c4571" transform="translate(15,160)"/>
<path d="M0 0 C0.28875 0.639375 0.5775 1.27875 0.875 1.9375 C1.82823451 4.15206079 1.82823451 4.15206079 4 5 C3.01 5 2.02 5 1 5 C0.34 7.97 -0.32 10.94 -1 14 C-1.99 13.67 -2.98 13.34 -4 13 C-3.649375 11.906875 -3.29875 10.81375 -2.9375 9.6875 C-1.66960546 6.09079627 -1.66960546 6.09079627 -3 3 C-2.01 2.01 -1.02 1.02 0 0 Z " fill="#1c4571" transform="translate(218,138)"/>
<path d="M0 0 C0 2.97 0 5.94 0 9 C-0.99 9.33 -1.98 9.66 -3 10 C-3 12.97 -3 15.94 -3 19 C-3.33 19 -3.66 19 -4 19 C-4.0809313 16.39521117 -4.14045434 13.79293347 -4.1875 11.1875 C-4.22520508 10.08051758 -4.22520508 10.08051758 -4.26367188 8.95117188 C-4.33808627 3.46931114 -4.33808627 3.46931114 -2.55078125 0.98828125 C-1 0 -1 0 0 0 Z " fill="#1c4571" transform="translate(4,102)"/>
<path d="M0 0 C0 0.66 0 1.32 0 2 C-0.78375 2.61875 -1.5675 3.2375 -2.375 3.875 C-4.86229156 5.88852174 -5.85538266 7.08642859 -7 10 C-6.34 10.33 -5.68 10.66 -5 11 C-6.32 11.33 -7.64 11.66 -9 12 C-9 10.68 -9 9.36 -9 8 C-9.66 8 -10.32 8 -11 8 C-11 7.34 -11 6.68 -11 6 C-10.34 6 -9.68 6 -9 6 C-8.67 5.34 -8.34 4.68 -8 4 C-2.47058824 0 -2.47058824 0 0 0 Z " fill="#1c4571" transform="translate(142,95)"/>
<path d="M0 0 C0.33 0.66 0.66 1.32 1 2 C0.34 2 -0.32 2 -1 2 C-1.33 2.99 -1.66 3.98 -2 5 C-6.37785559 9.06515162 -11.05872051 9.13182264 -16.8125 9.0625 C-18.27623047 9.04896484 -18.27623047 9.04896484 -19.76953125 9.03515625 C-20.87361328 9.01775391 -20.87361328 9.01775391 -22 9 C-22 8.34 -22 7.68 -22 7 C-20.49759766 6.99613281 -20.49759766 6.99613281 -18.96484375 6.9921875 C-10.13553375 6.99407961 -10.13553375 6.99407961 -2.5625 2.9375 C-1.716875 1.968125 -0.87125 0.99875 0 0 Z " fill="#1c4571" transform="translate(131,192)"/>
<path d="M0 0 C0 0.99 0 1.98 0 3 C-6.08973134 6.49595688 -10.99995111 7.71311275 -18 8 C-18 7.34 -18 6.68 -18 6 C-17.21753906 5.95101562 -16.43507813 5.90203125 -15.62890625 5.8515625 C-14.61699219 5.77679688 -13.60507813 5.70203125 -12.5625 5.625 C-11.55316406 5.55539063 -10.54382813 5.48578125 -9.50390625 5.4140625 C-8.26447266 5.20910156 -8.26447266 5.20910156 -7 5 C-6.67 4.34 -6.34 3.68 -6 3 C-4.34795544 2.29788106 -2.68076231 1.63028587 -1 1 C-0.67 0.67 -0.34 0.34 0 0 Z " fill="#1c4571" transform="translate(95,123)"/>
<path d="M0 0 C0 0.66 0 1.32 0 2 C-4.95 4.31 -9.9 6.62 -15 9 C-15.66 8.34 -16.32 7.68 -17 7 C-16.443125 6.731875 -15.88625 6.46375 -15.3125 6.1875 C-12.94984981 5.01749684 -12.94984981 5.01749684 -10.625 3.5 C-7.29735724 1.59848985 -3.8866604 0 0 0 Z " fill="#1c4571" transform="translate(169,209)"/>
<path d="M0 0 C3.63 0 7.26 0 11 0 C10.67 0.66 10.34 1.32 10 2 C4.80567752 3.58470855 -0.57858775 4.28533749 -6 4 C-6 3.34 -6 2.68 -6 2 C-4.02 2 -2.04 2 0 2 C0 1.34 0 0.68 0 0 Z " fill="#1c4571" transform="translate(72,172)"/>
<path d="M0 0 C0.99 0.495 0.99 0.495 2 1 C2 1.66 2 2.32 2 3 C2.66 3 3.32 3 4 3 C4.433125 3.45375 4.86625 3.9075 5.3125 4.375 C7.35628817 6.34309231 9.34530324 7.06726871 12 8 C11.67 8.66 11.34 9.32 11 10 C10.67 10 10.34 10 10 10 C9.67 10.66 9.34 11.32 9 12 C7.67522041 10.95285076 6.36556254 9.88655331 5.0625 8.8125 C4.33160156 8.22082031 3.60070313 7.62914063 2.84765625 7.01953125 C0.70261197 4.67494797 0.33905588 3.11608502 0 0 Z " fill="#1c4571" transform="translate(59,116)"/>
<path d="M0 0 C4.85963179 0.60745397 8.7405518 2.72758967 13 5 C10.35261084 6.4606285 9.10551666 7 6 7 C4.31763529 6.37400383 2.6476038 5.71247732 1 5 C1.66 4.34 2.32 3.68 3 3 C2.01 2.01 1.02 1.02 0 0 Z " fill="#1c4571" transform="translate(152,7)"/>
<path d="M0 0 C0.556875 0.309375 1.11375 0.61875 1.6875 0.9375 C4.12540433 2.05761821 6.36224186 2.56037364 9 3 C9 5.31 9 7.62 9 10 C8.34 10 7.68 10 7 10 C7 9.34 7 8.68 7 8 C6.34 8 5.68 8 5 8 C0 2.52380952 0 2.52380952 0 0 Z " fill="#1c4571" transform="translate(84,95)"/>
<path d="M0 0 C6.625 0.75 6.625 0.75 10 3 C10 3.66 10 4.32 10 5 C10.763125 5.103125 11.52625 5.20625 12.3125 5.3125 C15.22636046 6.05790616 16.02950397 6.84458939 18 9 C11.41467787 7.02888317 4.97070519 4.97070519 0 0 Z " fill="#1c4571" transform="translate(51,205)"/>
<path d="M0 0 C2 3 2 3 1.8125 5.375 C0.91167666 8.28535231 -0.23022062 10.52230886 -2 13 C-2.66 13 -3.32 13 -4 13 C-3.67 12.21625 -3.34 11.4325 -3 10.625 C-1.70669109 7.23006412 -2.08619461 5.42677022 -3 2 C-2.01 1.34 -1.02 0.68 0 0 Z " fill="#1c4571" transform="translate(22,46)"/>
<path d="M0 0 C2 1 2 1 4 3 C2.6875 4.5 2.6875 4.5 1 6 C0.01 6 -0.98 6 -2 6 C-2.33 6.99 -2.66 7.98 -3 9 C-3.66 8.67 -4.32 8.34 -5 8 C-4.45773019 4.20411134 -2.79872437 2.52788007 0 0 Z " fill="#1c4571" transform="translate(41,24)"/>
<path d="M0 0 C1.32 0 2.64 0 4 0 C3.835 0.78375 3.67 1.5675 3.5 2.375 C2.82086554 5.81917573 2.82086554 5.81917573 4 9 C1.03 8.505 1.03 8.505 -2 8 C-2 7.01 -2 6.02 -2 5 C-1.34 4.67 -0.68 4.34 0 4 C0 2.68 0 1.36 0 0 Z " fill="#1c4571" transform="translate(76,185)"/>
<path d="M0 0 C0 1.33333333 0 2.66666667 0 4 C0.66 4.33 1.32 4.66 2 5 C0.35 6.98 -1.3 8.96 -3 11 C-3.66 10.67 -4.32 10.34 -5 10 C-5 4.69520066 -3.4637943 3.81017373 0 0 Z " fill="#1c4571" transform="translate(27,38)"/>
<path d="M0 0 C0.66 0.66 1.32 1.32 2 2 C0.88182488 4.14964682 -0.24407448 6.29457566 -1.375 8.4375 C-1.85066406 9.35499023 -1.85066406 9.35499023 -2.3359375 10.29101562 C-4.7734375 14.88671875 -4.7734375 14.88671875 -7 16 C-5.35433477 10.31497465 -2.70967216 5.23318364 0 0 Z " fill="#1c4571" transform="translate(215,155)"/>
<path d="M0 0 C0.99 0 1.98 0 3 0 C3 0.66 3 1.32 3 2 C3.66 2.33 4.32 2.66 5 3 C6.23882213 6.27923505 7.21205747 9.58558238 8 13 C5 12 5 12 3.61328125 9.27734375 C3.18402344 8.17519531 2.75476563 7.07304687 2.3125 5.9375 C1.87550781 4.83277344 1.43851563 3.72804687 0.98828125 2.58984375 C0.66214844 1.73519531 0.33601562 0.88054687 0 0 Z " fill="#1c4571" transform="translate(11,157)"/>
<path d="M0 0 C0 0.99 0 1.98 0 3 C-4.455 3.495 -4.455 3.495 -9 4 C-9.33 3.01 -9.66 2.02 -10 1 C-6.78548731 -0.60725635 -3.56387464 -0.05748185 0 0 Z " fill="#1c4571" transform="translate(84,85)"/>
<path d="M0 0 C1.72880982 -0.05449838 3.45812712 -0.09301688 5.1875 -0.125 C6.15042969 -0.14820312 7.11335938 -0.17140625 8.10546875 -0.1953125 C11.12812778 0.0086456 13.26769985 0.73125368 16 2 C15.34 2.66 14.68 3.32 14 4 C11.8125 3.6875 11.8125 3.6875 9 3 C7.783125 2.855625 6.56625 2.71125 5.3125 2.5625 C2 2 2 2 0 0 Z " fill="#1c4571" transform="translate(75,83)"/>
<path d="M0 0 C0 0.66 0 1.32 0 2 C-5.94 2.495 -5.94 2.495 -12 3 C-12.33 2.34 -12.66 1.68 -13 1 C-4.57142857 -1.42857143 -4.57142857 -1.42857143 0 0 Z " fill="#1c4571" transform="translate(141,71)"/>
<path d="M0 0 C5.47932789 1.54545146 10.11429181 4.15543212 15 7 C12.45297384 8.27351308 11.5717055 7.80191925 8.875 7.0625 C8.15054688 6.86785156 7.42609375 6.67320312 6.6796875 6.47265625 C6.12539063 6.31667969 5.57109375 6.16070312 5 6 C5 5.34 5 4.68 5 4 C2.525 3.01 2.525 3.01 0 2 C0 1.34 0 0.68 0 0 Z " fill="#1c4571" transform="translate(56,204)"/>
<path d="M0 0 C1.98 0.66 3.96 1.32 6 2 C5.67 2.66 5.34 3.32 5 4 C2.93359375 4.6328125 2.93359375 4.6328125 0.4375 5.125 C-0.38878906 5.29257813 -1.21507813 5.46015625 -2.06640625 5.6328125 C-2.70449219 5.75398437 -3.34257813 5.87515625 -4 6 C-4.33 5.34 -4.66 4.68 -5 4 C-4.01 3.34 -3.02 2.68 -2 2 C-1.34 1.34 -0.68 0.68 0 0 Z " fill="#1c4571" transform="translate(102,164)"/>
<path d="M0 0 C0.66 0 1.32 0 2 0 C3.38226016 2.76452033 3.09525387 5.0461363 3.0625 8.125 C3.05347656 9.22070312 3.04445312 10.31640625 3.03515625 11.4453125 C3.02355469 12.28835937 3.01195312 13.13140625 3 14 C2.34 14 1.68 14 1 14 C0.67 9.38 0.34 4.76 0 0 Z " fill="#1c4571" transform="translate(166,98)"/>
<path d="M0 0 C-1 2 -1 2 -3.25 3.1875 C-6.30248582 4.08937081 -7.97734454 3.86361585 -11 3 C-11 2.01 -11 1.02 -11 0 C-7.18243176 -1.37432457 -3.92744671 -0.67975039 0 0 Z " fill="#1c4571" transform="translate(52,67)"/>
<path d="M0 0 C0.66 0 1.32 0 2 0 C1.45660208 4.56454251 0.20536179 7.9728176 -2 12 C-2.99 11.01 -3.98 10.02 -5 9 C-4 7 -4 7 -2 5 C-1.29289322 3.35008418 -0.62056011 1.68437744 0 0 Z " fill="#1c4571" transform="translate(213,153)"/>
<path d="M0 0 C2.6815279 3.07692746 3.42087807 5.19734663 3.6875 9.25 C3.75324219 10.14203125 3.81898438 11.0340625 3.88671875 11.953125 C3.92410156 12.62859375 3.96148437 13.3040625 4 14 C3.34 14 2.68 14 2 14 C2 12.02 2 10.04 2 8 C1.34 8 0.68 8 0 8 C-1.09658936 4.71023192 -0.79953138 3.28696233 0 0 Z " fill="#1c4571" transform="translate(220,83)"/>
<path d="M0 0 C0.66 0 1.32 0 2 0 C1.79503906 0.59167969 1.59007812 1.18335937 1.37890625 1.79296875 C0.0002429 5.83660816 -1.31750847 9.76855249 -2 14 C-2.66 14 -3.32 14 -4 14 C-3.53328373 8.58609132 -2.75702189 4.79482068 0 0 Z " fill="#1c4571" transform="translate(49,88)"/>
<path d="M0 0 C1.8125 0.1875 1.8125 0.1875 4 1 C6.62334906 4.37287736 7.36372697 6.75651873 7 11 C6.34 10.67 5.68 10.34 5 10 C5 9.34 5 8.68 5 8 C4.34 7.67 3.68 7.34 3 7 C2.375 4.9375 2.375 4.9375 2 3 C1.01 3 0.02 3 -1 3 C-0.67 2.01 -0.34 1.02 0 0 Z " fill="#1c4571" transform="translate(183,62)"/>
<path d="M0 0 C0.99 0.33 1.98 0.66 3 1 C1.02 3.31 -0.96 5.62 -3 8 C-3.99 7.67 -4.98 7.34 -6 7 C-6.33 7.66 -6.66 8.32 -7 9 C-7.33 8.01 -7.66 7.02 -8 6 C-6.68 6 -5.36 6 -4 6 C-4 5.34 -4 4.68 -4 4 C-3.34 4 -2.68 4 -2 4 C-1.34 2.68 -0.68 1.36 0 0 Z " fill="#1c4571" transform="translate(201,179)"/>
<path d="M0 0 C-3.69172595 3.53790403 -7.09390595 3.59115883 -12 4 C-12 3.34 -12 2.68 -12 2 C-10.37787941 1.47026689 -8.75218416 0.95146893 -7.125 0.4375 C-6.22007812 0.14746094 -5.31515625 -0.14257812 -4.3828125 -0.44140625 C-2 -1 -2 -1 0 0 Z " fill="#1c4571" transform="translate(140,160)"/>
<path d="M0 0 C0.66 0.33 1.32 0.66 2 1 C-0.3107221 9.35010941 -0.3107221 9.35010941 -3.1875 12.0625 C-3.785625 12.371875 -4.38375 12.68125 -5 13 C-3.58192622 8.52761347 -1.88695626 4.28853694 0 0 Z " fill="#1c4571" transform="translate(102,110)"/>
<path d="M0 0 C1.06863281 0.01804687 2.13726562 0.03609375 3.23828125 0.0546875 C4.04652344 0.07789062 4.85476562 0.10109375 5.6875 0.125 C5.6875 0.455 5.6875 0.785 5.6875 1.125 C2.0575 1.125 -1.5725 1.125 -5.3125 1.125 C-5.3125 1.785 -5.3125 2.445 -5.3125 3.125 C-7.3125 4.75 -7.3125 4.75 -9.3125 6.125 C-9.9725 4.805 -10.6325 3.485 -11.3125 2.125 C-7.38392246 0.27368517 -4.32474888 -0.09504943 0 0 Z " fill="#1c4571" transform="translate(80.3125,81.875)"/>
<path d="M0 0 C0.556875 0.28875 1.11375 0.5775 1.6875 0.875 C4.02046961 2.05222735 4.02046961 2.05222735 6.625 3 C9 4 9 4 11 6 C9.56138706 5.91253716 8.12402492 5.80434652 6.6875 5.6875 C5.88699219 5.62949219 5.08648437 5.57148438 4.26171875 5.51171875 C1.63727666 4.91793306 0.69179328 4.04219706 -1 2 C-0.67 1.34 -0.34 0.68 0 0 Z " fill="#1c4571" transform="translate(159,11)"/>
<path d="M0 0 C-0.99 1.485 -0.99 1.485 -2 3 C-5.625 3.1875 -5.625 3.1875 -9 3 C-9 2.01 -9 1.02 -9 0 C-2.25 -1.125 -2.25 -1.125 0 0 Z " fill="#1c4571" transform="translate(78,183)"/>
<path d="M0 0 C2.21399303 3.79541663 3.00980198 7.75629421 4 12 C3.01 12.495 3.01 12.495 2 13 C1.67 11.02 1.34 9.04 1 7 C0.34 7 -0.32 7 -1 7 C-1.04254356 5.00045254 -1.04080783 2.99958364 -1 1 C-0.67 0.67 -0.34 0.34 0 0 Z " fill="#1c4571" transform="translate(8,137)"/>
<path d="M0 0 C3 1 3 1 4.6875 3.9375 C6 7 6 7 6 9 C5.34 9 4.68 9 4 9 C2.5 7 2.5 7 1 5 C0.34 5 -0.32 5 -1 5 C-1.33 4.01 -1.66 3.02 -2 2 C-1.34 2 -0.68 2 0 2 C0 1.34 0 0.68 0 0 Z " fill="#1c4571" transform="translate(208,55)"/>
<path d="M0 0 C1.98 0 3.96 0 6 0 C5.01 1.98 4.02 3.96 3 6 C0.525 5.01 0.525 5.01 -2 4 C-1.34 2.68 -0.68 1.36 0 0 Z " fill="#1c4571" transform="translate(42,41)"/>
<path d="M0 0 C0.99 0.33 1.98 0.66 3 1 C3 1.66 3 2.32 3 3 C3.99 3.33 4.98 3.66 6 4 C3.37801226 6.15377564 1.35595828 7.40072174 -2 8 C-2 7.34 -2 6.68 -2 6 C-1.01 5.34 -0.02 4.68 1 4 C0.34 3.34 -0.32 2.68 -1 2 C-0.67 1.34 -0.34 0.68 0 0 Z " fill="#1c4571" transform="translate(65,9)"/>
<path d="M0 0 C1.65 0 3.3 0 5 0 C5 0.66 5 1.32 5 2 C7.97 2.33 10.94 2.66 14 3 C14 3.66 14 4.32 14 5 C8.06 4.01 8.06 4.01 2 3 C2 2.34 2 1.68 2 1 C1.34 0.67 0.68 0.34 0 0 Z " fill="#1c4571" transform="translate(123,3)"/>
<path d="M0 0 C0.92538169 3.70152678 1.08174162 4.63458162 0 8 C-0.598125 7.67 -1.19625 7.34 -1.8125 7 C-4.05386471 5.79212012 -4.05386471 5.79212012 -7 6 C-4.69 4.02 -2.38 2.04 0 0 Z " fill="#1c4571" transform="translate(183,192)"/>
<path d="M0 0 C0.886875 0.763125 1.77375 1.52625 2.6875 2.3125 C4.69358898 3.99533294 6.54969971 5.32981982 8.8125 6.6875 C11 8 11 8 12 10 C7.51162951 8.74743149 4.36163335 7.26558668 1 4 C0.1875 1.75 0.1875 1.75 0 0 Z " fill="#1c4571" transform="translate(125,119)"/>
<path d="M0 0 C2.4375 0.8125 2.4375 0.8125 5 2 C5.33 2.99 5.66 3.98 6 5 C6.66 5 7.32 5 8 5 C8.33 5.99 8.66 6.98 9 8 C8.01 8.66 7.02 9.32 6 10 C5.7525 9.236875 5.505 8.47375 5.25 7.6875 C3.87823242 4.73819971 2.6081283 3.82568981 0 2 C0 1.34 0 0.68 0 0 Z " fill="#1c4571" transform="translate(148,95)"/>
<path d="M0 0 C2.34914492 2.34914492 2.73140357 3.95679446 3.625 7.125 C3.88539063 8.03507812 4.14578125 8.94515625 4.4140625 9.8828125 C4.70410156 10.93082031 4.70410156 10.93082031 5 12 C4.01 12.495 4.01 12.495 3 13 C0.78145293 8.37802694 -0.38281159 5.23175837 0 0 Z " fill="#1c4571" transform="translate(212,69)"/>
<path d="M0 0 C0.33 0.66 0.66 1.32 1 2 C0.2575 2.6496875 0.2575 2.6496875 -0.5 3.3125 C-2.33218192 4.99740483 -2.33218192 4.99740483 -2 8 C-3.65 8.33 -5.3 8.66 -7 9 C-5.20578369 4.9630133 -3.79448125 2.35519526 0 0 Z " fill="#1c4571" transform="translate(169,135)"/>
<path d="M0 0 C0.61875 0.28875 1.2375 0.5775 1.875 0.875 C2.205 1.865 2.535 2.855 2.875 3.875 C1.885 4.535 0.895 5.195 -0.125 5.875 C-0.455 5.545 -0.785 5.215 -1.125 4.875 C-2.115 5.205 -3.105 5.535 -4.125 5.875 C-4.455 4.885 -4.785 3.895 -5.125 2.875 C-2.69803371 -0.15870787 -2.69803371 -0.15870787 0 0 Z " fill="#1c4571" transform="translate(132.125,86.125)"/>
<path d="M0 0 C0.66 0 1.32 0 2 0 C2.33 1.98 2.66 3.96 3 6 C3.99 5.67 4.98 5.34 6 5 C6.33 5.66 6.66 6.32 7 7 C6.34 7 5.68 7 5 7 C5.33 8.32 5.66 9.64 6 11 C5.34 11 4.68 11 4 11 C3.32880451 9.5437455 2.66318193 8.08492133 2 6.625 C1.62875 5.81289062 1.2575 5.00078125 0.875 4.1640625 C0 2 0 2 0 0 Z " fill="#1c4571" transform="translate(212,67)"/>
<path d="M0 0 C0 0.66 0 1.32 0 2 C-3.63423209 4.32590854 -6.77088331 4.16265833 -11 4 C-11 3.34 -11 2.68 -11 2 C-9.5422647 1.664061 -8.08378894 1.33133376 -6.625 1 C-5.40683594 0.7215625 -5.40683594 0.7215625 -4.1640625 0.4375 C-2 0 -2 0 0 0 Z " fill="#1c4571" transform="translate(107,196)"/>
<path d="M0 0 C1.8871875 0.0309375 1.8871875 0.0309375 3.8125 0.0625 C3.8125 0.7225 3.8125 1.3825 3.8125 2.0625 C0.1825 2.3925 -3.4475 2.7225 -7.1875 3.0625 C-7.1875 2.4025 -7.1875 1.7425 -7.1875 1.0625 C-4.43671116 0.14557039 -2.82801087 -0.04636083 0 0 Z " fill="#1c4571" transform="translate(60.1875,174.9375)"/>
<path d="M0 0 C2.16874252 0.50603992 3.99967627 0.99983813 6 2 C6 2.66 6 3.32 6 4 C5.2575 3.979375 4.515 3.95875 3.75 3.9375 C1.29537721 3.99328688 -0.66109261 4.3069904 -3 5 C-2.01 3.35 -1.02 1.7 0 0 Z " fill="#1c4571" transform="translate(39,62)"/>
<path d="M0 0 C2.51083114 1.25541557 2.87125446 2.50063488 4 5 C3.17242187 4.75443359 3.17242187 4.75443359 2.328125 4.50390625 C-0.26614007 3.94239586 -2.59835411 3.90260992 -5.25 3.9375 C-6.58804688 3.95103516 -6.58804688 3.95103516 -7.953125 3.96484375 C-8.62859375 3.97644531 -9.3040625 3.98804688 -10 4 C-10 3.67 -10 3.34 -10 3 C-7.36 3 -4.72 3 -2 3 C-2 2.34 -2 1.68 -2 1 C-1.34 0.67 -0.68 0.34 0 0 Z " fill="#1c4571" transform="translate(179,40)"/>
<path d="M0 0 C-0.33 1.32 -0.66 2.64 -1 4 C-1.61875 4.12375 -2.2375 4.2475 -2.875 4.375 C-5.19120832 4.87197356 -5.19120832 4.87197356 -7 7 C-7.66 6.34 -8.32 5.68 -9 5 C-3.375 0 -3.375 0 0 0 Z " fill="#1c4571" transform="translate(151,152)"/>
<path d="M0 0 C-0.99 0.66 -1.98 1.32 -3 2 C-3 2.33 -3 2.66 -3 3 C-5.875 3.125 -5.875 3.125 -9 3 C-9.66 2.34 -10.32 1.68 -11 1 C-3.57142857 -1.42857143 -3.57142857 -1.42857143 0 0 Z " fill="#1c4571" transform="translate(95,28)"/>
<path d="M0 0 C0.33 0.66 0.66 1.32 1 2 C1.66 2 2.32 2 3 2 C3.33 3.98 3.66 5.96 4 8 C3.01 7.67 2.02 7.34 1 7 C-0.1875 3.9375 -0.1875 3.9375 -1 1 C-0.67 0.67 -0.34 0.34 0 0 Z " fill="#1c4571" transform="translate(194,82)"/>
<path d="M0 0 C1.99097846 2.98646769 2.94124926 5.59687262 4 9 C3.34 9 2.68 9 2 9 C2 8.34 2 7.68 2 7 C1.01 7 0.02 7 -1 7 C-1.04254356 5.00045254 -1.04080783 2.99958364 -1 1 C-0.67 0.67 -0.34 0.34 0 0 Z " fill="#1c4571" transform="translate(12,150)"/>
<path d="M0 0 C2.86724686 0.57344937 3.8614515 0.8614515 6 3 C5.67 3.99 5.34 4.98 5 6 C3.0625 5.25 3.0625 5.25 1 4 C0.25 1.875 0.25 1.875 0 0 Z " fill="#1c4571" transform="translate(64,145)"/>
<path d="M0 0 C2.50298434 2.93828597 3.46930939 5.17902761 4 9 C3.62875 8.0409375 3.62875 8.0409375 3.25 7.0625 C2.18437567 4.81258459 2.18437567 4.81258459 -0.125 4.25 C-0.74375 4.1675 -1.3625 4.085 -2 4 C-2.33 4.99 -2.66 5.98 -3 7 C-3 5.68 -3 4.36 -3 3 C-2.01 3 -1.02 3 0 3 C0 2.01 0 1.02 0 0 Z " fill="#1c4571" transform="translate(190,70)"/>
<path d="M0 0 C2 1.375 2 1.375 4 3 C4 3.66 4 4.32 4 5 C2.68 4.67 1.36 4.34 0 4 C-0.33 4.99 -0.66 5.98 -1 7 C-2 4 -2 4 -1.0625 1.8125 C-0.5365625 0.9153125 -0.5365625 0.9153125 0 0 Z " fill="#1c4571" transform="translate(42,37)"/>
<path d="M0 0 C2.02045442 0.60183749 4.02111039 1.27306096 6 2 C6.33 2.66 6.66 3.32 7 4 C6.01 4.99 5.02 5.98 4 7 C3.01 6.01 2.02 5.02 1 4 C1.66 3.67 2.32 3.34 3 3 C2.01 2.01 1.02 1.02 0 0 Z " fill="#1c4571" transform="translate(165,13)"/>
<path d="M0 0 C-0.33 0.66 -0.66 1.32 -1 2 C-3.64 2 -6.28 2 -9 2 C-9.33 1.34 -9.66 0.68 -10 0 C-6.30458414 -0.95024979 -3.69541586 -0.95024979 0 0 Z " fill="#1c4571" transform="translate(108,223)"/>
<path d="M0 0 C1.65 0.33 3.3 0.66 5 1 C4.67 1.99 4.34 2.98 4 4 C1.4375 5.1875 1.4375 5.1875 -1 6 C-1.33 5.01 -1.66 4.02 -2 3 C-1.01 3 -0.02 3 1 3 C0.67 2.01 0.34 1.02 0 0 Z " fill="#1c4571" transform="translate(92,120)"/>
<path d="M0 0 C0.7425 0.350625 1.485 0.70125 2.25 1.0625 C5.1322726 2.04509293 6.21176345 2.0326802 9 1 C8.67 1.66 8.34 2.32 8 3 C7.34 3 6.68 3 6 3 C6 3.66 6 4.32 6 5 C4.35 5 2.7 5 1 5 C0.67 3.35 0.34 1.7 0 0 Z " fill="#1c4571" transform="translate(108,80)"/>
<path d="M0 0 C6.75 -0.125 6.75 -0.125 9 1 C9 1.66 9 2.32 9 3 C6.03 2.67 3.06 2.34 0 2 C0 1.34 0 0.68 0 0 Z " fill="#1c4571" transform="translate(83,71)"/>
<path d="M0 0 C0 2.83967231 -0.40267181 5.23735711 -1 8 C-1.99 7.34 -2.98 6.68 -4 6 C-2.84826645 3.53199953 -1.95216435 1.95216435 0 0 Z " fill="#1c4571" transform="translate(184,35)"/>
<path d="M0 0 C0 1.65 0 3.3 0 5 C-0.99 5.33 -1.98 5.66 -3 6 C-3.66 5.34 -4.32 4.68 -5 4 C-4.67 3.67 -4.34 3.34 -4 3 C-4.99 2.67 -5.98 2.34 -7 2 C-2.25 0 -2.25 0 0 0 Z " fill="#1c4571" transform="translate(76,7)"/>
<path d="M0 0 C2.625 0.375 2.625 0.375 5 1 C4.67 1.99 4.34 2.98 4 4 C3.01 4.33 2.02 4.66 1 5 C0.01 4.01 -0.98 3.02 -2 2 C-1.34 1.34 -0.68 0.68 0 0 Z " fill="#1c4571" transform="translate(155,210)"/>
<path d="M0 0 C0.99 0.33 1.98 0.66 3 1 C2.67 1.99 2.34 2.98 2 4 C-0.31 4.33 -2.62 4.66 -5 5 C-5 4.01 -5 3.02 -5 2 C-3.68 2 -2.36 2 -1 2 C-0.67 1.34 -0.34 0.68 0 0 Z " fill="#1c4571" transform="translate(163,92)"/>
<path d="M0 0 C2.875 0.1875 2.875 0.1875 6 1 C7.375 3.5625 7.375 3.5625 8 6 C6.0625 5.6875 6.0625 5.6875 4 5 C3.67 4.01 3.34 3.02 3 2 C2.01 1.34 1.02 0.68 0 0 Z " fill="#1c4571" transform="translate(86,83)"/>
<path d="M0 0 C0.99 0.33 1.98 0.66 3 1 C2.67 2.32 2.34 3.64 2 5 C0.68 4.67 -0.64 4.34 -2 4 C-1.34 2.68 -0.68 1.36 0 0 Z " fill="#1c4571" transform="translate(51,17)"/>
<path d="M0 0 C-3.13498292 1.85776765 -5.37471432 2.20140476 -9 2 C-8.67 1.01 -8.34 0.02 -8 -1 C-4.37673261 -2.2077558 -3.35853631 -1.54311128 0 0 Z " fill="#1c4571" transform="translate(165,210)"/>
<path d="M0 0 C2.475 0.495 2.475 0.495 5 1 C5 1.99 5 2.98 5 4 C3.35 3.67 1.7 3.34 0 3 C0 2.01 0 1.02 0 0 Z " fill="#1c4571" transform="translate(89,195)"/>
<path d="M0 0 C-0.375 1.9375 -0.375 1.9375 -1 4 C-1.99 4.495 -1.99 4.495 -3 5 C-3.66 4.67 -4.32 4.34 -5 4 C-5 3.01 -5 2.02 -5 1 C-2 0 -2 0 0 0 Z " fill="#1c4571" transform="translate(122,166)"/>
<path d="M0 0 C0.66 0 1.32 0 2 0 C3.25664978 2.90600261 4 4.79604584 4 8 C3.34 8 2.68 8 2 8 C0.74335022 5.09399739 0 3.20395416 0 0 Z " fill="#1c4571" transform="translate(217,74)"/>
<path d="M0 0 C0 0.66 0 1.32 0 2 C-3.96 3.98 -3.96 3.98 -8 6 C-8 5.01 -8 4.02 -8 3 C-2.25 0 -2.25 0 0 0 Z " fill="#1c4571" transform="translate(67,73)"/>
<path d="M0 0 C3.57104439 1.87949705 5.54744301 3.17053157 7 7 C4.13302508 5.71480435 2.02392288 4.42870746 0 2 C0 1.34 0 0.68 0 0 Z " fill="#1c4571" transform="translate(198,41)"/>
<path d="M0 0 C1.98 0.66 3.96 1.32 6 2 C5.67 2.66 5.34 3.32 5 4 C2.4375 4.625 2.4375 4.625 0 5 C0 3.35 0 1.7 0 0 Z " fill="#1c4571" transform="translate(78,4)"/>
</svg>
