<?xml version="1.0" encoding="UTF-8"?>
<svg version="1.1" xmlns="http://www.w3.org/2000/svg" viewBox="0 0 200 200">
<path d="M0 0 C0.99 0.33 1.98 0.66 3 1 C2.57092474 4.4326021 1.55121862 6.904047 -0.125 9.875 C-2.2319711 13.89117596 -2.15597706 16.55393438 -1 21 C-0.67 21.66 -0.34 22.32 0 23 C2.35084834 22.61328982 3.67969817 22.32651409 5.37207031 20.60131836 C5.77006836 20.02003174 6.16806641 19.43874512 6.578125 18.83984375 C7.01640625 18.21142578 7.4546875 17.58300781 7.90625 16.93554688 C8.57140625 15.94651367 8.57140625 15.94651367 9.25 14.9375 C9.93835938 13.94266602 9.93835938 13.94266602 10.640625 12.92773438 C11.77035676 11.29197693 12.88651173 9.64685766 14 8 C12.68 8 11.36 8 10 8 C10 7.01 10 6.02 10 5 C11.57725347 4.29866401 13.16211333 3.614417 14.75 2.9375 C15.63171875 2.55464844 16.5134375 2.17179687 17.421875 1.77734375 C20 1 20 1 24 2 C24 5.96 24 9.92 24 14 C21.66666667 14 19.33333333 14 17 14 C14.92613659 16.03084531 14.92613659 16.03084531 13.0625 18.6875 C6.00089359 27.93702528 6.00089359 27.93702528 2 30.0625 C-1.27337863 29.96020692 -2.75387917 28.24612083 -5 26 C-5.64453125 23.85546875 -5.64453125 23.85546875 -6 22 C-6.55429688 22.42152344 -7.10859375 22.84304687 -7.6796875 23.27734375 C-8.40414062 23.82519531 -9.12859375 24.37304688 -9.875 24.9375 C-10.59429687 25.48277344 -11.31359375 26.02804688 -12.0546875 26.58984375 C-15.50848705 29.09350166 -17.72697732 29.41892379 -22 29 C-26.30191032 26.59893378 -28.08748687 23.70358137 -29.55078125 19.14453125 C-30.31098221 15.51539795 -30.28276989 12.4997309 -29 9 C-26.83829894 5.74488038 -24.53303988 2.76651994 -21 1 C-13.25480397 0.4154569 -9.77026797 3.21892083 -4 8 C-3.896875 7.236875 -3.79375 6.47375 -3.6875 5.6875 C-2.95635961 2.82940576 -2.23048087 1.84257115 0 0 Z M-22.875 7.5625 C-24.9462725 12.05025709 -25.36451503 15.66344489 -24.0625 20.4375 C-23.711875 21.283125 -23.36125 22.12875 -23 23 C-19.73723433 23.86013727 -19.73723433 23.86013727 -16 24 C-12.72938803 21.96495255 -11.13896624 20.20844935 -9 17 C-9.1383147 13.19634586 -9.50084531 10.74873203 -11.625 7.5625 C-15.37368118 5.09626238 -19.28942857 4.57452381 -22.875 7.5625 Z " fill="#1c4571" transform="translate(155,101)"/>
<path d="M0 0 C4.05097463 3.5906366 6.48081691 7.25575584 6.9453125 12.74609375 C6.62528302 18.32778446 4.95640116 21.59687286 0.75 25.4375 C-4.17648932 28.43203272 -8.21739091 28.91206444 -13.80859375 28.15234375 C-17.80830323 26.98122881 -20.63966888 24.64653092 -23.25 21.4375 C-25.19892318 15.59073045 -25.24344445 9.49797738 -22.5625 3.9375 C-16.08328396 -3.06705788 -8.51822088 -4.0952985 0 0 Z M-15.25 7.4375 C-17.16399936 9.96049916 -17.25400861 11.24508679 -17.1875 14.4375 C-15.98875891 18.2734715 -14.74787086 19.49423841 -11.25 21.4375 C-8.08487639 21.37419753 -6.12602739 20.98124114 -3.4375 19.3125 C-1.55222823 16.3357551 -1.31028844 13.93422962 -1.25 10.4375 C-3.04878158 7.25504028 -4.30109581 5.82679403 -7.6875 4.4375 C-11.07408012 4.4375 -12.60281804 5.36268171 -15.25 7.4375 Z " fill="#1c4571" transform="translate(72.25,61.5625)"/>
<path d="M0 0 C3.63117909 2.1800829 6.20245896 4.77045757 8.5 8.3125 C9.40677994 13.18644217 9.36187682 17.72014925 6.765625 22.06640625 C3.97665911 25.50948528 1.43883081 28.0256225 -3 29 C-8.27050976 29.47913725 -11.44344746 28.66725027 -16 26 C-16 29.63 -16 33.26 -16 37 C-17.65 37 -19.3 37 -21 37 C-21 25.12 -21 13.24 -21 1 C-19.68 0.67 -18.36 0.34 -17 0 C-16.34 0.66 -15.68 1.32 -15 2 C-14.195625 1.484375 -13.39125 0.96875 -12.5625 0.4375 C-7.98631657 -1.40903016 -4.70230327 -1.47763349 0 0 Z M-14 7 C-16.39356965 10.15515999 -16.32237768 13.13146779 -16 17 C-15.07822673 20.22620643 -14.09842917 20.93512623 -11.25 22.8125 C-7.46726177 24.19465435 -5.79944684 24.29342871 -2 23 C0.80732192 20.98605167 2.62383309 19.50163404 3.484375 16.06640625 C3.75584234 12.07734443 3.26721708 10.36938832 0.875 7.0625 C-4.59768315 3.1364447 -8.40266733 3.31084892 -14 7 Z " fill="#1c4571" transform="translate(86,102)"/>
<path d="M0 0 C2.4773874 0.37655207 2.4773874 0.37655207 6.18359375 0.2890625 C8.65859375 0.7840625 8.65859375 0.7840625 11.18359375 1.2890625 C11.18359375 9.8690625 11.18359375 18.4490625 11.18359375 27.2890625 C9.53359375 27.6190625 7.88359375 27.9490625 6.18359375 28.2890625 C6.18359375 27.6290625 6.18359375 26.9690625 6.18359375 26.2890625 C5.21421875 26.8046875 4.24484375 27.3203125 3.24609375 27.8515625 C-1.26673512 29.75697913 -5.13961149 29.65003452 -9.81640625 28.2890625 C-14.09231468 26.10648305 -17.02003671 23.82156898 -18.81640625 19.2890625 C-19.67354903 14.82888593 -19.77323016 10.9124379 -17.42578125 6.9296875 C-12.0671321 0.54590547 -8.19122665 -1.22087607 0 0 Z M-10.81640625 7.2890625 C-13.38240581 10.36826197 -13.8248661 11.80685129 -13.75390625 15.8515625 C-12.71271856 19.66925068 -12.06515879 21.06623181 -8.81640625 23.2890625 C-4.51774499 24.56273991 -2.58619717 24.65217142 1.49609375 22.7265625 C4.61502422 19.89776509 5.61154856 18.45682031 6.18359375 14.2890625 C4.97741609 9.84128237 4.08510276 7.87128707 0.18359375 5.3515625 C-4.63666699 3.64438682 -6.76595508 4.3524854 -10.81640625 7.2890625 Z " fill="#1c4571" transform="translate(39.81640625,101.7109375)"/>
<path d="M0 0 C3.625 1.5 3.625 1.5 6 3 C3.25 7.875 3.25 7.875 1 9 C-1.34406932 8.37212429 -3.67793475 7.70491267 -6 7 C-6.66 7 -7.32 7 -8 7 C-5.72517037 9.5810567 -3.7000186 10.66965966 -0.5 11.875 C2.49869557 13.16434142 3.90942503 13.89876915 6.125 16.375 C7.25155469 19.75466408 7.08140004 21.61161322 6 25 C4.31743575 27.59395321 2.9990592 28.71286881 0.015625 29.5703125 C-5.7924768 30.51162555 -9.74561154 29.5811031 -15 27 C-15.66 26.01 -16.32 25.02 -17 24 C-16.01 22.68 -15.02 21.36 -14 20 C-12.9790625 20.2165625 -12.9790625 20.2165625 -11.9375 20.4375 C-8.63726918 21.06945909 -5.32855574 21.54313941 -2 22 C-2 21.34 -2 20.68 -2 20 C-2.84304687 19.68546875 -3.68609375 19.3709375 -4.5546875 19.046875 C-5.65039062 18.61890625 -6.74609375 18.1909375 -7.875 17.75 C-8.96554688 17.33234375 -10.05609375 16.9146875 -11.1796875 16.484375 C-14 15 -14 15 -15.38671875 13.046875 C-16.38437166 9.71712899 -15.89022093 7.32349148 -15 4 C-11.0189507 -1.00841686 -5.92449009 -0.82205843 0 0 Z " fill="#1c4571" transform="translate(38,60)"/>
<path d="M0 0 C0.94875 0.04125 1.8975 0.0825 2.875 0.125 C6.19849889 6.55985956 9.36440359 13.04521667 12.25 19.6875 C13.00410156 21.42193359 13.00410156 21.42193359 13.7734375 23.19140625 C14.875 26.125 14.875 26.125 14.875 29.125 C11.5625 29.4375 11.5625 29.4375 7.875 29.125 C7.4625 28.320625 7.05 27.51625 6.625 26.6875 C5.12914648 23.86333547 5.12914648 23.86333547 2.25390625 23.5703125 C-0.54368323 23.33510116 -3.31832634 23.17741666 -6.125 23.125 C-6.785 25.105 -7.445 27.085 -8.125 29.125 C-10.435 29.125 -12.745 29.125 -15.125 29.125 C-14.13409642 23.38652717 -11.89868574 18.2976357 -9.6875 12.9375 C-9.27951172 11.92751953 -8.87152344 10.91753906 -8.45117188 9.87695312 C-8.05607422 8.91337891 -7.66097656 7.94980469 -7.25390625 6.95703125 C-6.89369385 6.07764893 -6.53348145 5.1982666 -6.16235352 4.29223633 C-4.53566381 0.89376034 -3.84220063 0.15368803 0 0 Z M-1.125 10.125 C-1.785 12.105 -2.445 14.085 -3.125 16.125 C-1.475 16.125 0.175 16.125 1.875 16.125 C1.53055119 13.65233235 1.53055119 13.65233235 0.875 11.125 C0.215 10.795 -0.445 10.465 -1.125 10.125 Z " fill="#1c4571" transform="translate(139.125,59.875)"/>
<path d="M0 0 C1.32 0 2.64 0 4 0 C5.60725635 3.21451269 5.05748185 6.43612536 5 10 C5.680625 9.649375 6.36125 9.29875 7.0625 8.9375 C10.88334216 7.71808229 13.12491307 7.98024028 17 9 C21.78470857 12.15971321 23.62050114 14.50125339 25 20 C25.21803598 22.79933404 25.19095174 25.56951435 25.125 28.375 C25.11597656 29.11105469 25.10695313 29.84710938 25.09765625 30.60546875 C25.07430144 32.4037888 25.03843836 34.20193911 25 36 C23.34385343 36.38218767 21.67542976 36.71395102 20 37 C17.67418956 34.67418956 18.64290142 27.94718655 18.5703125 24.61328125 C18.539375 23.81535156 18.5084375 23.01742187 18.4765625 22.1953125 C18.45674316 21.46328613 18.43692383 20.73125977 18.41650391 19.97705078 C17.88803509 17.46852765 16.98646866 16.57757773 15 15 C12.58333333 14.08333333 12.58333333 14.08333333 10 14 C8.02 14.99 8.02 14.99 6 16 C5.67 22.6 5.34 29.2 5 36 C2.525 36.495 2.525 36.495 0 37 C-1.76072584 35.23927416 -1.12834784 32.9210371 -1.13894653 30.5760498 C-1.1369223 29.81876587 -1.13489807 29.06148193 -1.1328125 28.28125 C-1.13376923 27.50817505 -1.13472595 26.7351001 -1.13571167 25.93859863 C-1.13639341 24.30102456 -1.13453957 22.66344781 -1.13037109 21.02587891 C-1.12502271 18.51068079 -1.13031626 15.99566127 -1.13671875 13.48046875 C-1.13605797 11.89322877 -1.1347768 10.3059889 -1.1328125 8.71875 C-1.13483673 7.96146606 -1.13686096 7.20418213 -1.13894653 6.4239502 C-1.11495132 1.11495132 -1.11495132 1.11495132 0 0 Z " fill="#1c4571" transform="translate(99,93)"/>
<path d="M0 0 C0.99 0.7115625 0.99 0.7115625 2 1.4375 C1.42655063 4.30474686 1.1385485 5.2989515 -1 7.4375 C-3.47368244 7.11201547 -5.66472002 6.56322999 -8 5.6875 C-10.16553251 5.25425183 -10.16553251 5.25425183 -12.6875 6.5 C-15.22369034 8.28840856 -15.22369034 8.28840856 -16 11.3125 C-16 15.08025568 -15.4970475 16.61825282 -13 19.4375 C-9.78145999 20.46469362 -7.94941302 20.8443913 -4.8125 19.5 C-4.214375 19.149375 -3.61625 18.79875 -3 18.4375 C-2.01 18.4375 -1.02 18.4375 0 18.4375 C2 21.4375 2 21.4375 1.84375 23.51171875 C1 25.4375 1 25.4375 -2.5 27.25 C-7.1670036 28.75279186 -11.3110451 28.97252459 -16 27.4375 C-19.86133169 25.01965679 -22.54419487 22.80491539 -24 18.4375 C-24.58983965 13.14579569 -24.94711808 8.06585993 -22 3.4375 C-16.19860059 -3.36075959 -7.69758083 -4.00915668 0 0 Z " fill="#1c4571" transform="translate(106,61.5625)"/>
<path d="M0 0 C1.99954746 -0.04254356 4.00041636 -0.04080783 6 0 C7 1 7 1 7.11352539 3.04125977 C7.10828857 3.91580811 7.10305176 4.79035645 7.09765625 5.69140625 C7.09443359 6.63564453 7.09121094 7.57988281 7.08789062 8.55273438 C7.07951172 9.54595703 7.07113281 10.53917969 7.0625 11.5625 C7.05798828 12.55958984 7.05347656 13.55667969 7.04882812 14.58398438 C7.03700007 17.05604849 7.02051849 19.52799518 7 22 C8.39025391 21.98259766 8.39025391 21.98259766 9.80859375 21.96484375 C11.00613281 21.95582031 12.20367187 21.94679688 13.4375 21.9375 C14.63246094 21.92589844 15.82742187 21.91429688 17.05859375 21.90234375 C20 22 20 22 21 23 C21 24.98 21 26.96 21 29 C14.07 29 7.14 29 0 29 C-0.1939619 24.54186025 -0.38046929 20.08362883 -0.5625 15.625 C-0.61857422 14.35398437 -0.67464844 13.08296875 -0.73242188 11.7734375 C-0.80493164 9.95585938 -0.80493164 9.95585938 -0.87890625 8.1015625 C-0.9260376 6.98088379 -0.97316895 5.86020508 -1.02172852 4.70556641 C-1 2 -1 2 0 0 Z " fill="#1c4571" transform="translate(158,60)"/>
<path d="M0 0 C0.94875 0.04125 1.8975 0.0825 2.875 0.125 C6.19849889 6.55985956 9.36440359 13.04521667 12.25 19.6875 C13.00410156 21.42193359 13.00410156 21.42193359 13.7734375 23.19140625 C14.875 26.125 14.875 26.125 14.875 29.125 C11.5625 29.4375 11.5625 29.4375 7.875 29.125 C7.4625 28.320625 7.05 27.51625 6.625 26.6875 C5.12914648 23.86333547 5.12914648 23.86333547 2.25390625 23.5703125 C-0.54368323 23.33510116 -3.31832634 23.17741666 -6.125 23.125 C-6.785 25.105 -7.445 27.085 -8.125 29.125 C-10.435 29.125 -12.745 29.125 -15.125 29.125 C-14.13409642 23.38652717 -11.89868574 18.2976357 -9.6875 12.9375 C-9.27951172 11.92751953 -8.87152344 10.91753906 -8.45117188 9.87695312 C-8.05607422 8.91337891 -7.66097656 7.94980469 -7.25390625 6.95703125 C-6.89369385 6.07764893 -6.53348145 5.1982666 -6.16235352 4.29223633 C-4.53566381 0.89376034 -3.84220063 0.15368803 0 0 Z M-2.125 2.125 C-2.39054688 2.72828125 -2.65609375 3.3315625 -2.9296875 3.953125 C-3.45949219 5.15195313 -3.45949219 5.15195313 -4 6.375 C-4.34804687 7.16390625 -4.69609375 7.9528125 -5.0546875 8.765625 C-6.32972532 11.57629231 -7.70977071 14.32049325 -9.125 17.0625 C-11.46265333 21.88100049 -11.46265333 21.88100049 -12.125 27.125 C-11.135 27.125 -10.145 27.125 -9.125 27.125 C-9.125 25.475 -9.125 23.825 -9.125 22.125 C-7.454375 22.00125 -7.454375 22.00125 -5.75 21.875 C-2.06746056 21.54626213 -2.06746056 21.54626213 -0.6875 19.0625 C-0.501875 18.423125 -0.31625 17.78375 -0.125 17.125 C0.535 17.455 1.195 17.785 1.875 18.125 C1.545 19.115 1.215 20.105 0.875 21.125 C2.855 21.455 4.835 21.785 6.875 22.125 C7.205 23.445 7.535 24.765 7.875 26.125 C9.195 26.455 10.515 26.785 11.875 27.125 C11.875 26.135 11.875 25.145 11.875 24.125 C11.215 24.125 10.555 24.125 9.875 24.125 C9.875 22.475 9.875 20.825 9.875 19.125 C9.215 19.125 8.555 19.125 7.875 19.125 C7.813125 18.17625 7.75125 17.2275 7.6875 16.25 C6.98328237 11.05372751 4.35450619 6.67228625 1.875 2.125 C0.555 2.125 -0.765 2.125 -2.125 2.125 Z " fill="#1c4571" transform="translate(139.125,59.875)"/>
<path d="M0 0 C1.32 0 2.64 0 4 0 C4.73823639 4.62259142 5.12811512 9.05868258 5.1328125 13.73828125 C5.13474609 15.58583008 5.13474609 15.58583008 5.13671875 17.47070312 C5.13285156 18.73849609 5.12898438 20.00628906 5.125 21.3125 C5.12886719 22.59962891 5.13273437 23.88675781 5.13671875 25.21289062 C5.13542969 26.43814453 5.13414063 27.66339844 5.1328125 28.92578125 C5.13168457 30.04380127 5.13055664 31.16182129 5.12939453 32.3137207 C5 35 5 35 4 37 C2.35 36.67 0.7 36.34 -1 36 C-1.02465098 31.03377651 -1.04283649 26.06758834 -1.05493164 21.10131836 C-1.0599719 19.41055684 -1.06680405 17.71979971 -1.07543945 16.02905273 C-1.08751857 13.60399293 -1.09323123 11.17899056 -1.09765625 8.75390625 C-1.10281754 7.99348526 -1.10797882 7.23306427 -1.11329651 6.44960022 C-1.11349238 4.6326743 -1.06197277 2.81586873 -1 1 C-0.67 0.67 -0.34 0.34 0 0 Z " fill="#1c4571" transform="translate(56,93)"/>
<path d="M0 0 C2.31 0 4.62 0 7 0 C7 9.57 7 19.14 7 29 C4.69 29 2.38 29 0 29 C-1.101173 25.69648101 -1.03109831 23.48612828 -0.87890625 20.01953125 C-0.83056641 18.85615234 -0.78222656 17.69277344 -0.73242188 16.49414062 C-0.67634766 15.27919922 -0.62027344 14.06425781 -0.5625 12.8125 C-0.51029297 11.58595703 -0.45808594 10.35941406 -0.40429688 9.09570312 C-0.27451599 6.06354982 -0.13954569 3.03171706 0 0 Z " fill="#1c4571" transform="translate(113,60)"/>
<path d="M0 0 C4.05097463 3.5906366 6.48081691 7.25575584 6.9453125 12.74609375 C6.62528302 18.32778446 4.95640116 21.59687286 0.75 25.4375 C-4.86700267 28.78609774 -9.06719379 28.6011574 -15.25 27.4375 C-15.25 26.7775 -15.25 26.1175 -15.25 25.4375 C-14.44175781 25.41171875 -13.63351563 25.3859375 -12.80078125 25.359375 C-6.14580598 25.06572543 -6.14580598 25.06572543 -0.0625 22.625 C3.10558514 18.80144896 3.04772584 15.347642 2.96484375 10.40234375 C2.63931007 7.42519028 1.68048144 5.70082306 -0.25 3.4375 C-4.63567185 0.64661791 -10.22781218 0.6362628 -15.25 1.4375 C-19.40633291 4.38156915 -21.34828903 7.42799458 -22.25 12.4375 C-21.31398457 17.6791864 -19.33067078 21.22724994 -16.25 25.4375 C-19.25 25.4375 -19.25 25.4375 -21.375 23.625 C-24.86465484 19.55373602 -24.58545822 15.29742198 -24.53125 10.16796875 C-24.13511371 6.32214557 -22.85507679 4.25379923 -20.25 1.4375 C-13.68340585 -3.32328076 -7.26758086 -3.49402926 0 0 Z " fill="#1c4571" transform="translate(72.25,61.5625)"/>
<path d="M0 0 C4.41009611 1.19595827 6.53973415 2.70582643 9.6875 6 C11.81721095 10.86893515 11.93479651 15.17269464 11.8125 20.375 C11.80347656 21.11105469 11.79445313 21.84710938 11.78515625 22.60546875 C11.76180144 24.4037888 11.72593836 26.20193911 11.6875 28 C10.03135343 28.38218767 8.36292976 28.71395102 6.6875 29 C4.36168956 26.67418956 5.33040142 19.94718655 5.2578125 16.61328125 C5.226875 15.81535156 5.1959375 15.01742187 5.1640625 14.1953125 C5.14424316 13.46328613 5.12442383 12.73125977 5.10400391 11.97705078 C4.57555128 9.46860451 3.67642445 8.57473976 1.6875 7 C-1.66688475 5.96788161 -3.98505773 5.89085258 -7.3125 7 C-6.9255131 4.75547595 -6.39285336 3.12945819 -5.1875 1.1875 C-3.3125 0 -3.3125 0 0 0 Z " fill="#1c4571" transform="translate(112.3125,101)"/>
<path d="M0 0 C0 3.96 0 7.92 0 12 C-2.33333333 12 -4.66666667 12 -7 12 C-7.33 12.66 -7.66 13.32 -8 14 C-9.66279327 15.0064275 -11.32983484 16.00585407 -13 17 C-14.75149165 18.58245275 -14.75149165 18.58245275 -16 20 C-16.66 19.67 -17.32 19.34 -18 19 C-16.53181332 15.89257577 -14.79975 13.09528261 -12.875 10.25 C-12.33617187 9.45078125 -11.79734375 8.6515625 -11.2421875 7.828125 C-10.62730469 6.92320313 -10.62730469 6.92320313 -10 6 C-11.32 6 -12.64 6 -14 6 C-14 5.01 -14 4.02 -14 3 C-12.42274653 2.29866401 -10.83788667 1.614417 -9.25 0.9375 C-7.92742187 0.36322266 -7.92742187 0.36322266 -6.578125 -0.22265625 C-4 -1 -4 -1 0 0 Z " fill="#1c4571" transform="translate(179,103)"/>
<path d="M0 0 C2 2 2 2 2 5 C1.4328125 4.84144531 0.865625 4.68289062 0.28125 4.51953125 C-4.51034461 3.42829481 -9.23915545 2.96926173 -13.5625 5.5 C-16.31310652 10.2836635 -15.29166406 15.83334375 -14 21 C-11.20251159 21.93249614 -9.45679119 22.13476152 -6.5625 22.125 C-5.80066406 22.12757812 -5.03882812 22.13015625 -4.25390625 22.1328125 C-2.04684141 22.00276015 -0.12030724 21.60856199 2 21 C2 21.99 2 22.98 2 24 C-0.64458379 25.32229189 -2.67761301 25.09677194 -5.625 25.0625 C-6.62789062 25.05347656 -7.63078125 25.04445313 -8.6640625 25.03515625 C-9.43492188 25.02355469 -10.20578125 25.01195313 -11 25 C-11 25.66 -11 26.32 -11 27 C-12.32 26.34 -13.64 25.68 -15 25 C-14.67 24.01 -14.34 23.02 -14 22 C-14.639375 21.80019531 -15.27875 21.60039063 -15.9375 21.39453125 C-18 20 -18 20 -18.75 17.13671875 C-18.8325 15.99847656 -18.915 14.86023438 -19 13.6875 C-19.103125 12.55699219 -19.20625 11.42648438 -19.3125 10.26171875 C-18.9286084 6.25485023 -17.84261163 4.79300235 -15 2 C-10.128117 -1.03362612 -5.55738823 -1.44492094 0 0 Z " fill="#1c4571" transform="translate(103,62)"/>
<path d="M0 0 C1.32 0.33 2.64 0.66 4 1 C4.33 7.27 4.66 13.54 5 20 C9.29 20.33 13.58 20.66 18 21 C18 21.99 18 22.98 18 24 C12.06 24 6.12 24 0 24 C0 16.08 0 8.16 0 0 Z " fill="#1c4571" transform="translate(159,63)"/>
<path d="M0 0 C3.625 1.5 3.625 1.5 6 3 C3.25 7.875 3.25 7.875 1 9 C-1.34406932 8.37212429 -3.67793475 7.70491267 -6 7 C-6.66 7 -7.32 7 -8 7 C-8.33 8.32 -8.66 9.64 -9 11 C-9.33 9.35 -9.66 7.7 -10 6 C-7.75487738 4.87743869 -6.48543351 4.86586238 -4 4.875 C-2.948125 4.87113281 -2.948125 4.87113281 -1.875 4.8671875 C0 5 0 5 2 6 C2 5.01 2 4.02 2 3 C0.22950311 2.94589313 -1.54146849 2.90715881 -3.3125 2.875 C-4.29863281 2.85179687 -5.28476562 2.82859375 -6.30078125 2.8046875 C-9.22406527 2.79317361 -9.22406527 2.79317361 -12 5 C-12.57748803 6.96361864 -12.57748803 6.96361864 -12.6875 9.125 C-12.790625 10.40375 -12.89375 11.6825 -13 13 C-12.40832031 13.18175781 -11.81664062 13.36351563 -11.20703125 13.55078125 C-6.787492 14.95667057 -2.87459875 16.37527181 1 19 C0.67 19.99 0.34 20.98 0 22 C0 21.34 0 20.68 0 20 C-0.66386719 19.81824219 -1.32773437 19.63648437 -2.01171875 19.44921875 C-12.1678721 16.55805101 -12.1678721 16.55805101 -15 14 C-16.16365451 10.07266603 -16.42535748 7.95705433 -14.75 4.1875 C-10.62482887 -0.96896392 -6.11772459 -0.65445426 0 0 Z " fill="#1c4571" transform="translate(38,60)"/>
<path d="M0 0 C3.35760377 0.27223814 4.64317461 0.58370371 6.875 3.1875 C8.28003423 6.70008557 8.1453424 8.41126048 7 12 C5.31743575 14.59395321 3.9990592 15.71286881 1.015625 16.5703125 C-4.7924768 17.51162555 -8.74561154 16.5811031 -14 14 C-14.66 13.01 -15.32 12.02 -16 11 C-15.01 9.68 -14.02 8.36 -13 7 C-8.31261335 7.90723613 -3.65806256 8.9547267 1 10 C-1 12 -1 12 -2.9453125 12.1953125 C-4.96354167 12.13020833 -6.98177083 12.06510417 -9 12 C-9 11.34 -9 10.68 -9 10 C-9.99 10 -10.98 10 -12 10 C-12 10.66 -12 11.32 -12 12 C-11.34 12 -10.68 12 -10 12 C-10 12.66 -10 13.32 -10 14 C-4.80790596 14.21192221 -0.873261 13.5912689 4 12 C4.94271002 8.74360341 4.94271002 8.74360341 5 5 C2.70800597 2.03949126 2.70800597 2.03949126 0 0 Z " fill="#1c4571" transform="translate(37,73)"/>
<path d="M0 0 C1.58246707 -0.08153933 3.16616273 -0.13943557 4.75 -0.1875 C6.07257812 -0.23970703 6.07257812 -0.23970703 7.421875 -0.29296875 C10.47610949 0.05410335 11.80564299 0.88254802 14 3 C14 3.66 14 4.32 14 5 C14.66 5 15.32 5 16 5 C16.28571429 13.57142857 16.28571429 13.57142857 14 17 C13.34 17 12.68 17 12 17 C12.10699219 16.32453125 12.21398437 15.6490625 12.32421875 14.953125 C12.44410156 14.06109375 12.56398438 13.1690625 12.6875 12.25 C12.81511719 11.36828125 12.94273438 10.4865625 13.07421875 9.578125 C12.98273158 6.4001497 12.17982389 5.26150347 10 3 C6.83762158 1.75169273 5.45462458 1.83468197 2.25 3 C-0.28449727 4.91793348 -0.28449727 4.91793348 -1.125 8.375 C-1.33879043 12.10934878 -1.33879043 12.10934878 1.125 14.875 C3.94505304 16.95938703 5.55519195 17.70473074 9 18 C8.67 18.66 8.34 19.32 8 20 C4.40048059 20.1999733 1.99348295 20.09543806 -1 18 C-4.51021815 13.73759225 -4.2684272 10.27906825 -4 5 C-3.34 5 -2.68 5 -2 5 C-1.34 3.35 -0.68 1.7 0 0 Z " fill="#1c4571" transform="translate(57,65)"/>
<path d="M0 0 C0.99 0.33 1.98 0.66 3 1 C4.8621508 5.7300622 5.25833731 10.96242242 5 16 C3.34385343 16.38218767 1.67542976 16.71395102 0 17 C-1 16 -1 16 -1.1328125 13.41796875 C-1.13023438 12.35191406 -1.12765625 11.28585938 -1.125 10.1875 C-1.12757812 9.12917969 -1.13015625 8.07085937 -1.1328125 6.98046875 C-1.02063661 4.46310983 -0.7309121 2.39576745 0 0 Z " fill="#1c4571" transform="translate(119,113)"/>
<path d="M0 0 C0.99 0 1.98 0 3 0 C3 8.25 3 16.5 3 25 C2.01 25 1.02 25 0 25 C0 16.75 0 8.5 0 0 Z " fill="#1c4571" transform="translate(115,62)"/>
<path d="M0 0 C1.32 0 2.64 0 4 0 C4.33 4.29 4.66 8.58 5 13 C2 13 2 13 -1 12 C-1.02687279 10.18757948 -1.04633715 8.37504767 -1.0625 6.5625 C-1.07410156 5.55316406 -1.08570312 4.54382813 -1.09765625 3.50390625 C-1 1 -1 1 0 0 Z " fill="#1c4571" transform="translate(99,93)"/>
<path d="M0 0 C1.99954746 -0.04254356 4.00041636 -0.04080783 6 0 C7 1 7 1 7.11352539 3.04125977 C7.10828857 3.91580811 7.10305176 4.79035645 7.09765625 5.69140625 C7.09443359 6.63564453 7.09121094 7.57988281 7.08789062 8.55273438 C7.07951172 9.54595703 7.07113281 10.53917969 7.0625 11.5625 C7.05798828 12.55958984 7.05347656 13.55667969 7.04882812 14.58398438 C7.03700007 17.05604849 7.02051849 19.52799518 7 22 C6.34 22 5.68 22 5 22 C4.67 16.06 4.34 10.12 4 4 C2.35 3.67 0.7 3.34 -1 3 C-0.67 2.01 -0.34 1.02 0 0 Z " fill="#1c4571" transform="translate(158,60)"/>
<path d="M0 0 C0.33 0 0.66 0 1 0 C1.33 1.98 1.66 3.96 2 6 C2.66 5.34 3.32 4.68 4 4 C4.93619813 7.15506142 5.1057123 9.96586502 5.0625 13.25 C5.05347656 14.14203125 5.04445313 15.0340625 5.03515625 15.953125 C5.02355469 16.62859375 5.01195313 17.3040625 5 18 C3.35 17.67 1.7 17.34 0 17 C0 11.39 0 5.78 0 0 Z " fill="#1c4571" transform="translate(98,112)"/>
<path d="M0 0 C5.35294118 4.94117647 5.35294118 4.94117647 6 9 C6.06624507 10.74886981 6.08552595 12.50002748 6.0625 14.25 C6.05347656 15.14203125 6.04445313 16.0340625 6.03515625 16.953125 C6.02355469 17.62859375 6.01195313 18.3040625 6 19 C3.70986347 15.5647952 3.82157027 14.014669 4 10 C3.34 10 2.68 10 2 10 C1.34 10.99 0.68 11.98 0 13 C-0.07427838 9.65747276 -0.06546953 7.1964086 1 4 C0.34 3.34 -0.32 2.68 -1 2 C-0.67 1.34 -0.34 0.68 0 0 Z " fill="#1c4571" transform="translate(118,104)"/>
<path d="M0 0 C0.66 0.515625 1.32 1.03125 2 1.5625 C2 2.2225 2 2.8825 2 3.5625 C-0.36014906 3.01785022 -2.35061559 2.40001961 -4.5625 1.375 C-9.61302335 0.18123994 -14.00965314 1.4081493 -19 2.5625 C-19 1.9025 -19 1.2425 -19 0.5625 C-11.98390744 -2.56968418 -7.22539884 -3.46217028 0 0 Z " fill="#1c4571" transform="translate(106,61.4375)"/>
<path d="M0 0 C-0.66 1.65 -1.32 3.3 -2 5 C-4.31 5.33 -6.62 5.66 -9 6 C-9 7.65 -9 9.3 -9 11 C-9.99 11 -10.98 11 -12 11 C-10.19178082 2.8630137 -10.19178082 2.8630137 -7.1875 0.6875 C-4.68810383 -0.09802451 -2.60506718 -0.14472595 0 0 Z " fill="#1c4571" transform="translate(139,76)"/>
<path d="M0 0 C0.66 0.33 1.32 0.66 2 1 C0.76238177 2.65516419 -0.49057455 4.29886798 -1.75 5.9375 C-2.44609375 6.85402344 -3.1421875 7.77054687 -3.859375 8.71484375 C-6.01029035 11.01098513 -6.93617261 11.67567593 -10 12 C-10.36923077 7.44615385 -10.36923077 7.44615385 -8.5 5.1875 C-7.7575 4.5996875 -7.7575 4.5996875 -7 4 C-6.01 4.33 -5.02 4.66 -4 5 C-2.68 3.35 -1.36 1.7 0 0 Z " fill="#1c4571" transform="translate(168,117)"/>
<path d="M0 0 C0.33 0.66 0.66 1.32 1 2 C2.65 2 4.3 2 6 2 C6 3.32 6 4.64 6 6 C4.7625 6.144375 3.525 6.28875 2.25 6.4375 C-0.56504499 6.78688502 -3.2701497 7.20379366 -6 8 C-6 6 -6 6 -4.125 3.875 C-2 2 -2 2 0 2 C0 1.34 0 0.68 0 0 Z " fill="#1c4571" transform="translate(77,101)"/>
<path d="M0 0 C0.66 0 1.32 0 2 0 C0.25 3.875 0.25 3.875 -2 5 C-4.34406932 4.37212429 -6.67793475 3.70491267 -9 3 C-9.66 3 -10.32 3 -11 3 C-11.33 4.32 -11.66 5.64 -12 7 C-12.33 5.35 -12.66 3.7 -13 2 C-9.85658007 0.42829004 -6.44228549 0.76824217 -3 1 C-2.01 1.33 -1.02 1.66 0 2 C0 1.34 0 0.68 0 0 Z " fill="#1c4571" transform="translate(41,64)"/>
<path d="M0 0 C1.45823212 -0.0270043 2.91660675 -0.04639787 4.375 -0.0625 C5.18710937 -0.07410156 5.99921875 -0.08570313 6.8359375 -0.09765625 C9 0 9 0 11 1 C11 1.99 11 2.98 11 4 C7.04 3.67 3.08 3.34 -1 3 C-0.67 2.01 -0.34 1.02 0 0 Z " fill="#1c4571" transform="translate(29,62)"/>
<path d="M0 0 C0.99 0.33 1.98 0.66 3 1 C2.39254603 5.85963179 0.27241033 9.7405518 -2 14 C-2.66 14 -3.32 14 -4 14 C-2.95014723 10.10054686 -1.80047407 6.60094814 0 3 C0 2.01 0 1.02 0 0 Z " fill="#1c4571" transform="translate(155,101)"/>
<path d="M0 0 C0.33 0 0.66 0 1 0 C1 2.64 1 5.28 1 8 C2.65 7.67 4.3 7.34 6 7 C4.35 9.97 2.7 12.94 1 16 C0.34 15.67 -0.32 15.34 -1 15 C-0.835 14.195625 -0.67 13.39125 -0.5 12.5625 C0.09247348 8.34112648 0.08506709 4.25335455 0 0 Z " fill="#1c4571" transform="translate(103,95)"/>
<path d="M0 0 C0.33 0 0.66 0 1 0 C1 1.98 1 3.96 1 6 C-5.27 5.67 -11.54 5.34 -18 5 C-18 4.67 -18 4.34 -18 4 C-12.39 4 -6.78 4 -1 4 C-0.67 2.68 -0.34 1.36 0 0 Z " fill="#1c4571" transform="translate(178,83)"/>
<path d="M0 0 C0.66 0 1.32 0 2 0 C3.25 7.625 3.25 7.625 1 11 C0.34 11 -0.32 11 -1 11 C-0.67 7.37 -0.34 3.74 0 0 Z " fill="#1c4571" transform="translate(76,69)"/>
<path d="M0 0 C3.44165321 0.35299007 5.06872538 1.04581692 8 3 C8 3.66 8 4.32 8 5 C4.58978257 4.21302675 1.31114834 3.12880057 -2 2 C-1.34 1.34 -0.68 0.68 0 0 Z " fill="#1c4571" transform="translate(100,60)"/>
<path d="M0 0 C0 0.33 0 0.66 0 1 C-5.445 2.485 -5.445 2.485 -11 4 C-10.67 3.01 -10.34 2.02 -10 1 C-6.78548731 -0.60725635 -3.56387464 -0.05748185 0 0 Z " fill="#1c4571" transform="translate(36,60)"/>
<path d="M0 0 C2.0625 0.4375 2.0625 0.4375 4 1 C4 2.65 4 4.3 4 6 C2.0625 5.1875 2.0625 5.1875 0 4 C-0.33 3.01 -0.66 2.02 -1 1 C-0.67 0.67 -0.34 0.34 0 0 Z " fill="#1c4571" transform="translate(127,109)"/>
<path d="M0 0 C2.97 0.99 5.94 1.98 9 3 C8.01 3.66 7.02 4.32 6 5 C2.8125 4.125 2.8125 4.125 0 3 C0 2.01 0 1.02 0 0 Z " fill="#1c4571" transform="translate(30,69)"/>
<path d="M0 0 C0.66 0 1.32 0 2 0 C3.38938077 1.96147874 4.7260411 3.96166576 6 6 C3 6 3 6 1.3125 4.6875 C0 3 0 3 0 0 Z " fill="#1c4571" transform="translate(50,81)"/>
<path d="M0 0 C1 3 1 3 -0.3125 5.6875 C-0.869375 6.450625 -1.42625 7.21375 -2 8 C-2.66 8 -3.32 8 -4 8 C-2.87548273 5.0280615 -1.77706209 2.66559313 0 0 Z " fill="#1c4571" transform="translate(52,63)"/>
</svg>
