<?xml version="1.0" encoding="UTF-8"?>
<svg version="1.1" xmlns="http://www.w3.org/2000/svg" viewBox="0 0 866 650">
<path d="M0 0 C5.33598842 2.99283981 9.5175243 7.75717554 11.8125 13.4375 C12.79294569 20.56895233 12.21594316 26.48367387 8.30859375 32.59375 C5.20787556 36.41500061 1.60745931 38.58337145 -3.1875 39.4375 C-5.31320426 39.40728973 -7.43855505 39.34159203 -9.5625 39.25 C-15.27343461 39.19878086 -17.99894635 39.57962164 -22.1875 43.4375 C-22.80625 43.97375 -23.425 44.51 -24.0625 45.0625 C-25.39857926 46.39938847 -25.39857926 46.39938847 -25.1875 48.4375 C-23.62331846 49.72213521 -23.62331846 49.72213521 -21.6875 50.9375 C-19.71875 52.21875 -19.71875 52.21875 -18.1875 53.4375 C-18.1875 54.0975 -18.1875 54.7575 -18.1875 55.4375 C-17.1665625 55.81261719 -17.1665625 55.81261719 -16.125 56.1953125 C-13.32551881 57.37913566 -10.72254418 58.76474643 -8.07641602 60.25537109 C11.58804904 71.26055834 34.74595473 74.38535399 56.8125 69.4375 C69.02645339 65.98037058 79.5615144 60.86015176 89.8125 53.4375 C90.57433594 52.97085938 91.33617187 52.50421875 92.12109375 52.0234375 C96.70915318 48.91385876 97.39393784 45.8245371 98.4375 40.4375 C98.76041016 38.60058594 98.76041016 38.60058594 99.08984375 36.7265625 C100.24243563 31.48071191 102.1616189 29.38558937 106.4921875 26.203125 C112.75342586 22.41000964 119.88763516 22.41793463 126.92578125 23.875 C132.49198875 25.84970776 135.93654015 30.4244001 138.953125 35.26953125 C141.06300924 40.59219377 140.88021904 47.55969933 138.90234375 52.890625 C135.6063649 58.44397843 131.46057996 62.42641492 125.375 64.75 C121.8125 65.4375 121.8125 65.4375 118.0625 65.375 C114.83783135 65.09962625 114.83783135 65.09962625 113 66.9375 C112.608125 67.4325 112.21625 67.9275 111.8125 68.4375 C111.1525 68.4375 110.4925 68.4375 109.8125 68.4375 C109.8125 69.0975 109.8125 69.7575 109.8125 70.4375 C107.68589899 72.25244397 105.56671177 73.9180158 103.3125 75.5625 C102.64412109 76.05169922 101.97574219 76.54089844 101.28710938 77.04492188 C92.15275621 83.5451825 82.10084812 88.08881677 71.8125 92.4375 C74.82363952 94.44492635 77.81793759 95.8614141 81.1875 97.125 C94.1234089 102.23785552 104.70846603 108.94691364 114.8125 118.4375 C115.30766113 118.90091797 115.80282227 119.36433594 116.31298828 119.84179688 C122.74091348 125.92220903 128.51168592 132.35730467 133.8125 139.4375 C134.27914062 140.03691406 134.74578125 140.63632812 135.2265625 141.25390625 C136.375 142.8125 136.375 142.8125 137.8125 145.4375 C137.40234375 147.6015625 137.40234375 147.6015625 136.8125 149.4375 C132.22928618 149.52454 127.64628466 149.57790632 123.0625 149.625 C121.76054687 149.65013672 120.45859375 149.67527344 119.1171875 149.70117188 C117.86679687 149.71083984 116.61640625 149.72050781 115.328125 149.73046875 C114.17602539 149.7461792 113.02392578 149.76188965 111.83691406 149.77807617 C108.52967061 149.40565087 107.13782251 148.78313878 104.8125 146.4375 C104.8125 145.7775 104.8125 145.1175 104.8125 144.4375 C104.214375 144.169375 103.61625 143.90125 103 143.625 C100.81402146 142.43832594 99.39917406 141.34150887 97.8125 139.4375 C97.8125 138.7775 97.8125 138.1175 97.8125 137.4375 C97.1525 137.23125 96.4925 137.025 95.8125 136.8125 C93.18195744 135.60683466 91.38475966 134.43846996 89.125 132.6875 C81.23711771 126.63126079 73.27574454 122.47441515 63.8125 119.4375 C62.95398438 119.14875 62.09546875 118.86 61.2109375 118.5625 C52.63966691 115.80271009 44.27700946 115.26862801 35.3125 115.3125 C34.12720703 115.30669922 34.12720703 115.30669922 32.91796875 115.30078125 C7.89446571 115.34173625 -13.7087283 126.13938673 -31.4375 143.4375 C-33.07189194 145.12043823 -34.13616408 146.33482817 -35.1875 148.4375 C-38.54485137 149.55661712 -41.06955386 149.55115586 -44.60546875 149.53515625 C-45.85908203 149.53193359 -47.11269531 149.52871094 -48.40429688 149.52539062 C-49.71462891 149.51701172 -51.02496094 149.50863281 -52.375 149.5 C-53.71028481 149.49498317 -55.04557141 149.49042059 -56.38085938 149.48632812 C-59.64978473 149.47452695 -62.91861991 149.45806297 -66.1875 149.4375 C-66.1875 145.09561047 -65.51627144 143.79367145 -63.3125 140.1875 C-62.77882813 139.29546875 -62.24515625 138.4034375 -61.6953125 137.484375 C-61.19773437 136.80890625 -60.70015625 136.1334375 -60.1875 135.4375 C-59.5275 135.4375 -58.8675 135.4375 -58.1875 135.4375 C-57.99800781 134.76203125 -57.80851562 134.0865625 -57.61328125 133.390625 C-55.6016425 129.22405268 -52.65043132 126.41084993 -49.375 123.1875 C-48.36348877 122.18952393 -48.36348877 122.18952393 -47.33154297 121.17138672 C-34.25492361 108.53731335 -17.58604444 98.81113252 -0.1875 93.4375 C-1.00001278 91.25841347 -1.00001278 91.25841347 -3.1640625 90.6484375 C-4.03804687 90.37257813 -4.91203125 90.09671875 -5.8125 89.8125 C-24.66835475 83.16898641 -48.92059868 68.00305673 -58.1875 49.4375 C-58.34103167 45.39961704 -57.48986489 43.84083914 -55.0703125 40.61328125 C-54.16023438 39.66839844 -53.25015625 38.72351563 -52.3125 37.75 C-51.82579834 37.24106201 -51.33909668 36.73212402 -50.83764648 36.20776367 C-49.81576561 35.14455492 -48.78789596 34.08707268 -47.75439453 33.03515625 C-46.20438613 31.45471764 -44.67724363 29.85463644 -43.15234375 28.25 C-35.33620887 20.15055934 -35.33620887 20.15055934 -31.1875 19.4375 C-29.68601459 17.14111055 -28.9077072 14.69604907 -27.9375 12.125 C-25.53611812 6.54178713 -22.11773097 2.56650302 -16.875 -0.5 C-10.90022095 -2.22154651 -5.77757595 -2.55801073 0 0 Z " fill="#FFFFFF" transform="translate(148.1875,246.5625)"/>
<path d="M0 0 C15.70971492 -0.45830611 27.90497569 4.23959722 41.66015625 11.1171875 C41.66015625 7.8171875 41.66015625 4.5171875 41.66015625 1.1171875 C44.83409314 -0.46978094 48.2418983 -0.0259572 51.72265625 -0.0078125 C52.84124023 -0.01361328 52.84124023 -0.01361328 53.98242188 -0.01953125 C59.53352124 -0.00944751 59.53352124 -0.00944751 60.66015625 1.1171875 C60.78209162 3.99531439 60.83880955 6.84984322 60.85302734 9.72924805 C60.86529358 11.08561874 60.86529358 11.08561874 60.87780762 12.46939087 C60.90273985 15.48088922 60.91920808 18.49233978 60.93359375 21.50390625 C60.93891743 22.53360849 60.9442411 23.56331074 60.9497261 24.62421608 C60.97650661 30.08679079 60.9958555 35.54934238 61.01025391 41.01196289 C61.02680661 46.62817411 61.07149072 52.24378758 61.12262535 57.85977459 C61.15648421 62.19670696 61.16785236 66.53350169 61.17348099 70.87055397 C61.18015484 72.93838822 61.19527469 75.00621468 61.2193718 77.0739193 C61.35148178 89.10822906 60.84607835 99.09726861 55.66015625 110.1171875 C55.00015625 110.1171875 54.34015625 110.1171875 53.66015625 110.1171875 C53.00015625 111.7671875 52.34015625 113.4171875 51.66015625 115.1171875 C51.00015625 115.1171875 50.34015625 115.1171875 49.66015625 115.1171875 C49.28503906 116.00277344 49.28503906 116.00277344 48.90234375 116.90625 C43.88489059 125.8366855 30.7189693 131.03640777 21.41015625 133.9296875 C3.91754708 138.1642096 -15.72919552 136.34083049 -31.52734375 127.4296875 C-40.84614656 121.4401144 -49.74358033 114.15130703 -52.33984375 103.1171875 C-47.49557885 99.78675538 -42.57223772 98.19414926 -36.71484375 98.0546875 C-33.47211711 99.505381 -31.82627715 101.74943156 -29.671875 104.5234375 C-28.41048359 106.24832375 -28.41048359 106.24832375 -26.33984375 107.1171875 C-26.33984375 107.7771875 -26.33984375 108.4371875 -26.33984375 109.1171875 C-25.51484375 109.3853125 -24.68984375 109.6534375 -23.83984375 109.9296875 C-21.34696797 110.77548464 -18.91452086 111.66345946 -16.46484375 112.6171875 C-2.69572272 117.71590337 10.87938191 117.52674585 24.66015625 112.1171875 C32.07970495 107.9258559 37.91564035 103.35073521 40.66015625 95.1171875 C40.88734121 92.55083889 41.07623809 90.00040643 41.22265625 87.4296875 C41.28743164 86.3768457 41.28743164 86.3768457 41.35351562 85.30273438 C41.45932985 83.57443544 41.56022206 81.8458364 41.66015625 80.1171875 C41.01949219 80.51550781 40.37882812 80.91382813 39.71875 81.32421875 C22.47226414 91.88801262 4.34053673 94.73272882 -15.50390625 90.28125 C-26.82352958 87.10801537 -37.56445588 80.99381056 -45.33984375 72.1171875 C-46.59765625 69.8515625 -46.59765625 69.8515625 -47.33984375 68.1171875 C-47.99984375 68.1171875 -48.65984375 68.1171875 -49.33984375 68.1171875 C-50.15659171 66.36916604 -50.96807826 64.61868561 -51.77734375 62.8671875 C-52.22980469 61.89265625 -52.68226563 60.918125 -53.1484375 59.9140625 C-56.74646277 51.46755071 -56.76872159 40.83701136 -53.39453125 32.2890625 C-51.34240408 28.06320062 -49.19238138 23.86114313 -46.33984375 20.1171875 C-45.34984375 19.7871875 -44.35984375 19.4571875 -43.33984375 19.1171875 C-43.00984375 18.1271875 -42.67984375 17.1371875 -42.33984375 16.1171875 C-30.74436796 5.26980692 -15.47441265 0.77501232 0 0 Z M-31.29296875 31.140625 C-35.36832564 36.30406262 -37.66555618 40.93426911 -37.15234375 47.6171875 C-35.9037086 56.17105588 -31.19788911 60.88984067 -24.71484375 66.1796875 C-13.10606176 74.42298774 -0.12141506 74.36290517 13.66015625 73.1171875 C17.72888078 72.30344259 21.04833981 71.13613389 24.66015625 69.1171875 C25.40136719 68.72015625 26.14257812 68.323125 26.90625 67.9140625 C33.24357565 64.23957644 39.29010257 59.22734854 41.66015625 52.1171875 C42.15348516 45.54263106 42.47198773 39.76434525 38.66015625 34.1171875 C38.14453125 33.3334375 37.62890625 32.5496875 37.09765625 31.7421875 C36.62328125 31.2059375 36.14890625 30.6696875 35.66015625 30.1171875 C35.00015625 30.1171875 34.34015625 30.1171875 33.66015625 30.1171875 C33.66015625 29.4571875 33.66015625 28.7971875 33.66015625 28.1171875 C31.26773109 26.34850586 31.26773109 26.34850586 28.22265625 24.6171875 C27.21332031 24.00875 26.20398438 23.4003125 25.1640625 22.7734375 C7.80060352 14.56596079 -17.74045693 17.10022275 -31.29296875 31.140625 Z " fill="#FFFFFF" transform="translate(369.33984375,268.8828125)"/>
<path d="M0 0 C0.79792969 0.00386719 1.59585938 0.00773437 2.41796875 0.01171875 C3.61486328 0.00591797 3.61486328 0.00591797 4.8359375 0 C10.79136108 0.01011108 10.79136108 0.01011108 11.91796875 1.13671875 C12.02143219 2.59813537 12.0564745 4.06448213 12.06323242 5.52954102 C12.06961227 6.46464005 12.07599213 7.39973907 12.08256531 8.36317444 C12.08367813 9.38285812 12.08479095 10.40254181 12.0859375 11.453125 C12.0909301 13.02065773 12.0909301 13.02065773 12.09602356 14.61985779 C12.10110012 16.84007323 12.10343166 19.06029634 12.10327148 21.28051758 C12.10544383 24.66044975 12.12355259 28.04004814 12.14257812 31.41992188 C12.14551481 33.5768218 12.14749776 35.73372328 12.1484375 37.890625 C12.15562302 38.89613907 12.16280853 39.90165314 12.17021179 40.93763733 C12.12814696 54.02434255 8.10013848 65.57007393 -1.08203125 75.13671875 C-1.74203125 75.13671875 -2.40203125 75.13671875 -3.08203125 75.13671875 C-3.08203125 75.79671875 -3.08203125 76.45671875 -3.08203125 77.13671875 C-17.51509806 89.11140605 -35.68085182 93.34122697 -54.08203125 92.13671875 C-69.88344679 89.86516164 -83.96905865 83.88558351 -95.08203125 72.13671875 C-95.08203125 71.47671875 -95.08203125 70.81671875 -95.08203125 70.13671875 C-95.74203125 70.13671875 -96.40203125 70.13671875 -97.08203125 70.13671875 C-99.08203125 67.13671875 -99.08203125 67.13671875 -99.08203125 64.13671875 C-99.74203125 64.13671875 -100.40203125 64.13671875 -101.08203125 64.13671875 C-106.6414535 51.70949838 -105.53055447 38.63182947 -105.33203125 25.32421875 C-105.31193401 22.97462461 -105.29368896 20.62501386 -105.27734375 18.27539062 C-105.23360836 12.56213309 -105.16695254 6.84950483 -105.08203125 1.13671875 C-102.10280532 1.10987888 -99.1238183 1.08995838 -96.14453125 1.07421875 C-94.86932617 1.06165039 -94.86932617 1.06165039 -93.56835938 1.04882812 C-92.75947266 1.04560547 -91.95058594 1.04238281 -91.1171875 1.0390625 C-90.36832275 1.03382568 -89.61945801 1.02858887 -88.84790039 1.02319336 C-87.08203125 1.13671875 -87.08203125 1.13671875 -86.08203125 2.13671875 C-85.9906762 3.64929961 -85.96740375 5.1660661 -85.97192383 6.68139648 C-85.97105522 8.13442421 -85.97105522 8.13442421 -85.97016907 9.61680603 C-85.97333382 11.20254173 -85.97333382 11.20254173 -85.9765625 12.8203125 C-85.96309507 15.05013982 -85.94806987 17.27995816 -85.93164062 19.50976562 C-85.90889253 23.0318072 -85.89445524 26.55284666 -85.90698242 30.07495117 C-85.91585045 33.4699698 -85.88675852 36.86299969 -85.8515625 40.2578125 C-85.86379349 41.29675156 -85.87602448 42.33569061 -85.8886261 43.40611267 C-85.7455265 52.13801063 -82.82821395 58.47765657 -76.5625 64.59765625 C-63.73159622 72.55887844 -49.18925596 75.08573688 -34.5234375 71.7578125 C-33.71777344 71.55285156 -32.91210938 71.34789062 -32.08203125 71.13671875 C-31.30730469 70.94207031 -30.53257812 70.74742187 -29.734375 70.546875 C-21.04137066 68.0269475 -14.25576209 62.53032026 -9.08203125 55.13671875 C-8.10043827 52.1919398 -7.93553503 50.20375812 -7.89257812 47.13037109 C-7.8758606 46.11276703 -7.85914307 45.09516296 -7.84191895 44.04672241 C-7.82834351 42.94978058 -7.81476807 41.85283875 -7.80078125 40.72265625 C-7.78237183 39.59727448 -7.7639624 38.4718927 -7.74499512 37.31240845 C-7.66617071 32.48734197 -7.59838716 27.66213503 -7.52978516 22.83691406 C-7.47821285 19.31958781 -7.42091545 15.80238753 -7.36328125 12.28515625 C-7.34970581 11.18416595 -7.33613037 10.08317566 -7.32214355 8.94882202 C-7.30542603 7.93752228 -7.2887085 6.92622253 -7.27148438 5.88427734 C-7.25269226 4.5421669 -7.25269226 4.5421669 -7.23352051 3.17294312 C-6.90654763 -1.22202288 -3.68362937 0.00625404 0 0 Z " fill="#FFFFFF" transform="translate(774.08203125,268.86328125)"/>
<path d="M0 0 C1.1127832 -0.01836914 1.1127832 -0.01836914 2.24804688 -0.03710938 C4.18763629 -0.04238478 6.1267371 0.06561098 8.0625 0.1875 C10.4623032 2.5873032 10.31448303 3.11534418 10.32128906 6.38671875 C10.32759338 7.25522461 10.33389771 8.12373047 10.34039307 9.01855469 C10.3363446 9.96118164 10.33229614 10.90380859 10.328125 11.875 C10.33003845 12.84727539 10.3319519 13.81955078 10.33392334 14.82128906 C10.33528686 16.88590757 10.33157883 18.95053459 10.32324219 21.01513672 C10.3126371 24.14701151 10.32308379 27.27830049 10.3359375 30.41015625 C10.33461413 32.41927209 10.33204808 34.42838756 10.328125 36.4375 C10.33217346 37.36393311 10.33622192 38.29036621 10.34039307 39.24487305 C10.25924909 50.74813281 7.816105 61.67105659 1.0625 71.1875 C0.4025 71.1875 -0.2575 71.1875 -0.9375 71.1875 C-1.9275 73.1675 -1.9275 73.1675 -2.9375 75.1875 C-3.5975 75.1875 -4.2575 75.1875 -4.9375 75.1875 C-5.4325 76.6725 -5.4325 76.6725 -5.9375 78.1875 C-19.88383309 89.61536906 -38.36451506 93.33779609 -55.9375 92.1875 C-71.67243288 89.9255002 -87.68687265 83.9301345 -97.9375 71.1875 C-105.06646826 61.21031511 -107.41314979 51.67966783 -107.265625 39.52734375 C-107.26375183 38.4562587 -107.26187866 37.38517365 -107.25994873 36.28163147 C-107.2532722 34.03871505 -107.23944659 31.79580938 -107.21875 29.55297852 C-107.18730464 26.10356956 -107.17774447 22.6546169 -107.171875 19.20507812 C-107.16271559 17.0208277 -107.15234323 14.83658195 -107.140625 12.65234375 C-107.13425018 11.09941872 -107.13425018 11.09941872 -107.12774658 9.51512146 C-107.11813904 8.56645706 -107.10853149 7.61779266 -107.09863281 6.64038086 C-107.09180481 5.80228378 -107.08497681 4.96418671 -107.07794189 4.10069275 C-106.9375 2.1875 -106.9375 2.1875 -105.9375 1.1875 C-103.09414952 1.08763025 -100.28052837 1.04872119 -97.4375 1.0625 C-96.63957031 1.05863281 -95.84164063 1.05476563 -95.01953125 1.05078125 C-89.06410767 1.06089233 -89.06410767 1.06089233 -87.9375 2.1875 C-87.84994403 3.53221377 -87.83053798 4.88147484 -87.83984375 6.22900391 C-87.84314697 7.08724762 -87.8464502 7.94549133 -87.84985352 8.82974243 C-87.85815186 9.76506805 -87.8664502 10.70039368 -87.875 11.6640625 C-87.87878662 12.62267181 -87.88257324 13.58128113 -87.88647461 14.56893921 C-87.9028572 18.68452102 -87.93080845 22.80000499 -87.95800781 26.91552734 C-87.97616637 29.91503434 -87.988222 32.91452472 -88 35.9140625 C-88.00829834 36.83724274 -88.01659668 37.76042297 -88.02514648 38.71157837 C-88.06027404 48.03955161 -87.44236475 54.99657529 -80.9375 62.1875 C-69.80897963 70.97495968 -57.93087887 74.0168948 -43.9375 73.1875 C-31.22082048 71.62267495 -20.86084432 66.80063971 -12.35546875 57.1875 C-9.90070365 53.7251316 -9.80751561 50.3192954 -9.74804688 46.15942383 C-9.73132935 45.16191605 -9.71461182 44.16440826 -9.6973877 43.13667297 C-9.68381226 42.0667662 -9.67023682 40.99685944 -9.65625 39.89453125 C-9.63784058 38.79276047 -9.61943115 37.69098969 -9.60046387 36.55583191 C-9.52173391 31.83915964 -9.4538134 27.122347 -9.38525391 22.40551758 C-9.33369093 18.96427996 -9.27639799 15.52317142 -9.21875 12.08203125 C-9.20517456 11.00605179 -9.19159912 9.93007233 -9.1776123 8.82148743 C-9.16089478 7.83343613 -9.14417725 6.84538483 -9.12695312 5.82739258 C-9.10816101 4.51645378 -9.10816101 4.51645378 -9.08898926 3.17903137 C-8.72792487 -1.56764879 -3.69172943 0.00319078 0 0 Z " fill="#FFFFFF" transform="translate(544.9375,268.8125)"/>
<path d="M0 0 C1.11858398 0.00580078 1.11858398 0.00580078 2.25976562 0.01171875 C3.37254883 0.00591797 3.37254883 0.00591797 4.5078125 0 C10.06899561 0.01008374 10.06899561 0.01008374 12.32226562 1.13671875 C12.65226563 11.69671875 12.98226562 22.25671875 13.32226562 33.13671875 C14.64226563 31.48671875 15.96226562 29.83671875 17.32226562 28.13671875 C33.33312454 11.92215934 60.52474663 0.69696024 83.32226562 0.13671875 C84.31226563 0.63171875 84.31226563 0.63171875 85.32226562 1.13671875 C85.51610742 3.9489158 85.70263165 6.76126071 85.88476562 9.57421875 C85.96887695 10.77788086 85.96887695 10.77788086 86.0546875 12.00585938 C86.18389513 14.04733986 86.25739293 16.09218244 86.32226562 18.13671875 C84.49201835 19.96696602 81.8524626 19.62552391 79.39257812 19.93457031 C62.32850077 22.16060844 44.13771857 27.93121251 32.32226562 41.13671875 C30.69389824 42.84082415 29.0345681 44.51697316 27.32226562 46.13671875 C26.66226563 46.13671875 26.00226562 46.13671875 25.32226562 46.13671875 C25.09539063 46.77609375 24.86851562 47.41546875 24.63476562 48.07421875 C23.53831861 50.63259512 22.34441826 52.86721408 20.94726562 55.26171875 C14.79834541 66.38056268 13.42687949 76.85102102 12.5559082 89.36181641 C12.32226562 91.13671875 12.32226562 91.13671875 11.32226562 92.13671875 C8.47891515 92.2365885 5.66529399 92.27549756 2.82226562 92.26171875 C2.02433594 92.26558594 1.22640625 92.26945312 0.40429688 92.2734375 C-5.5511267 92.26332642 -5.5511267 92.26332642 -6.67773438 91.13671875 C-6.77825312 88.34219604 -6.81389331 85.5723552 -6.80712891 82.77734375 C-6.80888123 81.90098267 -6.81063354 81.02462158 -6.81243896 80.1217041 C-6.8168587 77.21002248 -6.81391907 74.29840105 -6.81054688 71.38671875 C-6.81121988 69.37272123 -6.81218987 67.3587238 -6.81344604 65.34472656 C-6.81492318 61.1178307 -6.81276795 56.89095592 -6.80810547 52.6640625 C-6.80240817 47.23291343 -6.80568709 41.80181376 -6.81167793 36.3706665 C-6.81528312 32.21011988 -6.81414516 28.04958506 -6.81155014 23.88903809 C-6.81088075 21.8858642 -6.8117097 19.88268926 -6.81402969 17.8795166 C-6.81655552 15.08501323 -6.81271662 12.29059104 -6.80712891 9.49609375 C-6.80915314 8.6596936 -6.81117737 7.82329346 -6.81326294 6.96154785 C-6.78850381 0.31301538 -6.69511368 0.01216188 0 0 Z " fill="#FFFFFF" transform="translate(571.677734375,268.86328125)"/>
<path d="M0 0 C1.50390625 1.32421875 1.50390625 1.32421875 2.50390625 4.32421875 C1.59640625 5.00484375 0.68890625 5.68546875 -0.24609375 6.38671875 C-5.32920542 10.63063745 -7.64874673 16.01244977 -9.49609375 22.32421875 C-10.81609375 22.32421875 -12.13609375 22.32421875 -13.49609375 22.32421875 C-13.49609375 21.66421875 -13.49609375 21.00421875 -13.49609375 20.32421875 C-14.20765625 20.05351562 -14.91921875 19.7828125 -15.65234375 19.50390625 C-18.53983771 18.30607222 -21.23499396 16.91320848 -23.99609375 15.44921875 C-37.24376521 8.77655868 -50.88588568 5.95550666 -65.62109375 6.19921875 C-67.19890625 6.21275391 -67.19890625 6.21275391 -68.80859375 6.2265625 C-71.37134253 6.24986022 -73.93358887 6.28256763 -76.49609375 6.32421875 C-76.64304688 5.05578125 -76.64304688 5.05578125 -76.79296875 3.76171875 C-77.78993187 -4.05022331 -77.78993187 -4.05022331 -80.68359375 -11.30078125 C-81.28171875 -12.41453125 -81.87984375 -13.52828125 -82.49609375 -14.67578125 C-82.16609375 -15.66578125 -81.83609375 -16.65578125 -81.49609375 -17.67578125 C-51.94078775 -22.14298 -25.08863382 -16.61467401 0 0 Z " fill="#FFFFFF" transform="translate(247.49609375,262.67578125)"/>
<path d="M0 0 C4.97817578 2.74605074 8.48100757 5.77915303 10.875 11 C12.36458841 17.19918532 12.47514378 23.09058232 9.875 29 C7.4375 31.75 7.4375 31.75 4.875 34 C4.42125 34.556875 3.9675 35.11375 3.5 35.6875 C-0.55789028 38.96502676 -6.08426543 39.39500055 -11.140625 39.2578125 C-16.00195613 38.62622224 -20.53491869 36.3028748 -24.125 33 C-24.125 32.34 -24.125 31.68 -24.125 31 C-24.785 31 -25.445 31 -26.125 31 C-29.29261897 23.74087319 -30.34437789 17.99684975 -28 10.3125 C-21.95873243 -0.36040604 -11.60479108 -5.14995226 0 0 Z " fill="#FFFFFF" transform="translate(194.125,277)"/>
<path d="M0 0 C1.50390625 1.32421875 1.50390625 1.32421875 2.50390625 4.32421875 C1.59640625 5.00484375 0.68890625 5.68546875 -0.24609375 6.38671875 C-5.32920542 10.63063745 -7.64874673 16.01244977 -9.49609375 22.32421875 C-10.81609375 22.32421875 -12.13609375 22.32421875 -13.49609375 22.32421875 C-13.49609375 21.66421875 -13.49609375 21.00421875 -13.49609375 20.32421875 C-14.20765625 20.05351562 -14.91921875 19.7828125 -15.65234375 19.50390625 C-18.53983771 18.30607222 -21.23499396 16.91320848 -23.99609375 15.44921875 C-37.24376521 8.77655868 -50.88588568 5.95550666 -65.62109375 6.19921875 C-67.19890625 6.21275391 -67.19890625 6.21275391 -68.80859375 6.2265625 C-71.37134253 6.24986022 -73.93358887 6.28256763 -76.49609375 6.32421875 C-76.64304688 5.05578125 -76.64304688 5.05578125 -76.79296875 3.76171875 C-77.78993187 -4.05022331 -77.78993187 -4.05022331 -80.68359375 -11.30078125 C-81.28171875 -12.41453125 -81.87984375 -13.52828125 -82.49609375 -14.67578125 C-82.16609375 -15.66578125 -81.83609375 -16.65578125 -81.49609375 -17.67578125 C-51.94078775 -22.14298 -25.08863382 -16.61467401 0 0 Z M-80.49609375 -15.67578125 C-80.21894531 -14.98613281 -79.94179687 -14.29648438 -79.65625 -13.5859375 C-79.29402344 -12.64621094 -78.93179688 -11.70648438 -78.55859375 -10.73828125 C-78.19894531 -9.82175781 -77.83929688 -8.90523437 -77.46875 -7.9609375 C-76.26238255 -3.88641934 -75.84782979 0.10162469 -75.49609375 4.32421875 C-74.73167969 4.32832764 -73.96726563 4.33243652 -73.1796875 4.33666992 C-52.44713411 4.53158337 -37.27238731 6.84488121 -18.921875 16.5546875 C-16.14201115 17.99058069 -13.42317693 19.23285887 -10.49609375 20.32421875 C-9.65582979 18.55666349 -8.82410653 16.78504612 -7.99609375 15.01171875 C-7.53203125 14.02558594 -7.06796875 13.03945313 -6.58984375 12.0234375 C-5.30831903 9.34621749 -5.30831903 9.34621749 -5.49609375 6.32421875 C-4.17609375 5.66421875 -2.85609375 5.00421875 -1.49609375 4.32421875 C-2.96139315 0.46115668 -4.8661219 -0.81858635 -8.49609375 -2.67578125 C-9.76453125 -3.17078125 -9.76453125 -3.17078125 -11.05859375 -3.67578125 C-13.49609375 -4.67578125 -13.49609375 -4.67578125 -15.28515625 -6.078125 C-24.60385084 -12.81195201 -36.20743222 -14.84193531 -47.38671875 -15.4296875 C-50.49609375 -15.67578125 -50.49609375 -15.67578125 -53.49609375 -16.67578125 C-55.1372801 -16.76889073 -56.7819572 -16.80647269 -58.42578125 -16.80859375 C-59.38613281 -16.80988281 -60.34648437 -16.81117188 -61.3359375 -16.8125 C-62.33753906 -16.80863281 -63.33914062 -16.80476562 -64.37109375 -16.80078125 C-65.36496094 -16.80464844 -66.35882813 -16.80851563 -67.3828125 -16.8125 C-68.82720703 -16.81056641 -68.82720703 -16.81056641 -70.30078125 -16.80859375 C-71.6153833 -16.80690186 -71.6153833 -16.80690186 -72.95654297 -16.80517578 C-75.55644685 -16.67270615 -77.95994233 -16.24904825 -80.49609375 -15.67578125 Z " fill="#FFFFFF" transform="translate(247.49609375,262.67578125)"/>
<path d="M0 0 C1.32 0 2.64 0 4 0 C4 0.66 4 1.32 4 2 C3.01 2.495 3.01 2.495 2 3 C2.474375 3.9075 2.94875 4.815 3.4375 5.75 C5.45741279 9.95141861 6.13079276 13.10609263 6.0625 17.75 C6.05347656 18.54921875 6.04445312 19.3484375 6.03515625 20.171875 C6.01775391 21.07679688 6.01775391 21.07679688 6 22 C6.76441406 21.97381592 7.52882812 21.94763184 8.31640625 21.9206543 C31.0309185 21.24584741 46.06219732 24.43429082 66 35 C67.99728755 36.0054066 69.99631457 37.00740506 72 38 C72 38.66 72 39.32 72 40 C70.68 40 69.36 40 68 40 C68 39.34 68 38.68 68 38 C67.2884375 37.72929687 66.576875 37.45859375 65.84375 37.1796875 C62.95625604 35.98185347 60.26109979 34.58898973 57.5 33.125 C44.25232854 26.45233993 30.61020807 23.63128791 15.875 23.875 C14.2971875 23.88853516 14.2971875 23.88853516 12.6875 23.90234375 C10.12475122 23.92564147 7.56250488 23.95834888 5 24 C4.85304687 22.7315625 4.85304687 22.7315625 4.703125 21.4375 C3.70616188 13.62555794 3.70616188 13.62555794 0.8125 6.375 C0.214375 5.26125 -0.38375 4.1475 -1 3 C-0.67 2.01 -0.34 1.02 0 0 Z " fill="#FFFFFF" transform="translate(166,245)"/>
<path d="M0 0 C0.66 0.99 1.32 1.98 2 3 C0.22925083 3.02705729 -1.54161711 3.04642195 -3.3125 3.0625 C-4.29863281 3.07410156 -5.28476563 3.08570313 -6.30078125 3.09765625 C-9 3 -9 3 -12 2 C-13.84610532 1.91760831 -15.69505164 1.89256641 -17.54296875 1.90234375 C-19.15268555 1.90717773 -19.15268555 1.90717773 -20.79492188 1.91210938 C-21.91447266 1.92048828 -23.03402344 1.92886719 -24.1875 1.9375 C-25.88422852 1.94426758 -25.88422852 1.94426758 -27.61523438 1.95117188 C-30.41020927 1.96296502 -33.2050782 1.9794235 -36 2 C-36 1.34 -36 0.68 -36 0 C-24.02220328 -2.59480316 -11.994906 -3.0517652 0 0 Z " fill="#FFFFFF" transform="translate(206,245)"/>
<path d="M0 0 C0 0.33 0 0.66 0 1 C-1.7015625 1.2165625 -1.7015625 1.2165625 -3.4375 1.4375 C-6.80777201 1.61171478 -6.80777201 1.61171478 -8 3 C-8.49910181 8.98922169 -7.07486169 13.38058292 -5 19 C0.61 19.33 6.22 19.66 12 20 C12 20.33 12 20.66 12 21 C5.07 21 -1.86 21 -9 21 C-9.268125 18.999375 -9.53625 16.99875 -9.8125 14.9375 C-10.59244184 9.7977394 -11.63951329 5.61367856 -14 1 C-9.32798795 -0.20568053 -4.78503708 -0.09382426 0 0 Z " fill="#FFFFFF" transform="translate(181,246)"/>
<path d="M0 0 C1.32 0 2.64 0 4 0 C4 0.66 4 1.32 4 2 C3.01 2.495 3.01 2.495 2 3 C2.474375 3.9075 2.94875 4.815 3.4375 5.75 C5.45741279 9.95141861 6.13079276 13.10609263 6.0625 17.75 C6.05347656 18.54921875 6.04445312 19.3484375 6.03515625 20.171875 C6.01775391 21.07679688 6.01775391 21.07679688 6 22 C3.6361527 19.6361527 3.77025009 19.08167502 3.625 15.875 C3.25789283 11.49795294 1.97804879 8.47355762 -0.2578125 4.7265625 C-1 3 -1 3 0 0 Z " fill="#FFFFFF" transform="translate(166,245)"/>
<path d="M0 0 C0.99 0.33 1.98 0.66 3 1 C3 1.66 3 2.32 3 3 C1.63875 4.0828125 1.63875 4.0828125 0.25 5.1875 C-4.14450507 8.69894849 -7.09633457 13.35209103 -8 19 C-8.66 19 -9.32 19 -10 19 C-9.19580144 12.76746116 -6.91585644 6.74168767 -2.25 2.5 C-1.5075 2.005 -0.765 1.51 0 1 C0 0.67 0 0.34 0 0 Z " fill="#FFFFFF" transform="translate(247,264)"/>
<path d="M0 0 C0.66 0.99 1.32 1.98 2 3 C0.22950311 3.05410687 -1.54146849 3.09284119 -3.3125 3.125 C-4.79169922 3.15980469 -4.79169922 3.15980469 -6.30078125 3.1953125 C-9 3 -9 3 -12 1 C-7.95232429 0.22901415 -4.11983282 -0.37453026 0 0 Z " fill="#FFFFFF" transform="translate(206,245)"/>
<path d="M0 0 C4.19469571 0.59924224 8.00999834 1.57499941 12 3 C12 3.33 12 3.66 12 4 C7.01137151 4.29344873 4.03770942 4.05887078 0 1 C0 0.67 0 0.34 0 0 Z " fill="#FFFFFF" transform="translate(212,249)"/>
</svg>
