<?xml version="1.0" encoding="UTF-8"?>
<svg version="1.1" xmlns="http://www.w3.org/2000/svg" viewBox="0 0 225 225">
<path d="M0 0 C0.65882298 -0.00407553 1.31764595 -0.00815105 1.99643326 -0.01235008 C5.4699495 -0.03302163 8.94342822 -0.04741527 12.41699219 -0.05688477 C15.99482638 -0.06803832 19.57205388 -0.10259198 23.14967155 -0.14205647 C25.91548829 -0.16817171 28.68115714 -0.17657092 31.44708633 -0.18016624 C33.40588492 -0.18738351 35.36458235 -0.21381204 37.32321167 -0.24055481 C38.5118985 -0.23762924 39.70058533 -0.23470367 40.92529297 -0.23168945 C41.96990692 -0.23755569 43.01452087 -0.24342194 44.09078979 -0.24946594 C47.59094087 0.37598731 48.75154571 1.37339341 50.8203125 4.23828125 C51.30805969 6.7111969 51.30805969 6.7111969 51.2902832 9.51000977 C51.29320877 10.56112442 51.29613434 11.61223907 51.29914856 12.69520569 C51.27288643 14.38908669 51.27288643 14.38908669 51.24609375 16.1171875 C51.24116158 17.86261086 51.24116158 17.86261086 51.23612976 19.64329529 C51.22570922 22.10201614 51.20576003 24.56071236 51.17700195 27.01928711 C51.13294214 30.78968768 51.11556864 34.55945203 51.10351562 38.33007812 C51.09009107 40.71745713 51.07516797 43.10482828 51.05859375 45.4921875 C51.05120682 46.62346573 51.04381989 47.75474396 51.03620911 48.92030334 C51.02337387 49.96826584 51.01053864 51.01622833 50.99731445 52.09594727 C50.98747025 53.01875992 50.97762604 53.94157257 50.96748352 54.89234924 C50.8203125 57.23828125 50.8203125 57.23828125 49.8203125 60.23828125 C46.93752058 61.67967721 44.43644008 61.38153239 41.21508789 61.39941406 C40.19775322 61.40686142 40.19775322 61.40686142 39.15986633 61.41445923 C36.91255689 61.42908428 34.665318 61.43588286 32.41796875 61.44140625 C30.85859678 61.44715678 29.29922483 61.45291452 27.73985291 61.4586792 C24.46889923 61.46918972 21.19797014 61.47503226 17.92700195 61.47851562 C13.73242022 61.48400498 9.53816234 61.50804193 5.34368229 61.53648758 C2.12238103 61.55509475 -1.09884186 61.56031849 -4.32019234 61.5618515 C-5.86678402 61.56488219 -7.41337419 61.57292471 -8.95991325 61.58603668 C-11.12188382 61.60306012 -13.28305828 61.60122673 -15.44506836 61.59472656 C-16.6759166 61.59837219 -17.90676483 61.60201782 -19.1749115 61.60577393 C-22.1796875 61.23828125 -22.1796875 61.23828125 -24.07832336 60.05085754 C-25.58983954 57.5632712 -25.54711599 55.78598458 -25.53613281 52.88061523 C-25.53913391 51.78615585 -25.54213501 50.69169647 -25.54522705 49.56407166 C-25.53288025 48.38277176 -25.52053345 47.20147186 -25.5078125 45.984375 C-25.50593933 44.77258072 -25.50406616 43.56078644 -25.50213623 42.31227112 C-25.49540971 39.74924979 -25.48148346 37.18623882 -25.4609375 34.62329102 C-25.42978595 30.68821739 -25.41996786 26.75354407 -25.4140625 22.81835938 C-25.40489268 20.33202634 -25.39451698 17.8456974 -25.3828125 15.359375 C-25.37856262 14.17605087 -25.37431274 12.99272675 -25.36993408 11.77354431 C-25.36032654 10.68223709 -25.35071899 9.59092987 -25.34082031 8.46655273 C-25.33399231 7.50297348 -25.32716431 6.53939423 -25.32012939 5.5466156 C-25.1796875 3.23828125 -25.1796875 3.23828125 -24.1796875 1.23828125 C-16.43032421 -0.52132522 -7.89509007 0.04591661 0 0 Z M-15.1796875 16.23828125 C-16.53669397 18.95229419 -16.2920736 21.08674441 -16.27734375 24.12109375 C-16.27412109 25.28769531 -16.27089844 26.45429687 -16.26757812 27.65625 C-16.25919922 28.87957031 -16.25082031 30.10289063 -16.2421875 31.36328125 C-16.23767578 32.59433594 -16.23316406 33.82539062 -16.22851562 35.09375 C-16.2167008 38.14197517 -16.20022778 41.19010439 -16.1796875 44.23828125 C-14.23365476 44.82898139 -14.23365476 44.82898139 -12.1796875 45.23828125 C-10.92019701 44.20421452 -10.92019701 44.20421452 -11.08203125 41.953125 C-11.09363281 41.03660156 -11.10523438 40.12007812 -11.1171875 39.17578125 C-11.1378125 37.54640625 -11.1584375 35.91703125 -11.1796875 34.23828125 C-6.5596875 33.90828125 -1.9396875 33.57828125 2.8203125 33.23828125 C2.4903125 31.91828125 2.1603125 30.59828125 1.8203125 29.23828125 C-2.1396875 28.90828125 -6.0996875 28.57828125 -10.1796875 28.23828125 C-10.1796875 25.92828125 -10.1796875 23.61828125 -10.1796875 21.23828125 C-5.5596875 20.90828125 -0.9396875 20.57828125 3.8203125 20.23828125 C3.8203125 18.91828125 3.8203125 17.59828125 3.8203125 16.23828125 C-2.4496875 16.23828125 -8.7196875 16.23828125 -15.1796875 16.23828125 Z M11.8203125 16.23828125 C11.8203125 25.80828125 11.8203125 35.37828125 11.8203125 45.23828125 C13.1403125 44.90828125 14.4603125 44.57828125 15.8203125 44.23828125 C16.1503125 38.95828125 16.4803125 33.67828125 16.8203125 28.23828125 C21.8203125 33.23828125 21.8203125 33.23828125 23.3828125 35.11328125 C24.76751888 36.46676001 24.76751888 36.46676001 26.7109375 36.03125 C29.31589639 35.05197842 30.29971433 33.84932519 32.0078125 31.67578125 C32.92896324 30.51676374 33.86241919 29.36712167 34.8203125 28.23828125 C35.1503125 28.23828125 35.4803125 28.23828125 35.8203125 28.23828125 C36.3153125 36.15828125 36.3153125 36.15828125 36.8203125 44.23828125 C38.1403125 44.56828125 39.4603125 44.89828125 40.8203125 45.23828125 C40.8203125 35.66828125 40.8203125 26.09828125 40.8203125 16.23828125 C35.03776677 17.3947904 34.66181696 18.14996112 31.5078125 22.80078125 C30.81042969 23.81269531 30.11304688 24.82460937 29.39453125 25.8671875 C28.87503906 26.64964844 28.35554688 27.43210937 27.8203125 28.23828125 C24.78927743 27.91352749 23.88655696 27.31280627 21.8203125 24.98828125 C20.48697917 23.15494792 19.15364583 21.32161458 17.8203125 19.48828125 C15.85052473 16.84636148 15.85052473 16.84636148 11.8203125 16.23828125 Z " fill="#FFFFFF" transform="translate(164.1796875,81.76171875)"/>
<path d="M0 0 C1.32 0.66 2.64 1.32 4 2 C3.84595887 7.08335725 0.97931568 9.35754718 -2.50390625 12.64453125 C-2.99761719 13.09183594 -3.49132812 13.53914063 -4 14 C-2.13406611 18.12568298 0.57971737 21.30676703 3.44140625 24.78125 C4.96963429 26.95677263 5.77052756 28.35826854 6 31 C5.34 31.66 4.68 32.32 4 33 C0.31461692 32.95664255 -0.85416191 32.14862038 -3.45703125 29.49609375 C-4.23433594 28.48675781 -5.01164062 27.47742188 -5.8125 26.4375 C-6.99779297 24.91962891 -6.99779297 24.91962891 -8.20703125 23.37109375 C-8.79871094 22.58863281 -9.39039063 21.80617188 -10 21 C-13.1294203 22.59314755 -13.1294203 22.59314755 -13.44140625 24.875 C-13.48136719 25.57625 -13.52132813 26.2775 -13.5625 27 C-13.7925636 30.7925636 -13.7925636 30.7925636 -16 33 C-20.55555556 32.44444444 -20.55555556 32.44444444 -22 31 C-22.09996094 28.95117803 -22.13080946 26.89891431 -22.1328125 24.84765625 C-22.13410156 23.59662109 -22.13539062 22.34558594 -22.13671875 21.05664062 C-22.13285156 19.73857422 -22.12898438 18.42050781 -22.125 17.0625 C-22.12886719 15.74830078 -22.13273437 14.43410156 -22.13671875 13.08007812 C-22.13542969 11.82775391 -22.13414063 10.57542969 -22.1328125 9.28515625 C-22.13168457 8.12894775 -22.13055664 6.97273926 -22.12939453 5.78149414 C-22 3 -22 3 -21 1 C-19.02 1 -17.04 1 -15 1 C-13.85185003 3.29629994 -13.69230191 5.07698086 -13.4375 7.625 C-13.35371094 8.44226563 -13.26992188 9.25953125 -13.18359375 10.1015625 C-13.12300781 10.72804688 -13.06242187 11.35453125 -13 12 C-12.56429688 11.46890625 -12.12859375 10.9378125 -11.6796875 10.390625 C-8.08699343 6.12916103 -4.81519634 2.81865152 0 0 Z " fill="#FFFFFF" transform="translate(32,96)"/>
<path d="M0 0 C0.99 0.33 1.98 0.66 3 1 C3.90234375 2.8125 3.90234375 2.8125 4 5 C2.56640625 7 2.56640625 7 0.5625 9 C-2.76446817 12.23694685 -2.76446817 12.23694685 -3 17 C-1.285318 19.52466166 -1.285318 19.52466166 0.9375 22 C5.77243442 27.59385711 5.77243442 27.59385711 6 31 C5.34 31.66 4.68 32.32 4 33 C0.31461692 32.95664255 -0.85416191 32.14862038 -3.45703125 29.49609375 C-4.23433594 28.48675781 -5.01164062 27.47742188 -5.8125 26.4375 C-6.99779297 24.91962891 -6.99779297 24.91962891 -8.20703125 23.37109375 C-8.79871094 22.58863281 -9.39039062 21.80617188 -10 21 C-13.12455058 22.64179359 -13.12455058 22.64179359 -13.73046875 25.1640625 C-13.88128906 25.97617188 -14.03210938 26.78828125 -14.1875 27.625 C-14.34605469 28.44226563 -14.50460938 29.25953125 -14.66796875 30.1015625 C-14.77753906 30.72804688 -14.88710937 31.35453125 -15 32 C-16.8125 32.6875 -16.8125 32.6875 -19 33 C-20.61621094 31.90258789 -20.61621094 31.90258789 -22 30 C-22.35644531 27.21264648 -22.35644531 27.21264648 -22.328125 23.87109375 C-22.32296875 22.67162109 -22.3178125 21.47214844 -22.3125 20.23632812 C-22.291875 18.98271484 -22.27125 17.72910156 -22.25 16.4375 C-22.24484375 15.18001953 -22.2396875 13.92253906 -22.234375 12.62695312 C-22.1541718 3.3083436 -22.1541718 3.3083436 -21 1 C-19.02 1 -17.04 1 -15 1 C-13.85185003 3.29629994 -13.69230191 5.07698086 -13.4375 7.625 C-13.35371094 8.44226563 -13.26992187 9.25953125 -13.18359375 10.1015625 C-13.12300781 10.72804688 -13.06242187 11.35453125 -13 12 C-12.56429687 11.46890625 -12.12859375 10.9378125 -11.6796875 10.390625 C-8.11800478 6.16594506 -4.92926573 2.57666163 0 0 Z " fill="#FFFFFF" transform="translate(96,96)"/>
<path d="M0 0 C2.5 0.125 2.5 0.125 3.5 1.125 C3.6204463 2.57744068 3.67948128 4.03510076 3.7109375 5.4921875 C3.73929688 6.37777344 3.76765625 7.26335937 3.796875 8.17578125 C3.84873684 10.05058664 3.8930734 11.92561611 3.9296875 13.80078125 C3.960625 14.68894531 3.9915625 15.57710937 4.0234375 16.4921875 C4.04325684 17.30800293 4.06307617 18.12381836 4.08349609 18.96435547 C4.59777759 21.63222842 5.3184295 22.53491386 7.5 24.125 C11.04213985 24.62507794 11.04213985 24.62507794 14.5 24.125 C16.54880971 21.05178544 16.76469273 20.2448468 16.87890625 16.74609375 C16.91306641 15.90755859 16.94722656 15.06902344 16.98242188 14.20507812 C17.00884766 13.33302734 17.03527344 12.46097656 17.0625 11.5625 C17.12235185 9.83189012 17.18597254 8.10140523 17.25390625 6.37109375 C17.27783447 5.60466553 17.3017627 4.8382373 17.32641602 4.04858398 C17.5 2.125 17.5 2.125 18.5 0.125 C20.15 0.125 21.8 0.125 23.5 0.125 C25.53654979 4.34356742 25.7688992 7.84134712 25.75 12.5 C25.75515625 13.76585938 25.7603125 15.03171875 25.765625 16.3359375 C25.40488872 21.4817345 24.91120843 25.71379157 21.1875 29.4375 C16.05912507 32.6576424 12.7093364 33.51663516 6.71875 32.66796875 C2.64398127 31.67079823 -0.35773375 29.7024153 -2.8125 26.3125 C-4.65067585 20.46375865 -4.56860206 14.771898 -4.125 8.75 C-4.08117188 8.02683594 -4.03734375 7.30367188 -3.9921875 6.55859375 C-3.56123223 0.17806161 -3.56123223 0.17806161 0 0 Z " fill="#FFFFFF" transform="translate(44.5,96.875)"/>
<path d="M0 0 C1.2065625 0.0309375 1.2065625 0.0309375 2.4375 0.0625 C3.58423138 2.35596276 3.58997769 3.75754703 3.6484375 6.30859375 C3.67679687 7.14583984 3.70515625 7.98308594 3.734375 8.84570312 C3.78633719 10.61111851 3.83064467 12.37677628 3.8671875 14.14257812 C3.898125 14.98111328 3.9290625 15.81964844 3.9609375 16.68359375 C3.98075684 17.4511499 4.00057617 18.21870605 4.02099609 19.00952148 C4.54674585 21.60098088 5.32393146 22.5021658 7.4375 24.0625 C10.97963985 24.56257794 10.97963985 24.56257794 14.4375 24.0625 C16.52773686 20.92714471 16.70589636 20.02783251 16.81640625 16.4296875 C16.85056641 15.54152344 16.88472656 14.65335938 16.91992188 13.73828125 C16.94634766 12.81402344 16.97277344 11.88976562 17 10.9375 C17.05967882 9.10142384 17.12326588 7.2654691 17.19140625 5.4296875 C17.21533447 4.61612793 17.2392627 3.80256836 17.26391602 2.96435547 C17.4375 1.0625 17.4375 1.0625 18.4375 0.0625 C20.9375 -0.0625 20.9375 -0.0625 23.4375 0.0625 C25.90693325 2.53193325 24.71982907 8.93723158 24.75 12.25 C24.77900391 13.29220703 24.80800781 14.33441406 24.83789062 15.40820312 C24.88902625 21.59561321 24.72613777 25.44046989 20.4375 30.0625 C15.92200542 33.22431312 10.79500847 33.47775133 5.484375 32.64453125 C1.08936998 31.39480654 -1.10829461 28.74380809 -3.5625 25.0625 C-3.80541992 22.53466797 -3.80541992 22.53466797 -3.79296875 19.5546875 C-3.79103516 18.48605469 -3.78910156 17.41742188 -3.78710938 16.31640625 C-3.76874023 14.64384766 -3.76874023 14.64384766 -3.75 12.9375 C-3.74935547 11.81472656 -3.74871094 10.69195312 -3.74804688 9.53515625 C-3.69665332 0.09016228 -3.69665332 0.09016228 0 0 Z " fill="#FFFFFF" transform="translate(108.5625,96.9375)"/>
<path d="M0 0 C0.99 0 1.98 0 3 0 C3 18.15 3 36.3 3 55 C0.18784488 56.40607756 -2.1404422 56.11950486 -5.28564453 56.11352539 C-5.92967224 56.11367142 -6.57369995 56.11381744 -7.23724365 56.1139679 C-9.36913402 56.1132704 -11.50093737 56.10548566 -13.6328125 56.09765625 C-15.10968986 56.09579149 -16.58656784 56.09436786 -18.06344604 56.09336853 C-21.95312199 56.08954792 -25.84276067 56.07972152 -29.73242188 56.06866455 C-33.70051571 56.05844064 -37.66861555 56.05386881 -41.63671875 56.04882812 C-49.42449616 56.03809885 -57.21224286 56.02102789 -65 56 C-65 55.34 -65 54.68 -65 54 C-43.55 53.67 -22.1 53.34 0 53 C0 35.51 0 18.02 0 0 Z " fill="#FFFFFF" transform="translate(211,87)"/>
<path d="M0 0 C1.32 0.66 2.64 1.32 4 2 C3.75 4.375 3.75 4.375 3 7 C1.1875 8.4375 1.1875 8.4375 -1 9 C-3.125 8.125 -3.125 8.125 -5 7 C-5.66 7 -6.32 7 -7 7 C-7.2475 7.61875 -7.495 8.2375 -7.75 8.875 C-9.22047178 11.37480203 -10.41403076 11.83316022 -13 13 C-9.2430054 7.45396035 -5.65370024 3.61836815 0 0 Z " fill="#FFFFFF" transform="translate(32,96)"/>
<path d="M0 0 C0.99 0.33 1.98 0.66 3 1 C4.1875 4.0625 4.1875 4.0625 5 7 C4.34 7.66 3.68 8.32 3 9 C0.375 8.625 0.375 8.625 -2 8 C-1.2265625 7.13375 -1.2265625 7.13375 -0.4375 6.25 C1.26505193 4.12172477 1.26505193 4.12172477 0.6875 1.75 C0.460625 1.1725 0.23375 0.595 0 0 Z " fill="#FFFFFF" transform="translate(33,120)"/>
<path d="M0 0 C0.625 1.875 0.625 1.875 1 4 C0.34 4.66 -0.32 5.32 -1 6 C-1 5.34 -1 4.68 -1 4 C-1.99 3.67 -2.98 3.34 -4 3 C-4 2.34 -4 1.68 -4 1 C-2 0 -2 0 0 0 Z " fill="#FFFFFF" transform="translate(112,120)"/>
</svg>
